<svg width="513" height="51" viewBox="0 0 513 51" fill="none" xmlns="http://www.w3.org/2000/svg">
<path d="M133.889 40.201L136.524 28.9139L127.765 21.3255L139.302 20.3271L143.821 9.68164L148.34 20.325L159.875 21.3234L151.116 28.9118L153.753 40.1988L143.821 34.208L133.889 40.201Z" fill="#FBBC04"/>
<path d="M189.875 40.201L192.509 28.9139L183.75 21.3255L195.288 20.3271L199.806 9.68164L204.325 20.325L215.861 21.3234L207.102 28.9118L209.738 40.1988L199.806 34.208L189.875 40.201Z" fill="#FBBC04"/>
<path d="M245.861 40.201L248.495 28.9139L239.736 21.3255L251.274 20.3271L255.793 9.68164L260.311 20.325L271.847 21.3234L263.088 28.9118L265.724 40.1988L255.793 34.208L245.861 40.201Z" fill="#FBBC04"/>
<path d="M301.847 40.201L304.482 28.9139L295.723 21.3255L307.26 20.3271L311.779 9.68164L316.298 20.325L327.833 21.3234L319.074 28.9118L321.711 40.1988L311.779 34.208L301.847 40.201Z" fill="#FBBC04"/>
<path d="M358.265 40.201L360.972 28.9139L351.97 21.3255L363.828 20.3271L368.472 9.68164L373.116 20.325L384.972 21.3234L375.97 28.9118L378.68 40.1988L368.472 34.208L358.265 40.201Z" fill="#FBBC04"/>
</svg>
