<svg width="1564" height="129" viewBox="0 0 1564 129" fill="none" xmlns="http://www.w3.org/2000/svg">
<mask id="path-1-outside-1_1351_351" maskUnits="userSpaceOnUse" x="-0.623047" y="-0.466797" width="1565" height="129" fill="black">
<rect fill="white" x="-0.623047" y="-0.466797" width="1565" height="129"/>
<path d="M35.1514 40.3735C35.1514 61.0866 142.024 29.9299 142.024 88.24C142.024 102.339 136.628 126.359 83.366 126.359H61.0863C7.82393 126.359 2.42807 97.1171 2.42807 83.0182H35.3254C35.3254 86.6735 37.5882 95.2024 52.2092 95.2024H97.4648C106.69 95.2024 109.127 91.8953 109.127 88.24C109.127 65.9603 2.07995 98.8577 2.07995 40.3735C2.07995 26.1006 7.47581 2.0803 60.9122 2.0803H83.0179C136.454 2.0803 141.85 31.3224 141.85 45.5953H108.779C108.779 41.766 106.69 33.4111 91.8949 33.4111H46.6393C37.066 33.4111 35.1514 36.5442 35.1514 40.3735ZM248.678 2.0803C271.132 2.0803 308.033 5.5615 308.033 48.5543C308.033 91.5471 271.132 95.0283 248.678 95.0283H192.805V126.359H159.733V2.0803H248.678ZM251.463 63.8716C269.043 63.8716 273.395 58.3017 273.395 48.5543C273.395 38.807 269.043 33.4111 251.463 33.4111H192.805V63.8716H251.463ZM356.761 2.0803H396.795L459.283 126.359H422.382L409.675 99.3798H343.707L331 126.359H294.1L356.761 2.0803ZM357.632 69.9637H395.751L376.778 29.4077L357.632 69.9637ZM641.105 2.0803H678.179L627.702 126.359H587.668L558.252 53.7761L528.836 126.359H488.802L438.325 2.0803H475.225L510.908 89.8065L542.238 2.0803H574.265L605.596 89.8065L641.105 2.0803ZM815.64 90.6768V2.0803H848.538V126.359H799.801L723.215 37.7626V126.359H690.317V2.0803H739.054L815.64 90.6768ZM958.333 2.0803C980.787 2.0803 1017.69 5.5615 1017.69 48.5543C1017.69 91.5471 980.787 95.0283 958.333 95.0283H902.46V126.359H869.388V2.0803H958.333ZM961.118 63.8716C978.698 63.8716 983.049 58.3017 983.049 48.5543C983.049 38.807 978.698 33.4111 961.118 33.4111H902.46V63.8716H961.118ZM1124.23 2.0803C1146.68 2.0803 1189.85 7.12804 1189.85 64.2197C1189.85 121.485 1146.68 126.359 1124.23 126.359H1097.25C1074.8 126.359 1031.63 121.485 1031.63 64.2197C1031.63 7.12804 1074.8 2.0803 1097.25 2.0803H1124.23ZM1133.28 95.2024C1150.86 95.2024 1155.21 80.0592 1155.21 64.2197C1155.21 48.5543 1150.86 33.4111 1133.28 33.4111H1088.2C1070.62 33.4111 1066.27 48.5543 1066.27 64.2197C1066.27 80.0592 1070.62 95.2024 1088.2 95.2024H1133.28ZM1207.3 126.359V2.0803H1240.2V126.359H1207.3ZM1386.42 90.6768V2.0803H1419.32V126.359H1370.58L1294 37.7626V126.359H1261.1V2.0803H1309.83L1386.42 90.6768ZM1436.77 33.4111V2.0803H1561.92V33.4111H1515.27V126.359H1482.37V33.4111H1436.77Z"/>
</mask>
<path d="M2.42807 83.0182V80.9383H0.34818V83.0182H2.42807ZM35.3254 83.0182H37.4053V80.9383H35.3254V83.0182ZM141.85 45.5953V47.6752H143.93V45.5953H141.85ZM108.779 45.5953H106.699V47.6752H108.779V45.5953ZM35.1514 40.3735H33.0715C33.0715 42.1625 33.665 43.7304 34.7647 45.0284C35.8283 46.2837 37.2909 47.2019 38.9288 47.8992C42.1717 49.28 46.6262 50.0087 51.6636 50.4626C56.7438 50.9205 62.6531 51.115 68.8966 51.3252C75.1645 51.5362 81.7991 51.7634 88.4257 52.2815C101.738 53.3222 114.709 55.5207 124.31 60.8894C129.076 63.5542 132.959 66.9723 135.659 71.3781C138.354 75.7772 139.944 81.2813 139.944 88.24H142.024H144.104C144.104 80.6212 142.354 74.3436 139.205 69.2047C136.061 64.0726 131.594 60.1965 126.34 57.2587C115.903 51.4223 102.156 49.1823 88.7499 48.1343C82.0173 47.608 75.2929 47.3783 69.0366 47.1678C62.7559 46.9564 56.976 46.7647 52.0369 46.3196C47.0549 45.8707 43.16 45.1797 40.5583 44.0719C39.2739 43.525 38.4404 42.9318 37.9385 42.3393C37.4727 41.7896 37.2312 41.1736 37.2312 40.3735H35.1514ZM142.024 88.24H139.944C139.944 95.0417 138.643 103.893 131.22 111.094C123.765 118.326 109.738 124.279 83.366 124.279V126.359V128.439C110.256 128.439 125.558 122.382 134.117 114.079C142.708 105.745 144.104 95.5371 144.104 88.24H142.024ZM83.366 126.359V124.279H61.0863V126.359V128.439H83.366V126.359ZM61.0863 126.359V124.279C34.8256 124.279 20.8268 117.08 13.3433 108.6C5.82047 100.075 4.50797 89.8427 4.50797 83.0182H2.42807H0.34818C0.34818 90.2926 1.73361 101.731 10.2243 111.352C18.7543 121.018 34.0847 128.439 61.0863 128.439V126.359ZM2.42807 83.0182V85.0981H35.3254V83.0182V80.9383H2.42807V83.0182ZM35.3254 83.0182H33.2455C33.2455 85.2127 33.9149 88.8181 36.7571 91.8928C39.6431 95.015 44.4827 97.2823 52.2092 97.2823V95.2024V93.1225C45.3147 93.1225 41.7124 91.1253 39.8118 89.0692C37.8673 86.9656 37.4053 84.479 37.4053 83.0182H35.3254ZM52.2092 95.2024V97.2823H97.4648V95.2024V93.1225H52.2092V95.2024ZM97.4648 95.2024V97.2823C102.261 97.2823 105.699 96.4345 107.98 94.7731C110.39 93.0175 111.207 90.583 111.207 88.24H109.127H107.047C107.047 89.5523 106.645 90.5989 105.531 91.4107C104.287 92.3168 101.894 93.1225 97.4648 93.1225V95.2024ZM109.127 88.24H111.207C111.207 86.393 110.639 84.7607 109.56 83.3878C108.508 82.0505 107.049 81.0564 105.397 80.2959C102.132 78.7937 97.6531 78.0004 92.5994 77.5156C87.5014 77.0265 81.5771 76.8335 75.319 76.6455C69.0354 76.4569 62.3894 76.2729 55.7485 75.8086C42.4076 74.8758 29.4176 72.8253 19.804 67.5677C15.0339 64.959 11.1498 61.5891 8.4494 57.2152C5.75295 52.8476 4.15985 47.3548 4.15985 40.3735H2.07995H5.96046e-05C5.96046e-05 48.0132 1.75217 54.2858 4.90985 59.4004C8.06362 64.5087 12.5425 68.3378 17.8081 71.2174C28.2657 76.9365 42.0375 79.0199 55.4583 79.9583C62.1983 80.4295 68.9331 80.6154 75.1941 80.8035C81.4806 80.9922 87.2645 81.1826 92.2022 81.6563C97.1841 82.1343 101.068 82.8831 103.658 84.0747C104.932 84.6611 105.773 85.3018 106.29 85.9589C106.778 86.5804 107.047 87.302 107.047 88.24H109.127ZM2.07995 40.3735H4.15985C4.15985 33.4809 5.46338 24.5878 12.9057 17.3673C20.3815 10.1144 34.4511 4.16019 60.9122 4.16019V2.0803V0.000405312C33.937 0.000405312 18.5904 6.05636 10.0091 14.3818C1.39446 22.7396 5.96046e-05 32.9932 5.96046e-05 40.3735H2.07995ZM60.9122 2.0803V4.16019H83.0179V2.0803V0.000405312H60.9122V2.0803ZM83.0179 2.0803V4.16019C109.368 4.16019 123.409 11.3612 130.913 19.8619C138.456 28.4066 139.77 38.6806 139.77 45.5953H141.85H143.93C143.93 38.237 142.546 26.7536 134.032 17.109C125.479 7.42044 110.104 0.000405312 83.0179 0.000405312V2.0803ZM141.85 45.5953V43.5154H108.779V45.5953V47.6752H141.85V45.5953ZM108.779 45.5953H110.859C110.859 43.3512 110.252 39.7295 107.413 36.6559C104.537 33.5423 99.6863 31.3312 91.8949 31.3312V33.4111V35.491C98.8987 35.491 102.49 37.4573 104.357 39.4785C106.261 41.5397 106.699 44.01 106.699 45.5953H108.779ZM91.8949 33.4111V31.3312H46.6393V33.4111V35.491H91.8949V33.4111ZM46.6393 33.4111V31.3312C41.7183 31.3312 38.2801 32.1181 36.054 33.795C33.6626 35.5963 33.0715 38.095 33.0715 40.3735H35.1514H37.2312C37.2312 38.8226 37.5975 37.8402 38.5567 37.1176C39.6812 36.2706 41.9871 35.491 46.6393 35.491V33.4111ZM192.805 95.0283V92.9484H190.725V95.0283H192.805ZM192.805 126.359V128.439H194.885V126.359H192.805ZM159.733 126.359H157.654V128.439H159.733V126.359ZM159.733 2.0803V0.000405312H157.654V2.0803H159.733ZM192.805 33.4111V31.3312H190.725V33.4111H192.805ZM192.805 63.8716H190.725V65.9515H192.805V63.8716ZM248.678 2.0803V4.16019C259.874 4.16019 274.267 5.04639 285.817 11.0411C291.549 14.0159 296.55 18.234 300.131 24.2226C303.714 30.2146 305.953 38.1088 305.953 48.5543H308.033H310.112C310.112 37.5034 307.739 28.8401 303.701 22.0877C299.661 15.3318 294.034 10.6185 287.734 7.34892C275.221 0.854811 259.936 0.000405312 248.678 0.000405312V2.0803ZM308.033 48.5543H305.953C305.953 58.9999 303.714 66.894 300.131 72.8861C296.55 78.8746 291.549 83.0928 285.817 86.0676C274.267 92.0623 259.874 92.9484 248.678 92.9484V95.0283V97.1082C259.936 97.1082 275.221 96.2538 287.734 89.7597C294.034 86.4901 299.661 81.7768 303.701 75.0209C307.739 68.2685 310.112 59.6052 310.112 48.5543H308.033ZM248.678 95.0283V92.9484H192.805V95.0283V97.1082H248.678V95.0283ZM192.805 95.0283H190.725V126.359H192.805H194.885V95.0283H192.805ZM192.805 126.359V124.279H159.733V126.359V128.439H192.805V126.359ZM159.733 126.359H161.813V2.0803H159.733H157.654V126.359H159.733ZM159.733 2.0803V4.16019H248.678V2.0803V0.000405312H159.733V2.0803ZM251.463 63.8716V65.9515C260.366 65.9515 266.456 64.5634 270.315 61.4965C274.32 58.3143 275.475 53.7098 275.475 48.5543H273.395H271.315C271.315 53.1462 270.294 56.2003 267.727 58.2399C265.016 60.3948 260.14 61.7917 251.463 61.7917V63.8716ZM273.395 48.5543H275.475C275.475 43.3981 274.319 38.8276 270.302 35.6886C266.443 32.6725 260.355 31.3312 251.463 31.3312V33.4111V35.491C260.151 35.491 265.029 36.8476 267.741 38.9663C270.295 40.9621 271.315 43.9632 271.315 48.5543H273.395ZM251.463 33.4111V31.3312H192.805V33.4111V35.491H251.463V33.4111ZM192.805 33.4111H190.725V63.8716H192.805H194.885V33.4111H192.805ZM192.805 63.8716V65.9515H251.463V63.8716V61.7917H192.805V63.8716ZM356.761 2.0803V0.000405312H355.481L354.904 1.1439L356.761 2.0803ZM396.795 2.0803L398.653 1.14598L398.077 0.000405312H396.795V2.0803ZM459.283 126.359V128.439H462.656L461.141 125.425L459.283 126.359ZM422.382 126.359L420.5 127.245L421.062 128.439H422.382V126.359ZM409.675 99.3798L411.557 98.4936L410.995 97.2999H409.675V99.3798ZM343.707 99.3798V97.2999H342.387L341.825 98.4936L343.707 99.3798ZM331 126.359V128.439H332.32L332.882 127.245L331 126.359ZM294.1 126.359L292.242 125.423L290.722 128.439H294.1V126.359ZM357.632 69.9637L355.751 69.0758L354.35 72.0436H357.632V69.9637ZM395.751 69.9637V72.0436H399.02L397.635 69.0824L395.751 69.9637ZM376.778 29.4077L378.662 28.5264L376.787 24.5176L374.897 28.5198L376.778 29.4077ZM356.761 2.0803V4.16019H396.795V2.0803V0.000405312H356.761V2.0803ZM396.795 2.0803L394.937 3.01462L457.424 127.293L459.283 126.359L461.141 125.425L398.653 1.14598L396.795 2.0803ZM459.283 126.359V124.279H422.382V126.359V128.439H459.283V126.359ZM422.382 126.359L424.263 125.473L411.557 98.4936L409.675 99.3798L407.794 100.266L420.5 127.245L422.382 126.359ZM409.675 99.3798V97.2999H343.707V99.3798V101.46H409.675V99.3798ZM343.707 99.3798L341.825 98.4936L329.119 125.473L331 126.359L332.882 127.245L345.588 100.266L343.707 99.3798ZM331 126.359V124.279H294.1V126.359V128.439H331V126.359ZM294.1 126.359L295.957 127.296L358.618 3.01669L356.761 2.0803L354.904 1.1439L292.242 125.423L294.1 126.359ZM357.632 69.9637V72.0436H395.751V69.9637V67.8838H357.632V69.9637ZM395.751 69.9637L397.635 69.0824L378.662 28.5264L376.778 29.4077L374.894 30.289L393.867 70.845L395.751 69.9637ZM376.778 29.4077L374.897 28.5198L355.751 69.0758L357.632 69.9637L359.512 70.8516L378.659 30.2957L376.778 29.4077ZM641.104 2.0803V0.000405312H639.703L639.177 1.29994L641.104 2.0803ZM678.179 2.0803L680.106 2.86298L681.269 0.000405312H678.179V2.0803ZM627.702 126.359V128.439H629.102L629.629 127.142L627.702 126.359ZM587.668 126.359L585.74 127.14L586.267 128.439H587.668V126.359ZM558.252 53.7761L560.18 52.9949L558.252 48.2386L556.324 52.9949L558.252 53.7761ZM528.836 126.359V128.439H530.237L530.763 127.14L528.836 126.359ZM488.802 126.359L486.875 127.142L487.402 128.439H488.802V126.359ZM438.325 2.0803V0.000405312H435.235L436.398 2.86298L438.325 2.0803ZM475.225 2.0803L477.152 1.29665L476.625 0.000405312H475.225V2.0803ZM510.908 89.8065L508.981 90.5902L511.034 95.6371L512.866 90.5061L510.908 89.8065ZM542.238 2.0803V0.000405312H540.773L540.28 1.38076L542.238 2.0803ZM574.266 2.0803L576.224 1.38076L575.731 0.000405312H574.266V2.0803ZM605.596 89.8065L603.638 90.5061L605.475 95.6503L607.524 90.5869L605.596 89.8065ZM641.104 2.0803V4.16019H678.179V2.0803V0.000405312H641.104V2.0803ZM678.179 2.0803L676.252 1.29762L625.775 125.576L627.702 126.359L629.629 127.142L680.106 2.86298L678.179 2.0803ZM627.702 126.359V124.279H587.668V126.359V128.439H627.702V126.359ZM587.668 126.359L589.596 125.578L560.18 52.9949L558.252 53.7761L556.324 54.5573L585.74 127.14L587.668 126.359ZM558.252 53.7761L556.324 52.9949L526.908 125.578L528.836 126.359L530.763 127.14L560.18 54.5573L558.252 53.7761ZM528.836 126.359V124.279H488.802V126.359V128.439H528.836V126.359ZM488.802 126.359L490.729 125.576L440.252 1.29762L438.325 2.0803L436.398 2.86298L486.875 127.142L488.802 126.359ZM438.325 2.0803V4.16019H475.225V2.0803V0.000405312H438.325V2.0803ZM475.225 2.0803L473.299 2.86394L508.981 90.5902L510.908 89.8065L512.834 89.0229L477.152 1.29665L475.225 2.0803ZM510.908 89.8065L512.866 90.5061L544.197 2.77984L542.238 2.0803L540.28 1.38076L508.949 89.107L510.908 89.8065ZM542.238 2.0803V4.16019H574.266V2.0803V0.000405312H542.238V2.0803ZM574.266 2.0803L572.307 2.77984L603.638 90.5061L605.596 89.8065L607.555 89.107L576.224 1.38076L574.266 2.0803ZM605.596 89.8065L607.524 90.5869L643.032 2.86066L641.104 2.0803L639.177 1.29994L603.668 89.0262L605.596 89.8065ZM815.64 90.6768L814.067 92.037L817.72 96.2633V90.6768H815.64ZM815.64 2.0803V0.000405312H813.561V2.0803H815.64ZM848.538 2.0803H850.618V0.000405312H848.538V2.0803ZM848.538 126.359V128.439H850.618V126.359H848.538ZM799.801 126.359L798.228 127.719L798.85 128.439H799.801V126.359ZM723.215 37.7626L724.788 36.4024L721.135 32.1761V37.7626H723.215ZM723.215 126.359V128.439H725.294V126.359H723.215ZM690.317 126.359H688.237V128.439H690.317V126.359ZM690.317 2.0803V0.000405312H688.237V2.0803H690.317ZM739.054 2.0803L740.628 0.720116L740.005 0.000405312H739.054V2.0803ZM815.64 90.6768H817.72V2.0803H815.64H813.561V90.6768H815.64ZM815.64 2.0803V4.16019H848.538V2.0803V0.000405312H815.64V2.0803ZM848.538 2.0803H846.458V126.359H848.538H850.618V2.0803H848.538ZM848.538 126.359V124.279H799.801V126.359V128.439H848.538V126.359ZM799.801 126.359L801.375 124.999L724.788 36.4024L723.215 37.7626L721.641 39.1228L798.228 127.719L799.801 126.359ZM723.215 37.7626H721.135V126.359H723.215H725.294V37.7626H723.215ZM723.215 126.359V124.279H690.317V126.359V128.439H723.215V126.359ZM690.317 126.359H692.397V2.0803H690.317H688.237V126.359H690.317ZM690.317 2.0803V4.16019H739.054V2.0803V0.000405312H690.317V2.0803ZM739.054 2.0803L737.481 3.44048L814.067 92.037L815.64 90.6768L817.214 89.3167L740.628 0.720116L739.054 2.0803ZM902.46 95.0283V92.9484H900.38V95.0283H902.46ZM902.46 126.359V128.439H904.54V126.359H902.46ZM869.388 126.359H867.308V128.439H869.388V126.359ZM869.388 2.0803V0.000405312H867.308V2.0803H869.388ZM902.46 33.4111V31.3312H900.38V33.4111H902.46ZM902.46 63.8716H900.38V65.9515H902.46V63.8716ZM958.333 2.0803V4.16019C969.529 4.16019 983.922 5.04639 995.472 11.0411C1001.2 14.0159 1006.2 18.234 1009.79 24.2226C1013.37 30.2146 1015.61 38.1088 1015.61 48.5543H1017.69H1019.77C1019.77 37.5034 1017.39 28.8401 1013.36 22.0877C1009.32 15.3318 1003.69 10.6185 997.388 7.34892C984.875 0.854811 969.591 0.000405312 958.333 0.000405312V2.0803ZM1017.69 48.5543H1015.61C1015.61 58.9999 1013.37 66.894 1009.79 72.8861C1006.2 78.8746 1001.2 83.0928 995.472 86.0676C983.922 92.0623 969.529 92.9484 958.333 92.9484V95.0283V97.1082C969.591 97.1082 984.875 96.2538 997.388 89.7597C1003.69 86.4901 1009.32 81.7768 1013.36 75.0209C1017.39 68.2685 1019.77 59.6052 1019.77 48.5543H1017.69ZM958.333 95.0283V92.9484H902.46V95.0283V97.1082H958.333V95.0283ZM902.46 95.0283H900.38V126.359H902.46H904.54V95.0283H902.46ZM902.46 126.359V124.279H869.388V126.359V128.439H902.46V126.359ZM869.388 126.359H871.468V2.0803H869.388H867.308V126.359H869.388ZM869.388 2.0803V4.16019H958.333V2.0803V0.000405312H869.388V2.0803ZM961.118 63.8716V65.9515C970.021 65.9515 976.111 64.5634 979.97 61.4965C983.975 58.3143 985.129 53.7098 985.129 48.5543H983.049H980.97C980.97 53.1462 979.949 56.2003 977.382 58.2399C974.671 60.3948 969.795 61.7917 961.118 61.7917V63.8716ZM983.049 48.5543H985.129C985.129 43.3981 983.974 38.8276 979.957 35.6886C976.097 32.6725 970.01 31.3312 961.118 31.3312V33.4111V35.491C969.806 35.491 974.684 36.8476 977.396 38.9663C979.949 40.9621 980.97 43.9632 980.97 48.5543H983.049ZM961.118 33.4111V31.3312H902.46V33.4111V35.491H961.118V33.4111ZM902.46 33.4111H900.38V63.8716H902.46H904.54V33.4111H902.46ZM902.46 63.8716V65.9515H961.118V63.8716V61.7917H902.46V63.8716ZM1124.23 2.0803V4.16019C1135.37 4.16019 1151.28 5.42857 1164.37 13.5102C1177.27 21.4788 1187.77 36.2925 1187.77 64.2197H1189.85H1191.93C1191.93 35.0553 1180.85 18.7992 1166.55 9.97102C1152.44 1.2559 1135.55 0.000405312 1124.23 0.000405312V2.0803ZM1189.85 64.2197H1187.77C1187.77 92.2364 1177.27 107.048 1164.37 114.993C1151.29 123.053 1135.38 124.279 1124.23 124.279V126.359V128.439C1135.54 128.439 1152.44 127.229 1166.55 118.535C1180.85 109.727 1191.93 93.4688 1191.93 64.2197H1189.85ZM1124.23 126.359V124.279H1097.25V126.359V128.439H1124.23V126.359ZM1097.25 126.359V124.279C1086.11 124.279 1070.2 123.053 1057.11 114.993C1044.21 107.048 1033.71 92.2364 1033.71 64.2197H1031.63H1029.55C1029.55 93.4688 1040.63 109.727 1054.93 118.535C1069.04 127.229 1085.94 128.439 1097.25 128.439V126.359ZM1031.63 64.2197H1033.71C1033.71 36.2925 1044.21 21.4788 1057.11 13.5102C1070.2 5.42857 1086.11 4.16019 1097.25 4.16019V2.0803V0.000405312C1085.94 0.000405312 1069.04 1.2559 1054.93 9.97102C1040.63 18.7992 1029.55 35.0553 1029.55 64.2197H1031.63ZM1097.25 2.0803V4.16019H1124.23V2.0803V0.000405312H1097.25V2.0803ZM1133.28 95.2024V97.2823C1142.81 97.2823 1148.99 93.1004 1152.65 86.6806C1156.2 80.4427 1157.29 72.2591 1157.29 64.2197H1155.21H1153.13C1153.13 72.0198 1152.05 79.3276 1149.03 84.6211C1146.12 89.7328 1141.33 93.1225 1133.28 93.1225V95.2024ZM1155.21 64.2197H1157.29C1157.29 56.2647 1156.2 48.1243 1152.65 41.9082C1148.99 35.5122 1142.81 31.3312 1133.28 31.3312V33.4111V35.491C1141.33 35.491 1146.12 38.8817 1149.04 43.9735C1152.05 49.2454 1153.13 56.5093 1153.13 64.2197H1155.21ZM1133.28 33.4111V31.3312H1088.2V33.4111V35.491H1133.28V33.4111ZM1088.2 33.4111V31.3312C1078.67 31.3312 1072.5 35.5122 1068.84 41.9082C1065.28 48.1243 1064.19 56.2647 1064.19 64.2197H1066.27H1068.35C1068.35 56.5093 1069.43 49.2454 1072.45 43.9735C1075.36 38.8817 1080.15 35.491 1088.2 35.491V33.4111ZM1066.27 64.2197H1064.19C1064.19 72.2591 1065.28 80.4427 1068.84 86.6806C1072.49 93.1004 1078.67 97.2823 1088.2 97.2823V95.2024V93.1225C1080.15 93.1225 1075.36 89.7328 1072.45 84.6211C1069.43 79.3276 1068.35 72.0198 1068.35 64.2197H1066.27ZM1088.2 95.2024V97.2823H1133.28V95.2024V93.1225H1088.2V95.2024ZM1207.3 126.359H1205.22V128.439H1207.3V126.359ZM1207.3 2.0803V0.000405312H1205.22V2.0803H1207.3ZM1240.2 2.0803H1242.28V0.000405312H1240.2V2.0803ZM1240.2 126.359V128.439H1242.28V126.359H1240.2ZM1207.3 126.359H1209.38V2.0803H1207.3H1205.22V126.359H1207.3ZM1207.3 2.0803V4.16019H1240.2V2.0803V0.000405312H1207.3V2.0803ZM1240.2 2.0803H1238.12V126.359H1240.2H1242.28V2.0803H1240.2ZM1240.2 126.359V124.279H1207.3V126.359V128.439H1240.2V126.359ZM1386.42 90.6768L1384.85 92.037L1388.5 96.2633V90.6768H1386.42ZM1386.42 2.0803V0.000405312H1384.34V2.0803H1386.42ZM1419.32 2.0803H1421.4V0.000405312H1419.32V2.0803ZM1419.32 126.359V128.439H1421.4V126.359H1419.32ZM1370.58 126.359L1369.01 127.719L1369.63 128.439H1370.58V126.359ZM1294 37.7626L1295.57 36.4024L1291.92 32.1761V37.7626H1294ZM1294 126.359V128.439H1296.08V126.359H1294ZM1261.1 126.359H1259.02V128.439H1261.1V126.359ZM1261.1 2.0803V0.000405312H1259.02V2.0803H1261.1ZM1309.83 2.0803L1311.41 0.720116L1310.79 0.000405312H1309.83V2.0803ZM1386.42 90.6768H1388.5V2.0803H1386.42H1384.34V90.6768H1386.42ZM1386.42 2.0803V4.16019H1419.32V2.0803V0.000405312H1386.42V2.0803ZM1419.32 2.0803H1417.24V126.359H1419.32H1421.4V2.0803H1419.32ZM1419.32 126.359V124.279H1370.58V126.359V128.439H1419.32V126.359ZM1370.58 126.359L1372.16 124.999L1295.57 36.4024L1294 37.7626L1292.42 39.1228L1369.01 127.719L1370.58 126.359ZM1294 37.7626H1291.92V126.359H1294H1296.08V37.7626H1294ZM1294 126.359V124.279H1261.1V126.359V128.439H1294V126.359ZM1261.1 126.359H1263.18V2.0803H1261.1H1259.02V126.359H1261.1ZM1261.1 2.0803V4.16019H1309.83V2.0803V0.000405312H1261.1V2.0803ZM1309.83 2.0803L1308.26 3.44048L1384.85 92.037L1386.42 90.6768L1387.99 89.3167L1311.41 0.720116L1309.83 2.0803ZM1436.77 33.4111H1434.69V35.491H1436.77V33.4111ZM1436.77 2.0803V0.000405312H1434.69V2.0803H1436.77ZM1561.92 2.0803H1564V0.000405312H1561.92V2.0803ZM1561.92 33.4111V35.491H1564V33.4111H1561.92ZM1515.27 33.4111V31.3312H1513.19V33.4111H1515.27ZM1515.27 126.359V128.439H1517.35V126.359H1515.27ZM1482.37 126.359H1480.29V128.439H1482.37V126.359ZM1482.37 33.4111H1484.45V31.3312H1482.37V33.4111ZM1436.77 33.4111H1438.85V2.0803H1436.77H1434.69V33.4111H1436.77ZM1436.77 2.0803V4.16019H1561.92V2.0803V0.000405312H1436.77V2.0803ZM1561.92 2.0803H1559.84V33.4111H1561.92H1564V2.0803H1561.92ZM1561.92 33.4111V31.3312H1515.27V33.4111V35.491H1561.92V33.4111ZM1515.27 33.4111H1513.19V126.359H1515.27H1517.35V33.4111H1515.27ZM1515.27 126.359V124.279H1482.37V126.359V128.439H1515.27V126.359ZM1482.37 126.359H1484.45V33.4111H1482.37H1480.29V126.359H1482.37ZM1482.37 33.4111V31.3312H1436.77V33.4111V35.491H1482.37V33.4111Z" fill="url(#paint0_linear_1351_351)" mask="url(#path-1-outside-1_1351_351)"/>
<defs>
<linearGradient id="paint0_linear_1351_351" x1="-6.62305" y1="83.0332" x2="1571.38" y2="83.0332" gradientUnits="userSpaceOnUse">
<stop stop-color="white" stop-opacity="0"/>
<stop offset="0.524038" stop-color="white" stop-opacity="0.35"/>
<stop offset="1" stop-color="white" stop-opacity="0"/>
</linearGradient>
</defs>
</svg>
