<svg width="1561" height="327" viewBox="0 0 1561 327" fill="none" xmlns="http://www.w3.org/2000/svg">
<mask id="path-1-outside-1_256_88" maskUnits="userSpaceOnUse" x="-0.491211" y="-0.764648" width="1562" height="328" fill="black">
<rect fill="white" x="-0.491211" y="-0.764648" width="1562" height="328"/>
<path d="M2.07993 212.22H55.8914C57.8553 216.147 58.2481 223.218 58.2481 229.895V258.961C58.2481 271.137 63.7471 278.993 72.7811 278.993C82.2079 278.993 87.7069 271.137 87.7069 257.39C87.7069 232.252 71.21 209.077 53.9275 186.296L42.5367 171.37C15.8274 136.412 4.82942 113.238 4.82942 78.6729C4.82942 33.5027 31.9315 2.07999 76.3162 2.07999C121.486 2.07999 146.232 33.5027 146.232 83.3864C146.232 92.8132 146.625 99.8833 148.589 106.168V110.096H95.5626C93.9915 105.775 93.2059 99.8833 93.2059 92.4204V66.1039C93.2059 53.5347 87.3141 47.2502 79.0657 47.2502C70.4244 47.2502 63.7471 53.5347 63.7471 69.2461C63.7471 92.4204 75.9234 108.917 93.2059 130.913L104.989 145.839C132.092 180.011 146.625 207.113 146.625 245.606C146.625 293.526 119.522 324.163 76.709 324.163C28.7893 324.163 4.43663 293.133 4.43663 238.143C4.43663 228.717 4.04385 222.039 2.07993 216.147V212.22ZM167.637 6.00783H225.769C273.689 6.00783 314.931 37.4306 314.931 104.204V112.06C314.931 178.833 273.689 210.256 226.555 210.256V320.235H167.637V6.00783ZM226.555 53.142V163.122H230.483C246.194 163.122 256.014 154.088 256.014 131.699V84.5647C256.014 62.176 246.194 53.142 230.483 53.142H226.555ZM343.726 6.00783H430.138L459.597 316.308V320.235H404.607L397.93 245.606H375.934L369.257 320.235H314.267V316.308L343.726 6.00783ZM376.327 194.544H397.537L388.896 86.5286H384.968L376.327 194.544ZM538.886 6.00783H578.164L589.948 182.761H593.876L601.731 6.00783H650.829V9.93567L633.154 320.235H572.272L560.489 182.761H556.561L544.778 320.235H483.896L466.221 9.93567V6.00783H515.319L523.174 182.761H527.102L538.886 6.00783ZM671.193 6.00783H722.255L755.641 163.122H759.569L753.677 6.00783H808.667V320.235H757.605L724.219 163.122H720.291L726.183 320.235H671.193V6.00783ZM832.997 6.00783H891.129C939.049 6.00783 980.291 37.4306 980.291 104.204V112.06C980.291 178.833 939.049 210.256 891.915 210.256V320.235H832.997V6.00783ZM891.915 53.142V163.122H895.842C911.554 163.122 921.373 154.088 921.373 131.699V84.5647C921.373 62.176 911.554 53.142 895.842 53.142H891.915ZM997.508 174.905V151.338C997.508 43.3224 1026.97 2.07999 1078.03 2.07999C1129.09 2.07999 1158.55 43.3224 1158.55 151.338V174.905C1158.55 282.921 1129.09 324.163 1078.03 324.163C1026.97 324.163 997.508 282.921 997.508 174.905ZM1062.32 69.2461V255.033C1062.32 267.995 1068.6 275.065 1078.03 275.065C1087.46 275.065 1093.74 267.995 1093.74 255.033V69.2461C1093.74 56.2842 1087.46 49.2141 1078.03 49.2141C1068.6 49.2141 1062.32 56.2842 1062.32 69.2461ZM1180.66 6.00783H1239.57V320.235H1180.66V6.00783ZM1263.98 6.00783H1315.04L1348.43 163.122H1352.36L1346.46 6.00783H1401.45V320.235H1350.39L1317.01 163.122H1313.08L1318.97 320.235H1263.98V6.00783ZM1421.07 6.00783H1558.54V57.0698H1519.27V320.235H1460.35V57.0698H1421.07V6.00783Z"/>
</mask>
<path d="M2.07993 212.22V210.14H3.3319e-05V212.22H2.07993ZM55.8914 212.22L57.7517 211.289L57.1768 210.14H55.8914V212.22ZM53.9275 186.296L55.5845 185.039L55.5809 185.034L53.9275 186.296ZM42.5367 171.37L44.1901 170.108L44.1894 170.107L42.5367 171.37ZM148.589 106.168H150.668V105.85L150.574 105.547L148.589 106.168ZM148.589 110.096V112.176H150.668V110.096H148.589ZM95.5626 110.096L93.6079 110.806L94.1058 112.176H95.5626V110.096ZM93.2059 130.913L91.5704 132.198L91.5734 132.202L93.2059 130.913ZM104.989 145.839L103.357 147.128L103.36 147.132L104.989 145.839ZM2.07993 216.147H3.3319e-05V216.485L0.106767 216.805L2.07993 216.147ZM2.07993 212.22V214.3H55.8914V212.22V210.14H2.07993V212.22ZM55.8914 212.22L54.0311 213.15C54.8454 214.778 55.403 217.232 55.739 220.256C56.0703 223.238 56.1682 226.587 56.1682 229.895H58.2481H60.328C60.328 226.526 60.2295 223.001 59.8734 219.797C59.522 216.634 58.9013 213.589 57.7517 211.289L55.8914 212.22ZM58.2481 229.895H56.1682V258.961H58.2481H60.328V229.895H58.2481ZM58.2481 258.961H56.1682C56.1682 265.329 57.602 270.809 60.4376 274.757C63.3237 278.774 67.5797 281.073 72.7811 281.073V278.993V276.913C68.9485 276.913 65.938 275.284 63.8161 272.33C61.6437 269.305 60.328 264.769 60.328 258.961H58.2481ZM72.7811 278.993V281.073C78.1596 281.073 82.5371 278.788 85.4883 274.532C88.3722 270.372 89.7868 264.497 89.7868 257.39H87.7069H85.627C85.627 264.03 84.2922 268.956 82.0698 272.162C79.9149 275.27 76.8295 276.913 72.7811 276.913V278.993ZM87.7069 257.39H89.7868C89.7868 244.36 85.5108 231.938 79.1333 219.98C72.7618 208.034 64.2229 196.426 55.5845 185.039L53.9275 186.296L52.2704 187.553C60.9145 198.947 69.2654 210.317 75.4629 221.938C81.6545 233.547 85.627 245.282 85.627 257.39H87.7069ZM53.9275 186.296L55.5809 185.034L44.1901 170.108L42.5367 171.37L40.8833 172.632L52.2741 187.558L53.9275 186.296ZM42.5367 171.37L44.1894 170.107C17.6163 135.328 6.90931 112.594 6.90931 78.6729H4.82942H2.74952C2.74952 113.882 14.0384 137.497 40.884 172.633L42.5367 171.37ZM4.82942 78.6729H6.90931C6.90931 56.4974 13.5582 37.8848 25.4648 24.8398C37.3515 11.8164 54.6418 4.15988 76.3162 4.15988V2.07999V9.15527e-05C53.6059 9.15527e-05 35.1528 8.05492 22.3923 22.0355C9.65172 35.9943 2.74952 55.6782 2.74952 78.6729H4.82942ZM76.3162 2.07999V4.15988C98.3828 4.15988 115.24 11.8127 126.62 25.3643C138.043 38.9672 144.152 58.7615 144.152 83.3864H146.232H148.312C148.312 58.1276 142.048 37.2687 129.806 22.6893C117.52 8.05864 99.4198 9.15527e-05 76.3162 9.15527e-05V2.07999ZM146.232 83.3864H144.152C144.152 92.8239 144.537 100.175 146.603 106.788L148.589 106.168L150.574 105.547C148.713 99.5921 148.312 92.8025 148.312 83.3864H146.232ZM148.589 106.168H146.509V110.096H148.589H150.668V106.168H148.589ZM148.589 110.096V108.016H95.5626V110.096V112.176H148.589V110.096ZM95.5626 110.096L97.5173 109.385C96.0645 105.39 95.2858 99.7726 95.2858 92.4204H93.2059H91.126C91.126 99.994 91.9185 106.161 93.6079 110.806L95.5626 110.096ZM93.2059 92.4204H95.2858V66.1039H93.2059H91.126V92.4204H93.2059ZM93.2059 66.1039H95.2858C95.2858 59.5227 93.7458 54.2944 90.8556 50.6674C87.9215 46.9854 83.764 45.1703 79.0657 45.1703V47.2502V49.3301C82.6158 49.3301 85.5285 50.6572 87.6024 53.2598C89.7201 55.9174 91.126 60.1159 91.126 66.1039H93.2059ZM79.0657 47.2502V45.1703C74.1962 45.1703 69.7215 46.9686 66.5241 51.0795C63.3848 55.1157 61.6672 61.1364 61.6672 69.2461H63.7471H65.827C65.827 61.6444 67.448 56.6672 69.8077 53.6333C72.1093 50.674 75.2939 49.3301 79.0657 49.3301V47.2502ZM63.7471 69.2461H61.6672C61.6672 93.24 74.3465 110.277 91.5704 132.198L93.2059 130.913L94.8414 129.628C77.5003 107.558 65.827 91.6008 65.827 69.2461H63.7471ZM93.2059 130.913L91.5734 132.202L103.357 147.128L104.989 145.839L106.622 144.55L94.8384 129.624L93.2059 130.913ZM104.989 145.839L103.36 147.132C130.336 181.145 144.545 207.794 144.545 245.606H146.625H148.704C148.704 206.433 133.847 178.877 106.619 144.547L104.989 145.839ZM146.625 245.606H144.545C144.545 269.185 137.88 288.29 126.167 301.473C114.478 314.629 97.5902 322.083 76.709 322.083V324.163V326.243C98.6413 326.243 116.711 318.379 129.277 304.236C141.818 290.12 148.704 269.948 148.704 245.606H146.625ZM76.709 324.163V322.083C53.2263 322.083 35.8068 314.502 24.2069 300.45C12.5511 286.331 6.51653 265.373 6.51653 238.143H4.43663H2.35674C2.35674 265.904 8.4985 287.956 20.9989 303.099C33.5552 318.309 52.2719 326.243 76.709 326.243V324.163ZM4.43663 238.143H6.51653C6.51653 228.713 6.13399 221.732 4.05309 215.49L2.07993 216.147L0.106767 216.805C1.9537 222.346 2.35674 228.72 2.35674 238.143H4.43663ZM2.07993 216.147H4.15982V212.22H2.07993H3.3319e-05V216.147H2.07993ZM167.637 6.00783V3.92793H165.557V6.00783H167.637ZM226.555 210.256V208.176H224.475V210.256H226.555ZM226.555 320.235V322.315H228.635V320.235H226.555ZM167.637 320.235H165.557V322.315H167.637V320.235ZM226.555 53.142V51.0621H224.475V53.142H226.555ZM226.555 163.122H224.475V165.201H226.555V163.122ZM167.637 6.00783V8.08772H225.769V6.00783V3.92793H167.637V6.00783ZM225.769 6.00783V8.08772C249.277 8.08772 271.007 15.7899 286.854 31.541C302.688 47.2797 312.851 71.2576 312.851 104.204H314.931H317.011C317.011 70.3769 306.553 45.2568 289.786 28.5907C273.032 11.9372 250.181 3.92793 225.769 3.92793V6.00783ZM314.931 104.204H312.851V112.06H314.931H317.011V104.204H314.931ZM314.931 112.06H312.851C312.851 145.006 302.688 168.987 286.948 184.727C271.195 200.479 249.662 208.176 226.555 208.176V210.256V212.336C250.582 212.336 273.236 204.321 289.889 187.668C306.554 171.004 317.011 145.887 317.011 112.06H314.931ZM226.555 210.256H224.475V320.235H226.555H228.635V210.256H226.555ZM226.555 320.235V318.155H167.637V320.235V322.315H226.555V320.235ZM167.637 320.235H169.717V6.00783H167.637H165.557V320.235H167.637ZM226.555 53.142H224.475V163.122H226.555H228.635V53.142H226.555ZM226.555 163.122V165.201H230.483V163.122V161.042H226.555V163.122ZM230.483 163.122V165.201C238.74 165.201 245.778 162.814 250.706 157.175C255.588 151.588 258.093 143.152 258.093 131.699H256.014H253.934C253.934 142.634 251.53 149.91 247.574 154.437C243.664 158.912 237.937 161.042 230.483 161.042V163.122ZM256.014 131.699H258.093V84.5647H256.014H253.934V131.699H256.014ZM256.014 84.5647H258.093C258.093 73.1115 255.588 64.6757 250.706 59.089C245.778 53.4492 238.74 51.0621 230.483 51.0621V53.142V55.2219C237.937 55.2219 243.664 57.3517 247.574 61.8261C251.53 66.3536 253.934 73.6292 253.934 84.5647H256.014ZM230.483 53.142V51.0621H226.555V53.142V55.2219H230.483V53.142ZM343.726 6.00783V3.92793H341.834L341.655 5.81125L343.726 6.00783ZM430.138 6.00783L432.209 5.81125L432.03 3.92793H430.138V6.00783ZM459.597 316.307H461.677V316.209L461.668 316.111L459.597 316.307ZM459.597 320.235V322.315H461.677V320.235H459.597ZM404.607 320.235L402.536 320.421L402.705 322.315H404.607V320.235ZM397.93 245.606L400.001 245.421L399.832 243.526H397.93V245.606ZM375.934 245.606V243.526H374.032L373.862 245.421L375.934 245.606ZM369.257 320.235V322.315H371.159L371.328 320.421L369.257 320.235ZM314.267 320.235H312.187V322.315H314.267V320.235ZM314.267 316.307L312.196 316.111L312.187 316.209V316.307H314.267ZM376.327 194.544L374.253 194.378L374.074 196.624H376.327V194.544ZM397.537 194.544V196.624H399.79L399.61 194.378L397.537 194.544ZM388.896 86.5286L390.969 86.3628L390.816 84.4487H388.896V86.5286ZM384.968 86.5286V84.4487H383.048L382.895 86.3628L384.968 86.5286ZM343.726 6.00783V8.08772H430.138V6.00783V3.92793H343.726V6.00783ZM430.138 6.00783L428.068 6.2044L457.526 316.504L459.597 316.307L461.668 316.111L432.209 5.81125L430.138 6.00783ZM459.597 316.307H457.517V320.235H459.597H461.677V316.307H459.597ZM459.597 320.235V318.155H404.607V320.235V322.315H459.597V320.235ZM404.607 320.235L406.679 320.05L400.001 245.421L397.93 245.606L395.858 245.792L402.536 320.421L404.607 320.235ZM397.93 245.606V243.526H375.934V245.606V247.686H397.93V245.606ZM375.934 245.606L373.862 245.421L367.185 320.05L369.257 320.235L371.328 320.421L378.006 245.792L375.934 245.606ZM369.257 320.235V318.155H314.267V320.235V322.315H369.257V320.235ZM314.267 320.235H316.347V316.307H314.267H312.187V320.235H314.267ZM314.267 316.307L316.337 316.504L345.796 6.2044L343.726 6.00783L341.655 5.81125L312.196 316.111L314.267 316.307ZM376.327 194.544V196.624H397.537V194.544V192.464H376.327V194.544ZM397.537 194.544L399.61 194.378L390.969 86.3628L388.896 86.5286L386.823 86.6945L395.464 194.71L397.537 194.544ZM388.896 86.5286V84.4487H384.968V86.5286V88.6085H388.896V86.5286ZM384.968 86.5286L382.895 86.3628L374.253 194.378L376.327 194.544L378.4 194.71L387.041 86.6945L384.968 86.5286ZM538.886 6.00783V3.92793H536.94L536.81 5.86948L538.886 6.00783ZM578.164 6.00783L580.24 5.86948L580.11 3.92793H578.164V6.00783ZM589.948 182.761L587.872 182.899L588.002 184.841H589.948V182.761ZM593.876 182.761V184.841H595.865L595.953 182.853L593.876 182.761ZM601.731 6.00783V3.92793H599.742L599.653 5.91547L601.731 6.00783ZM650.829 6.00783H652.909V3.92793H650.829V6.00783ZM650.829 9.93567L652.906 10.0539L652.909 9.99486V9.93567H650.829ZM633.154 320.235V322.315H635.119L635.231 320.354L633.154 320.235ZM572.272 320.235L570.2 320.413L570.363 322.315H572.272V320.235ZM560.489 182.761L562.561 182.583L562.398 180.681H560.489V182.761ZM556.561 182.761V180.681H554.652L554.489 182.583L556.561 182.761ZM544.778 320.235V322.315H546.687L546.85 320.413L544.778 320.235ZM483.896 320.235L481.819 320.354L481.931 322.315H483.896V320.235ZM466.221 9.93567H464.141V9.99486L464.144 10.0539L466.221 9.93567ZM466.221 6.00783V3.92793H464.141V6.00783H466.221ZM515.319 6.00783L517.397 5.91547L517.308 3.92793H515.319V6.00783ZM523.174 182.761L521.097 182.853L521.185 184.841H523.174V182.761ZM527.102 182.761V184.841H529.048L529.178 182.899L527.102 182.761ZM538.886 6.00783V8.08772H578.164V6.00783V3.92793H538.886V6.00783ZM578.164 6.00783L576.089 6.14618L587.872 182.899L589.948 182.761L592.023 182.622L580.24 5.86948L578.164 6.00783ZM589.948 182.761V184.841H593.876V182.761V180.681H589.948V182.761ZM593.876 182.761L595.953 182.853L603.809 6.10017L601.731 6.00783L599.653 5.91547L591.798 182.668L593.876 182.761ZM601.731 6.00783V8.08772H650.829V6.00783V3.92793H601.731V6.00783ZM650.829 6.00783H648.749V9.93567H650.829H652.909V6.00783H650.829ZM650.829 9.93567L648.753 9.81738L631.078 320.117L633.154 320.235L635.231 320.354L652.906 10.0539L650.829 9.93567ZM633.154 320.235V318.155H572.272V320.235V322.315H633.154V320.235ZM572.272 320.235L574.345 320.058L562.561 182.583L560.489 182.761L558.417 182.938L570.2 320.413L572.272 320.235ZM560.489 182.761V180.681H556.561V182.761V184.841H560.489V182.761ZM556.561 182.761L554.489 182.583L542.705 320.058L544.778 320.235L546.85 320.413L558.633 182.938L556.561 182.761ZM544.778 320.235V318.155H483.896V320.235V322.315H544.778V320.235ZM483.896 320.235L485.972 320.117L468.297 9.81738L466.221 9.93567L464.144 10.0539L481.819 320.354L483.896 320.235ZM466.221 9.93567H468.301V6.00783H466.221H464.141V9.93567H466.221ZM466.221 6.00783V8.08772H515.319V6.00783V3.92793H466.221V6.00783ZM515.319 6.00783L513.241 6.10017L521.097 182.853L523.174 182.761L525.252 182.668L517.397 5.91547L515.319 6.00783ZM523.174 182.761V184.841H527.102V182.761V180.681H523.174V182.761ZM527.102 182.761L529.178 182.899L540.961 6.14618L538.886 6.00783L536.81 5.86948L525.027 182.622L527.102 182.761ZM671.193 6.00783V3.92793H669.113V6.00783H671.193ZM722.255 6.00783L724.289 5.5755L723.939 3.92793H722.255V6.00783ZM755.641 163.122L753.607 163.554L753.957 165.201H755.641V163.122ZM759.569 163.122V165.201H761.729L761.648 163.044L759.569 163.122ZM753.677 6.00783V3.92793H751.518L751.599 6.08577L753.677 6.00783ZM808.667 6.00783H810.747V3.92793H808.667V6.00783ZM808.667 320.235V322.315H810.747V320.235H808.667ZM757.605 320.235L755.571 320.668L755.921 322.315H757.605V320.235ZM724.219 163.122L726.253 162.689L725.903 161.042H724.219V163.122ZM720.291 163.122V161.042H718.131L718.212 163.2L720.291 163.122ZM726.183 320.235V322.315H728.342L728.261 320.157L726.183 320.235ZM671.193 320.235H669.113V322.315H671.193V320.235ZM671.193 6.00783V8.08772H722.255V6.00783V3.92793H671.193V6.00783ZM722.255 6.00783L720.22 6.44015L753.607 163.554L755.641 163.122L757.676 162.689L724.289 5.5755L722.255 6.00783ZM755.641 163.122V165.201H759.569V163.122V161.042H755.641V163.122ZM759.569 163.122L761.648 163.044L755.756 5.92989L753.677 6.00783L751.599 6.08577L757.491 163.2L759.569 163.122ZM753.677 6.00783V8.08772H808.667V6.00783V3.92793H753.677V6.00783ZM808.667 6.00783H806.587V320.235H808.667H810.747V6.00783H808.667ZM808.667 320.235V318.155H757.605V320.235V322.315H808.667V320.235ZM757.605 320.235L759.64 319.803L726.253 162.689L724.219 163.122L722.184 163.554L755.571 320.668L757.605 320.235ZM724.219 163.122V161.042H720.291V163.122V165.201H724.219V163.122ZM720.291 163.122L718.212 163.2L724.104 320.313L726.183 320.235L728.261 320.157L722.369 163.044L720.291 163.122ZM726.183 320.235V318.155H671.193V320.235V322.315H726.183V320.235ZM671.193 320.235H673.273V6.00783H671.193H669.113V320.235H671.193ZM832.997 6.00783V3.92793H830.917V6.00783H832.997ZM891.915 210.256V208.176H889.835V210.256H891.915ZM891.915 320.235V322.315H893.995V320.235H891.915ZM832.997 320.235H830.917V322.315H832.997V320.235ZM891.915 53.142V51.0621H889.835V53.142H891.915ZM891.915 163.122H889.835V165.201H891.915V163.122ZM832.997 6.00783V8.08772H891.129V6.00783V3.92793H832.997V6.00783ZM891.129 6.00783V8.08772C914.637 8.08772 936.367 15.7899 952.214 31.541C968.048 47.2797 978.211 71.2576 978.211 104.204H980.291H982.371C982.371 70.3769 971.913 45.2568 955.146 28.5907C938.392 11.9372 915.541 3.92793 891.129 3.92793V6.00783ZM980.291 104.204H978.211V112.06H980.291H982.371V104.204H980.291ZM980.291 112.06H978.211C978.211 145.006 968.047 168.987 952.307 184.727C936.555 200.479 915.022 208.176 891.915 208.176V210.256V212.336C915.942 212.336 938.596 204.321 955.249 187.668C971.913 171.004 982.371 145.887 982.371 112.06H980.291ZM891.915 210.256H889.835V320.235H891.915H893.995V210.256H891.915ZM891.915 320.235V318.155H832.997V320.235V322.315H891.915V320.235ZM832.997 320.235H835.077V6.00783H832.997H830.917V320.235H832.997ZM891.915 53.142H889.835V163.122H891.915H893.995V53.142H891.915ZM891.915 163.122V165.201H895.842V163.122V161.042H891.915V163.122ZM895.842 163.122V165.201C904.1 165.201 911.138 162.814 916.066 157.175C920.948 151.588 923.453 143.152 923.453 131.699H921.373H919.294C919.294 142.634 916.89 149.91 912.933 154.437C909.024 158.912 903.296 161.042 895.842 161.042V163.122ZM921.373 131.699H923.453V84.5647H921.373H919.294V131.699H921.373ZM921.373 84.5647H923.453C923.453 73.1115 920.948 64.6757 916.066 59.089C911.138 53.4492 904.1 51.0621 895.842 51.0621V53.142V55.2219C903.296 55.2219 909.024 57.3517 912.933 61.8261C916.89 66.3536 919.294 73.6292 919.294 84.5647H921.373ZM895.842 53.142V51.0621H891.915V53.142V55.2219H895.842V53.142ZM997.508 174.905H999.587V151.338H997.508H995.428V174.905H997.508ZM997.508 151.338H999.587C999.587 97.4422 1006.95 60.5754 1020.42 37.243C1027.13 25.6145 1035.35 17.3741 1044.92 12.0276C1054.5 6.67828 1065.55 4.15988 1078.03 4.15988V2.07999V9.15527e-05C1064.98 9.15527e-05 1053.2 2.63699 1042.89 8.39608C1032.58 14.1581 1023.85 22.9792 1016.82 35.1632C1002.79 59.4559 995.428 97.2182 995.428 151.338H997.508ZM1078.03 2.07999V4.15988C1090.51 4.15988 1101.56 6.67828 1111.14 12.0276C1120.71 17.3741 1128.92 25.6145 1135.64 37.243C1149.11 60.5754 1156.47 97.4422 1156.47 151.338H1158.55H1160.63C1160.63 97.2182 1153.26 59.4559 1139.24 35.1632C1132.2 22.9792 1123.48 14.1581 1113.17 8.39608C1102.86 2.63699 1091.08 9.15527e-05 1078.03 9.15527e-05V2.07999ZM1158.55 151.338H1156.47V174.905H1158.55H1160.63V151.338H1158.55ZM1158.55 174.905H1156.47C1156.47 228.801 1149.11 265.668 1135.64 289C1128.92 300.629 1120.71 308.869 1111.14 314.216C1101.56 319.565 1090.51 322.083 1078.03 322.083V324.163V326.243C1091.08 326.243 1102.86 323.606 1113.17 317.847C1123.48 312.085 1132.2 303.264 1139.24 291.08C1153.26 266.787 1160.63 229.025 1160.63 174.905H1158.55ZM1078.03 324.163V322.083C1065.55 322.083 1054.5 319.565 1044.92 314.216C1035.35 308.869 1027.13 300.629 1020.42 289C1006.95 265.668 999.587 228.801 999.587 174.905H997.508H995.428C995.428 229.025 1002.79 266.787 1016.82 291.08C1023.85 303.264 1032.58 312.085 1042.89 317.847C1053.2 323.606 1064.98 326.243 1078.03 326.243V324.163ZM1062.32 69.2461H1060.24V255.033H1062.32H1064.4V69.2461H1062.32ZM1062.32 255.033H1060.24C1060.24 261.824 1061.88 267.35 1065.02 271.221C1068.21 275.142 1072.75 277.145 1078.03 277.145V275.065V272.985C1073.88 272.985 1070.57 271.453 1068.25 268.599C1065.89 265.694 1064.4 261.204 1064.4 255.033H1062.32ZM1078.03 275.065V277.145C1083.31 277.145 1087.85 275.142 1091.03 271.221C1094.17 267.35 1095.82 261.824 1095.82 255.033H1093.74H1091.66C1091.66 261.204 1090.16 265.694 1087.8 268.599C1085.49 271.453 1082.18 272.985 1078.03 272.985V275.065ZM1093.74 255.033H1095.82V69.2461H1093.74H1091.66V255.033H1093.74ZM1093.74 69.2461H1095.82C1095.82 62.4548 1094.17 56.9288 1091.03 53.0587C1087.85 49.1375 1083.31 47.1342 1078.03 47.1342V49.2141V51.294C1082.18 51.294 1085.49 52.8258 1087.8 55.6801C1090.16 58.5856 1091.66 63.0755 1091.66 69.2461H1093.74ZM1078.03 49.2141V47.1342C1072.75 47.1342 1068.21 49.1375 1065.02 53.0587C1061.88 56.9288 1060.24 62.4548 1060.24 69.2461H1062.32H1064.4C1064.4 63.0755 1065.89 58.5856 1068.25 55.6801C1070.57 52.8258 1073.88 51.294 1078.03 51.294V49.2141ZM1180.66 6.00783V3.92793H1178.58V6.00783H1180.66ZM1239.57 6.00783H1241.65V3.92793H1239.57V6.00783ZM1239.57 320.235V322.315H1241.65V320.235H1239.57ZM1180.66 320.235H1178.58V322.315H1180.66V320.235ZM1180.66 6.00783V8.08772H1239.57V6.00783V3.92793H1180.66V6.00783ZM1239.57 6.00783H1237.49V320.235H1239.57H1241.65V6.00783H1239.57ZM1239.57 320.235V318.155H1180.66V320.235V322.315H1239.57V320.235ZM1180.66 320.235H1182.74V6.00783H1180.66H1178.58V320.235H1180.66ZM1263.98 6.00783V3.92793H1261.9V6.00783H1263.98ZM1315.04 6.00783L1317.08 5.5755L1316.73 3.92793H1315.04V6.00783ZM1348.43 163.122L1346.39 163.554L1346.74 165.201H1348.43V163.122ZM1352.36 163.122V165.201H1354.52L1354.43 163.044L1352.36 163.122ZM1346.46 6.00783V3.92793H1344.3L1344.39 6.08577L1346.46 6.00783ZM1401.45 6.00783H1403.53V3.92793H1401.45V6.00783ZM1401.45 320.235V322.315H1403.53V320.235H1401.45ZM1350.39 320.235L1348.36 320.668L1348.71 322.315H1350.39V320.235ZM1317.01 163.122L1319.04 162.689L1318.69 161.042H1317.01V163.122ZM1313.08 163.122V161.042H1310.92L1311 163.2L1313.08 163.122ZM1318.97 320.235V322.315H1321.13L1321.05 320.157L1318.97 320.235ZM1263.98 320.235H1261.9V322.315H1263.98V320.235ZM1263.98 6.00783V8.08772H1315.04V6.00783V3.92793H1263.98V6.00783ZM1315.04 6.00783L1313.01 6.44015L1346.39 163.554L1348.43 163.122L1350.46 162.689L1317.08 5.5755L1315.04 6.00783ZM1348.43 163.122V165.201H1352.36V163.122V161.042H1348.43V163.122ZM1352.36 163.122L1354.43 163.044L1348.54 5.92989L1346.46 6.00783L1344.39 6.08577L1350.28 163.2L1352.36 163.122ZM1346.46 6.00783V8.08772H1401.45V6.00783V3.92793H1346.46V6.00783ZM1401.45 6.00783H1399.37V320.235H1401.45H1403.53V6.00783H1401.45ZM1401.45 320.235V318.155H1350.39V320.235V322.315H1401.45V320.235ZM1350.39 320.235L1352.43 319.803L1319.04 162.689L1317.01 163.122L1314.97 163.554L1348.36 320.668L1350.39 320.235ZM1317.01 163.122V161.042H1313.08V163.122V165.201H1317.01V163.122ZM1313.08 163.122L1311 163.2L1316.89 320.313L1318.97 320.235L1321.05 320.157L1315.16 163.044L1313.08 163.122ZM1318.97 320.235V318.155H1263.98V320.235V322.315H1318.97V320.235ZM1263.98 320.235H1266.06V6.00783H1263.98H1261.9V320.235H1263.98ZM1421.07 6.00783V3.92793H1418.99V6.00783H1421.07ZM1558.54 6.00783H1560.62V3.92793H1558.54V6.00783ZM1558.54 57.0698V59.1497H1560.62V57.0698H1558.54ZM1519.27 57.0698V54.9899H1517.19V57.0698H1519.27ZM1519.27 320.235V322.315H1521.35V320.235H1519.27ZM1460.35 320.235H1458.27V322.315H1460.35V320.235ZM1460.35 57.0698H1462.43V54.9899H1460.35V57.0698ZM1421.07 57.0698H1418.99V59.1497H1421.07V57.0698ZM1421.07 6.00783V8.08772H1558.54V6.00783V3.92793H1421.07V6.00783ZM1558.54 6.00783H1556.46V57.0698H1558.54H1560.62V6.00783H1558.54ZM1558.54 57.0698V54.9899H1519.27V57.0698V59.1497H1558.54V57.0698ZM1519.27 57.0698H1517.19V320.235H1519.27H1521.35V57.0698H1519.27ZM1519.27 320.235V318.155H1460.35V320.235V322.315H1519.27V320.235ZM1460.35 320.235H1462.43V57.0698H1460.35H1458.27V320.235H1460.35ZM1460.35 57.0698V54.9899H1421.07V57.0698V59.1497H1460.35V57.0698ZM1421.07 57.0698H1423.15V6.00783H1421.07H1418.99V57.0698H1421.07Z" fill="url(#paint0_linear_256_88)" mask="url(#path-1-outside-1_256_88)"/>
<defs>
<linearGradient id="paint0_linear_256_88" x1="0.508789" y1="161.235" x2="1562.51" y2="161.235" gradientUnits="userSpaceOnUse">
<stop stop-color="white" stop-opacity="0"/>
<stop offset="0.524038" stop-color="white" stop-opacity="0.35"/>
<stop offset="1" stop-color="white" stop-opacity="0"/>
</linearGradient>
</defs>
</svg>
