<svg width="430" height="90" viewBox="0 0 430 90" fill="none" xmlns="http://www.w3.org/2000/svg">
<mask id="path-1-outside-1_1291_422" maskUnits="userSpaceOnUse" x="-1" y="-0.842773" width="431" height="91" fill="black">
<rect fill="white" x="-1" y="-0.842773" width="431" height="91"/>
<path d="M0.432515 58.4218H15.2462C15.7868 59.5031 15.8949 61.4494 15.8949 63.2876V71.2891C15.8949 74.6411 17.4087 76.8037 19.8957 76.8037C22.4908 76.8037 24.0046 74.6411 24.0046 70.8566C24.0046 63.9364 19.4632 57.5568 14.7055 51.2853L11.5698 47.1764C4.21703 37.5529 1.18942 31.1733 1.18942 21.658C1.18942 9.22315 8.65031 0.57284 20.8689 0.57284C33.3037 0.57284 40.1158 9.22315 40.1158 22.9555C40.1158 25.5506 40.2239 27.4969 40.7646 29.227V30.3083H26.1672C25.7347 29.1189 25.5184 27.4969 25.5184 25.4425V18.1979C25.5184 14.7377 23.8965 13.0077 21.6258 13.0077C19.2469 13.0077 17.4087 14.7377 17.4087 19.0629C17.4087 25.4425 20.7607 29.9839 25.5184 36.0391L28.7623 40.148C36.2232 49.5552 40.2239 57.0161 40.2239 67.6127C40.2239 80.8045 32.763 89.2385 20.977 89.2385C7.78528 89.2385 1.08129 80.6963 1.08129 65.5583C1.08129 62.9632 0.97316 61.125 0.432515 59.5031V58.4218ZM46.0084 1.65413H62.0115C75.2032 1.65413 86.5567 10.3044 86.5567 28.6863V30.8489C86.5567 49.2308 75.2032 57.8811 62.2277 57.8811V88.1572H46.0084V1.65413ZM62.2277 14.6296V44.9057H63.309C67.6342 44.9057 70.3374 42.4187 70.3374 36.2554V23.2799C70.3374 17.1166 67.6342 14.6296 63.309 14.6296H62.2277ZM94.4835 1.65413H118.272L126.382 87.0759V88.1572H111.243L109.405 67.6127H103.35L101.512 88.1572H86.3739V87.0759L94.4835 1.65413ZM103.458 53.556H109.297L106.918 23.8205H105.837L103.458 53.556ZM148.209 1.65413H159.022L162.266 50.3121H163.347L165.509 1.65413H179.026V2.73542L174.16 88.1572H157.4L154.156 50.3121H153.075L149.831 88.1572H133.071L128.205 2.73542V1.65413H141.721L143.884 50.3121H144.965L148.209 1.65413ZM184.631 1.65413H198.688L207.879 44.9057H208.96L207.338 1.65413H222.476V88.1572H208.42L199.229 44.9057H198.147L199.769 88.1572H184.631V1.65413ZM229.174 1.65413H245.177C258.369 1.65413 269.722 10.3044 269.722 28.6863V30.8489C269.722 49.2308 258.369 57.8811 245.393 57.8811V88.1572H229.174V1.65413ZM245.393 14.6296V44.9057H246.475C250.8 44.9057 253.503 42.4187 253.503 36.2554V23.2799C253.503 17.1166 250.8 14.6296 246.475 14.6296H245.393ZM274.462 48.1495V41.6618C274.462 11.9264 282.572 0.57284 296.628 0.57284C310.685 0.57284 318.795 11.9264 318.795 41.6618V48.1495C318.795 77.885 310.685 89.2385 296.628 89.2385C282.572 89.2385 274.462 77.885 274.462 48.1495ZM292.303 19.0629V70.2078C292.303 73.7761 294.033 75.7224 296.628 75.7224C299.223 75.7224 300.953 73.7761 300.953 70.2078V19.0629C300.953 15.4946 299.223 13.5483 296.628 13.5483C294.033 13.5483 292.303 15.4946 292.303 19.0629ZM324.88 1.65413H341.1V88.1572H324.88V1.65413ZM347.818 1.65413H361.875L371.066 44.9057H372.147L370.526 1.65413H385.664V88.1572H371.607L362.416 44.9057H361.335L362.957 88.1572H347.818V1.65413ZM391.064 1.65413H428.909V15.7109H418.096V88.1572H401.877V15.7109H391.064V1.65413Z"/>
</mask>
<path d="M0.432515 58.4218V57.8492H-0.140054V58.4218H0.432515ZM15.2462 58.4218L15.7583 58.1657L15.6 57.8492H15.2462V58.4218ZM14.7055 51.2853L15.1617 50.9392L15.1607 50.9379L14.7055 51.2853ZM11.5698 47.1764L12.025 46.829L12.0248 46.8288L11.5698 47.1764ZM40.7646 29.227H41.3372V29.1396L41.3111 29.0562L40.7646 29.227ZM40.7646 30.3083V30.8808H41.3372V30.3083H40.7646ZM26.1672 30.3083L25.6291 30.504L25.7661 30.8808H26.1672V30.3083ZM25.5184 36.0391L25.0682 36.3929L25.069 36.3939L25.5184 36.0391ZM28.7623 40.148L28.3129 40.5028L28.3137 40.5038L28.7623 40.148ZM0.432515 59.5031H-0.140054V59.596L-0.110672 59.6841L0.432515 59.5031ZM0.432515 58.4218V58.9944H15.2462V58.4218V57.8492H0.432515V58.4218ZM15.2462 58.4218L14.734 58.6778C14.9582 59.1262 15.1117 59.8016 15.2042 60.6341C15.2954 61.4549 15.3224 62.3768 15.3224 63.2876H15.8949H16.4675C16.4675 62.3602 16.4404 61.3899 16.3424 60.5076C16.2456 59.6371 16.0748 58.7987 15.7583 58.1657L15.2462 58.4218ZM15.8949 63.2876H15.3224V71.2891H15.8949H16.4675V63.2876H15.8949ZM15.8949 71.2891H15.3224C15.3224 73.0423 15.7171 74.5507 16.4977 75.6374C17.2922 76.7435 18.4638 77.3763 19.8957 77.3763V76.8037V76.2311C18.8406 76.2311 18.0119 75.7826 17.4277 74.9694C16.8297 74.1368 16.4675 72.888 16.4675 71.2891H15.8949ZM19.8957 76.8037V77.3763C21.3763 77.3763 22.5814 76.7474 23.3939 75.5756C24.1877 74.4305 24.5772 72.8131 24.5772 70.8566H24.0046H23.432C23.432 72.6846 23.0646 74.0407 22.4528 74.9231C21.8596 75.7787 21.0102 76.2311 19.8957 76.2311V76.8037ZM24.0046 70.8566H24.5772C24.5772 67.2696 23.4 63.85 21.6444 60.5582C19.8904 57.2694 17.5397 54.0739 15.1617 50.9392L14.7055 51.2853L14.2494 51.6313C16.629 54.7681 18.9279 57.8981 20.634 61.0971C22.3385 64.293 23.432 67.5234 23.432 70.8566H24.0046ZM14.7055 51.2853L15.1607 50.9379L12.025 46.829L11.5698 47.1764L11.1146 47.5238L14.2504 51.6326L14.7055 51.2853ZM11.5698 47.1764L12.0248 46.8288C4.7095 37.2544 1.76199 30.9961 1.76199 21.658H1.18942H0.616848C0.616848 31.3506 3.72455 37.8514 11.1148 47.524L11.5698 47.1764ZM1.18942 21.658H1.76199C1.76199 15.5533 3.59234 10.4295 6.87008 6.83834C10.1424 3.25317 14.9022 1.14541 20.8689 1.14541V0.57284V0.000270844C14.617 0.000270844 9.53708 2.21767 6.02428 6.06635C2.51694 9.90906 0.616848 15.3278 0.616848 21.658H1.18942ZM20.8689 0.57284V1.14541C26.9435 1.14541 31.5843 3.25214 34.7169 6.98274C37.8614 10.7274 39.5432 16.1766 39.5432 22.9555H40.1158H40.6884C40.6884 16.0021 38.9641 10.2599 35.5939 6.24634C32.2118 2.21869 27.229 0.000270844 20.8689 0.000270844V0.57284ZM40.1158 22.9555H39.5432C39.5432 25.5536 39.6491 27.5771 40.2181 29.3978L40.7646 29.227L41.3111 29.0562C40.7988 27.4168 40.6884 25.5477 40.6884 22.9555H40.1158ZM40.7646 29.227H40.192V30.3083H40.7646H41.3372V29.227H40.7646ZM40.7646 30.3083V29.7357H26.1672V30.3083V30.8808H40.7646V30.3083ZM26.1672 30.3083L26.7053 30.1126C26.3053 29.0128 26.091 27.4665 26.091 25.4425H25.5184H24.9458C24.9458 27.5274 25.164 29.225 25.6291 30.504L26.1672 30.3083ZM25.5184 25.4425H26.091V18.1978H25.5184H24.9458V25.4425H25.5184ZM25.5184 18.1978H26.091C26.091 16.3861 25.667 14.9468 24.8714 13.9484C24.0637 12.9348 22.9192 12.4351 21.6258 12.4351V13.0077V13.5802C22.6031 13.5802 23.4049 13.9456 23.9758 14.662C24.5588 15.3936 24.9458 16.5494 24.9458 18.1978H25.5184ZM21.6258 13.0077V12.4351C20.2853 12.4351 19.0534 12.9301 18.1732 14.0618C17.309 15.1729 16.8362 16.8304 16.8362 19.0629H17.4087H17.9813C17.9813 16.9702 18.4276 15.6 19.0772 14.7649C19.7108 13.9502 20.5874 13.5802 21.6258 13.5802V13.0077ZM17.4087 19.0629H16.8362C16.8362 25.6681 20.3266 30.3582 25.0682 36.3929L25.5184 36.0391L25.9686 35.6854C21.1948 29.6096 17.9813 25.2169 17.9813 19.0629H17.4087ZM25.5184 36.0391L25.069 36.3939L28.3129 40.5028L28.7623 40.148L29.2117 39.7932L25.9678 35.6843L25.5184 36.0391ZM28.7623 40.148L28.3137 40.5038C35.74 49.8674 39.6514 57.2034 39.6514 67.6127H40.2239H40.7965C40.7965 56.8288 36.7064 49.243 29.2109 39.7922L28.7623 40.148ZM40.2239 67.6127H39.6514C39.6514 74.1036 37.8166 79.3632 34.5922 82.9922C31.3744 86.6139 26.7254 88.6659 20.977 88.6659V89.2385V89.8111C27.0147 89.8111 31.9892 87.6461 35.4483 83.7528C38.9008 79.8669 40.7965 74.3136 40.7965 67.6127H40.2239ZM20.977 89.2385V88.6659C14.5125 88.6659 9.71713 86.579 6.5238 82.7107C3.3151 78.8237 1.65386 73.0542 1.65386 65.5583H1.08129H0.508719C0.508719 73.2005 2.19947 79.271 5.64069 83.4397C9.09729 87.6269 14.2498 89.8111 20.977 89.8111V89.2385ZM1.08129 65.5583H1.65386C1.65386 62.9623 1.54855 61.0406 0.975703 59.322L0.432515 59.5031L-0.110672 59.6841C0.397767 61.2095 0.508719 62.9641 0.508719 65.5583H1.08129ZM0.432515 59.5031H1.00509V58.4218H0.432515H-0.140054V59.5031H0.432515ZM46.0084 1.65413V1.08156H45.4358V1.65413H46.0084ZM62.2277 57.8811V57.3086H61.6552V57.8811H62.2277ZM62.2277 88.1572V88.7298H62.8003V88.1572H62.2277ZM46.0084 88.1572H45.4358V88.7298H46.0084V88.1572ZM62.2277 14.6296V14.057H61.6552V14.6296H62.2277ZM62.2277 44.9057H61.6552V45.4782H62.2277V44.9057ZM46.0084 1.65413V2.2267H62.0115V1.65413V1.08156H46.0084V1.65413ZM62.0115 1.65413V2.2267C68.483 2.2267 74.465 4.34701 78.8274 8.68311C83.1863 13.0158 85.9842 19.6166 85.9842 28.6863H86.5567H87.1293C87.1293 19.3742 84.2504 12.4589 79.6347 7.87093C75.0223 3.2864 68.7317 1.08156 62.0115 1.08156V1.65413ZM86.5567 28.6863H85.9842V30.8489H86.5567H87.1293V28.6863H86.5567ZM86.5567 30.8489H85.9842C85.9842 39.9187 83.1862 46.5203 78.8532 50.8534C74.5168 55.1897 68.5888 57.3086 62.2277 57.3086V57.8811V58.4537C68.8421 58.4537 75.0786 56.2474 79.6629 51.6631C84.2505 47.0755 87.1293 40.1611 87.1293 30.8489H86.5567ZM62.2277 57.8811H61.6552V88.1572H62.2277H62.8003V57.8811H62.2277ZM62.2277 88.1572V87.5847H46.0084V88.1572V88.7298H62.2277V88.1572ZM46.0084 88.1572H46.581V1.65413H46.0084H45.4358V88.1572H46.0084ZM62.2277 14.6296H61.6552V44.9057H62.2277H62.8003V14.6296H62.2277ZM62.2277 44.9057V45.4782H63.309V44.9057V44.3331H62.2277V44.9057ZM63.309 44.9057V45.4782C65.5822 45.4782 67.5197 44.8211 68.8763 43.2685C70.2202 41.7306 70.91 39.4083 70.91 36.2554H70.3374H69.7648C69.7648 39.2658 69.103 41.2687 68.014 42.515C66.9377 43.7468 65.361 44.3331 63.309 44.3331V44.9057ZM70.3374 36.2554H70.91V23.2799H70.3374H69.7648V36.2554H70.3374ZM70.3374 23.2799H70.91C70.91 20.127 70.2202 17.8047 68.8763 16.2668C67.5197 14.7142 65.5822 14.057 63.309 14.057V14.6296V15.2022C65.361 15.2022 66.9377 15.7885 68.014 17.0202C69.103 18.2666 69.7648 20.2695 69.7648 23.2799H70.3374ZM63.309 14.6296V14.057H62.2277V14.6296V15.2022H63.309V14.6296ZM94.4835 1.65413V1.08156H93.9627L93.9135 1.60001L94.4835 1.65413ZM118.272 1.65413L118.842 1.60001L118.793 1.08156H118.272V1.65413ZM126.382 87.0759H126.954V87.0488L126.952 87.0218L126.382 87.0759ZM126.382 88.1572V88.7298H126.954V88.1572H126.382ZM111.243 88.1572L110.673 88.2083L110.72 88.7298H111.243V88.1572ZM109.405 67.6127L109.976 67.5617L109.929 67.0402H109.405V67.6127ZM103.35 67.6127V67.0402H102.826L102.78 67.5617L103.35 67.6127ZM101.512 88.1572V88.7298H102.036L102.082 88.2083L101.512 88.1572ZM86.3738 88.1572H85.8013V88.7298H86.3738V88.1572ZM86.3738 87.0759L85.8038 87.0218L85.8013 87.0488V87.0759H86.3738ZM103.458 53.556L102.887 53.5103L102.838 54.1286H103.458V53.556ZM109.297 53.556V54.1286H109.917L109.868 53.5103L109.297 53.556ZM106.918 23.8205L107.489 23.7749L107.447 23.248H106.918V23.8205ZM105.837 23.8205V23.248H105.308L105.266 23.7749L105.837 23.8205ZM94.4835 1.65413V2.2267H118.272V1.65413V1.08156H94.4835V1.65413ZM118.272 1.65413L117.702 1.70824L125.812 87.1301L126.382 87.0759L126.952 87.0218L118.842 1.60001L118.272 1.65413ZM126.382 87.0759H125.809V88.1572H126.382H126.954V87.0759H126.382ZM126.382 88.1572V87.5847H111.243V88.1572V88.7298H126.382V88.1572ZM111.243 88.1572L111.814 88.1062L109.976 67.5617L109.405 67.6127L108.835 67.6638L110.673 88.2083L111.243 88.1572ZM109.405 67.6127V67.0402H103.35V67.6127V68.1853H109.405V67.6127ZM103.35 67.6127L102.78 67.5617L100.942 88.1062L101.512 88.1572L102.082 88.2083L103.92 67.6638L103.35 67.6127ZM101.512 88.1572V87.5847H86.3738V88.1572V88.7298H101.512V88.1572ZM86.3738 88.1572H86.9464V87.0759H86.3738H85.8013V88.1572H86.3738ZM86.3738 87.0759L86.9439 87.1301L95.0535 1.70824L94.4835 1.65413L93.9135 1.60001L85.8038 87.0218L86.3738 87.0759ZM103.458 53.556V54.1286H109.297V53.556V52.9834H103.458V53.556ZM109.297 53.556L109.868 53.5103L107.489 23.7749L106.918 23.8205L106.348 23.8662L108.726 53.6016L109.297 53.556ZM106.918 23.8205V23.248H105.837V23.8205V24.3931H106.918V23.8205ZM105.837 23.8205L105.266 23.7749L102.887 53.5103L103.458 53.556L104.029 53.6016L106.408 23.8662L105.837 23.8205ZM148.209 1.65413V1.08156H147.673L147.637 1.61604L148.209 1.65413ZM159.022 1.65413L159.593 1.61604L159.557 1.08156H159.022V1.65413ZM162.266 50.3121L161.694 50.3502L161.73 50.8847H162.266V50.3121ZM163.347 50.3121V50.8847H163.895L163.919 50.3375L163.347 50.3121ZM165.509 1.65413V1.08156H164.962L164.937 1.62871L165.509 1.65413ZM179.026 1.65413H179.598V1.08156H179.026V1.65413ZM179.026 2.73542L179.597 2.76798L179.598 2.75171V2.73542H179.026ZM174.16 88.1572V88.7298H174.701L174.731 88.1898L174.16 88.1572ZM157.4 88.1572L156.829 88.2061L156.874 88.7298H157.4V88.1572ZM154.156 50.3121L154.726 50.2632L154.681 49.7396H154.156V50.3121ZM153.075 50.3121V49.7396H152.549L152.504 50.2632L153.075 50.3121ZM149.831 88.1572V88.7298H150.356L150.401 88.2061L149.831 88.1572ZM133.071 88.1572L132.499 88.1898L132.53 88.7298H133.071V88.1572ZM128.205 2.73542H127.632V2.75171L127.633 2.76798L128.205 2.73542ZM128.205 1.65413V1.08156H127.632V1.65413H128.205ZM141.721 1.65413L142.293 1.62871L142.269 1.08156H141.721V1.65413ZM143.884 50.3121L143.312 50.3375L143.336 50.8847H143.884V50.3121ZM144.965 50.3121V50.8847H145.501L145.536 50.3502L144.965 50.3121ZM148.209 1.65413V2.2267H159.022V1.65413V1.08156H148.209V1.65413ZM159.022 1.65413L158.45 1.69221L161.694 50.3502L162.266 50.3121L162.837 50.274L159.593 1.61604L159.022 1.65413ZM162.266 50.3121V50.8847H163.347V50.3121V49.7396H162.266V50.3121ZM163.347 50.3121L163.919 50.3375L166.081 1.67955L165.509 1.65413L164.937 1.62871L162.775 50.2867L163.347 50.3121ZM165.509 1.65413V2.2267H179.026V1.65413V1.08156H165.509V1.65413ZM179.026 1.65413H178.453V2.73542H179.026H179.598V1.65413H179.026ZM179.026 2.73542L178.454 2.70285L173.588 88.1247L174.16 88.1572L174.731 88.1898L179.597 2.76798L179.026 2.73542ZM174.16 88.1572V87.5847H157.4V88.1572V88.7298H174.16V88.1572ZM157.4 88.1572L157.97 88.1083L154.726 50.2632L154.156 50.3121L153.585 50.361L156.829 88.2061L157.4 88.1572ZM154.156 50.3121V49.7396H153.075V50.3121V50.8847H154.156V50.3121ZM153.075 50.3121L152.504 50.2632L149.26 88.1083L149.831 88.1572L150.401 88.2061L153.645 50.361L153.075 50.3121ZM149.831 88.1572V87.5847H133.071V88.1572V88.7298H149.831V88.1572ZM133.071 88.1572L133.642 88.1247L128.777 2.70285L128.205 2.73542L127.633 2.76798L132.499 88.1898L133.071 88.1572ZM128.205 2.73542H128.778V1.65413H128.205H127.632V2.73542H128.205ZM128.205 1.65413V2.2267H141.721V1.65413V1.08156H128.205V1.65413ZM141.721 1.65413L141.149 1.67955L143.312 50.3375L143.884 50.3121L144.456 50.2867L142.293 1.62871L141.721 1.65413ZM143.884 50.3121V50.8847H144.965V50.3121V49.7396H143.884V50.3121ZM144.965 50.3121L145.536 50.3502L148.78 1.69221L148.209 1.65413L147.637 1.61604L144.394 50.274L144.965 50.3121ZM184.631 1.65413V1.08156H184.059V1.65413H184.631ZM198.688 1.65413L199.248 1.53511L199.152 1.08156H198.688V1.65413ZM207.879 44.9057L207.319 45.0247L207.415 45.4782H207.879V44.9057ZM208.96 44.9057V45.4782H209.555L209.532 44.8842L208.96 44.9057ZM207.338 1.65413V1.08156H206.744L206.766 1.67558L207.338 1.65413ZM222.476 1.65413H223.049V1.08156H222.476V1.65413ZM222.476 88.1572V88.7298H223.049V88.1572H222.476ZM208.42 88.1572L207.86 88.2762L207.956 88.7298H208.42V88.1572ZM199.229 44.9057L199.789 44.7867L199.692 44.3331H199.229V44.9057ZM198.147 44.9057V44.3331H197.553L197.575 44.9271L198.147 44.9057ZM199.769 88.1572V88.7298H200.364L200.342 88.1358L199.769 88.1572ZM184.631 88.1572H184.059V88.7298H184.631V88.1572ZM184.631 1.65413V2.2267H198.688V1.65413V1.08156H184.631V1.65413ZM198.688 1.65413L198.128 1.77314L207.319 45.0247L207.879 44.9057L208.439 44.7867L199.248 1.53511L198.688 1.65413ZM207.879 44.9057V45.4782H208.96V44.9057V44.3331H207.879V44.9057ZM208.96 44.9057L209.532 44.8842L207.911 1.63267L207.338 1.65413L206.766 1.67558L208.388 44.9271L208.96 44.9057ZM207.338 1.65413V2.2267H222.476V1.65413V1.08156H207.338V1.65413ZM222.476 1.65413H221.904V88.1572H222.476H223.049V1.65413H222.476ZM222.476 88.1572V87.5847H208.42V88.1572V88.7298H222.476V88.1572ZM208.42 88.1572L208.98 88.0382L199.789 44.7867L199.229 44.9057L198.669 45.0247L207.86 88.2762L208.42 88.1572ZM199.229 44.9057V44.3331H198.147V44.9057V45.4782H199.229V44.9057ZM198.147 44.9057L197.575 44.9271L199.197 88.1787L199.769 88.1572L200.342 88.1358L198.72 44.8842L198.147 44.9057ZM199.769 88.1572V87.5847H184.631V88.1572V88.7298H199.769V88.1572ZM184.631 88.1572H185.204V1.65413H184.631H184.059V88.1572H184.631ZM229.174 1.65413V1.08156H228.602V1.65413H229.174ZM245.393 57.8811V57.3086H244.821V57.8811H245.393ZM245.393 88.1572V88.7298H245.966V88.1572H245.393ZM229.174 88.1572H228.602V88.7298H229.174V88.1572ZM245.393 14.6296V14.057H244.821V14.6296H245.393ZM245.393 44.9057H244.821V45.4782H245.393V44.9057ZM229.174 1.65413V2.2267H245.177V1.65413V1.08156H229.174V1.65413ZM245.177 1.65413V2.2267C251.649 2.2267 257.631 4.34701 261.993 8.68311C266.352 13.0158 269.15 19.6166 269.15 28.6863H269.722H270.295C270.295 19.3742 267.416 12.4589 262.8 7.87093C258.188 3.2864 251.897 1.08156 245.177 1.08156V1.65413ZM269.722 28.6863H269.15V30.8489H269.722H270.295V28.6863H269.722ZM269.722 30.8489H269.15C269.15 39.9187 266.352 46.5203 262.019 50.8534C257.682 55.1897 251.754 57.3086 245.393 57.3086V57.8811V58.4537C252.008 58.4537 258.244 56.2474 262.829 51.6631C267.416 47.0755 270.295 40.1611 270.295 30.8489H269.722ZM245.393 57.8811H244.821V88.1572H245.393H245.966V57.8811H245.393ZM245.393 88.1572V87.5847H229.174V88.1572V88.7298H245.393V88.1572ZM229.174 88.1572H229.747V1.65413H229.174H228.602V88.1572H229.174ZM245.393 14.6296H244.821V44.9057H245.393H245.966V14.6296H245.393ZM245.393 44.9057V45.4782H246.475V44.9057V44.3331H245.393V44.9057ZM246.475 44.9057V45.4782C248.748 45.4782 250.685 44.8211 252.042 43.2685C253.386 41.7306 254.076 39.4083 254.076 36.2554H253.503H252.93C252.93 39.2658 252.269 41.2687 251.18 42.515C250.103 43.7468 248.527 44.3331 246.475 44.3331V44.9057ZM253.503 36.2554H254.076V23.2799H253.503H252.93V36.2554H253.503ZM253.503 23.2799H254.076C254.076 20.127 253.386 17.8047 252.042 16.2668C250.685 14.7142 248.748 14.057 246.475 14.057V14.6296V15.2022C248.527 15.2022 250.103 15.7885 251.18 17.0202C252.269 18.2666 252.93 20.2695 252.93 23.2799H253.503ZM246.475 14.6296V14.057H245.393V14.6296V15.2022H246.475V14.6296ZM274.462 48.1495H275.034V41.6618H274.462H273.889V48.1495H274.462ZM274.462 41.6618H275.034C275.034 26.8249 277.062 16.6759 280.77 10.2528C282.618 7.05162 284.879 4.78312 287.514 3.31131C290.15 1.83869 293.192 1.14541 296.628 1.14541V0.57284V0.000270844C293.036 0.000270844 289.793 0.726179 286.955 2.31159C284.116 3.89779 281.714 6.32614 279.778 9.68026C275.917 16.3678 273.889 26.7632 273.889 41.6618H274.462ZM296.628 0.57284V1.14541C300.064 1.14541 303.107 1.83869 305.743 3.31131C308.377 4.78312 310.639 7.05162 312.487 10.2528C316.195 16.6759 318.222 26.8249 318.222 41.6618H318.795H319.367C319.367 26.7632 317.34 16.3678 313.479 9.68026C311.542 6.32614 309.141 3.89779 306.301 2.31159C303.463 0.726179 300.221 0.000270844 296.628 0.000270844V0.57284ZM318.795 41.6618H318.222V48.1495H318.795H319.367V41.6618H318.795ZM318.795 48.1495H318.222C318.222 62.9864 316.195 73.1354 312.487 79.5585C310.639 82.7597 308.377 85.0282 305.743 86.5001C303.107 87.9727 300.064 88.6659 296.628 88.6659V89.2385V89.8111C300.221 89.8111 303.463 89.0852 306.301 87.4998C309.141 85.9136 311.542 83.4852 313.479 80.1311C317.34 73.4436 319.367 63.0481 319.367 48.1495H318.795ZM296.628 89.2385V88.6659C293.192 88.6659 290.15 87.9727 287.514 86.5001C284.879 85.0282 282.618 82.7597 280.77 79.5585C277.062 73.1354 275.034 62.9864 275.034 48.1495H274.462H273.889C273.889 63.0481 275.917 73.4436 279.778 80.1311C281.714 83.4852 284.116 85.9136 286.955 87.4998C289.793 89.0852 293.036 89.8111 296.628 89.8111V89.2385ZM292.303 19.0629H291.731V70.2078H292.303H292.876V19.0629H292.303ZM292.303 70.2078H291.731C291.731 72.0774 292.183 73.5987 293.048 74.664C293.924 75.7435 295.176 76.295 296.628 76.295V75.7224V75.1498C295.486 75.1498 294.575 74.7282 293.937 73.9424C293.288 73.1425 292.876 71.9065 292.876 70.2078H292.303ZM296.628 75.7224V76.295C298.081 76.295 299.333 75.7435 300.209 74.664C301.073 73.5987 301.526 72.0774 301.526 70.2078H300.953H300.381C300.381 71.9065 299.969 73.1425 299.319 73.9424C298.682 74.7282 297.771 75.1498 296.628 75.1498V75.7224ZM300.953 70.2078H301.526V19.0629H300.953H300.381V70.2078H300.953ZM300.953 19.0629H301.526C301.526 17.1933 301.073 15.6721 300.209 14.6067C299.333 13.5272 298.081 12.9757 296.628 12.9757V13.5483V14.1209C297.771 14.1209 298.682 14.5426 299.319 15.3283C299.969 16.1282 300.381 17.3642 300.381 19.0629H300.953ZM296.628 13.5483V12.9757C295.176 12.9757 293.924 13.5272 293.048 14.6067C292.183 15.6721 291.731 17.1933 291.731 19.0629H292.303H292.876C292.876 17.3642 293.288 16.1282 293.937 15.3283C294.575 14.5426 295.486 14.1209 296.628 14.1209V13.5483ZM324.88 1.65413V1.08156H324.308V1.65413H324.88ZM341.1 1.65413H341.672V1.08156H341.1V1.65413ZM341.1 88.1572V88.7298H341.672V88.1572H341.1ZM324.88 88.1572H324.308V88.7298H324.88V88.1572ZM324.88 1.65413V2.2267H341.1V1.65413V1.08156H324.88V1.65413ZM341.1 1.65413H340.527V88.1572H341.1H341.672V1.65413H341.1ZM341.1 88.1572V87.5847H324.88V88.1572V88.7298H341.1V88.1572ZM324.88 88.1572H325.453V1.65413H324.88H324.308V88.1572H324.88ZM347.818 1.65413V1.08156H347.246V1.65413H347.818ZM361.875 1.65413L362.435 1.53511L362.339 1.08156H361.875V1.65413ZM371.066 44.9057L370.506 45.0247L370.603 45.4782H371.066V44.9057ZM372.147 44.9057V45.4782H372.742L372.72 44.8842L372.147 44.9057ZM370.526 1.65413V1.08156H369.931L369.953 1.67558L370.526 1.65413ZM385.664 1.65413H386.236V1.08156H385.664V1.65413ZM385.664 88.1572V88.7298H386.236V88.1572H385.664ZM371.607 88.1572L371.047 88.2762L371.143 88.7298H371.607V88.1572ZM362.416 44.9057L362.976 44.7867L362.88 44.3331H362.416V44.9057ZM361.335 44.9057V44.3331H360.74L360.762 44.9271L361.335 44.9057ZM362.957 88.1572V88.7298H363.551L363.529 88.1358L362.957 88.1572ZM347.818 88.1572H347.246V88.7298H347.818V88.1572ZM347.818 1.65413V2.2267H361.875V1.65413V1.08156H347.818V1.65413ZM361.875 1.65413L361.315 1.77314L370.506 45.0247L371.066 44.9057L371.626 44.7867L362.435 1.53511L361.875 1.65413ZM371.066 44.9057V45.4782H372.147V44.9057V44.3331H371.066V44.9057ZM372.147 44.9057L372.72 44.8842L371.098 1.63267L370.526 1.65413L369.953 1.67558L371.575 44.9271L372.147 44.9057ZM370.526 1.65413V2.2267H385.664V1.65413V1.08156H370.526V1.65413ZM385.664 1.65413H385.091V88.1572H385.664H386.236V1.65413H385.664ZM385.664 88.1572V87.5847H371.607V88.1572V88.7298H385.664V88.1572ZM371.607 88.1572L372.167 88.0382L362.976 44.7867L362.416 44.9057L361.856 45.0247L371.047 88.2762L371.607 88.1572ZM362.416 44.9057V44.3331H361.335V44.9057V45.4782H362.416V44.9057ZM361.335 44.9057L360.762 44.9271L362.384 88.1787L362.957 88.1572L363.529 88.1358L361.907 44.8842L361.335 44.9057ZM362.957 88.1572V87.5847H347.818V88.1572V88.7298H362.957V88.1572ZM347.818 88.1572H348.391V1.65413H347.818H347.246V88.1572H347.818ZM391.064 1.65413V1.08156H390.491V1.65413H391.064ZM428.909 1.65413H429.481V1.08156H428.909V1.65413ZM428.909 15.7109V16.2835H429.481V15.7109H428.909ZM418.096 15.7109V15.1383H417.523V15.7109H418.096ZM418.096 88.1572V88.7298H418.668V88.1572H418.096ZM401.877 88.1572H401.304V88.7298H401.877V88.1572ZM401.877 15.7109H402.449V15.1383H401.877V15.7109ZM391.064 15.7109H390.491V16.2835H391.064V15.7109ZM391.064 1.65413V2.2267H428.909V1.65413V1.08156H391.064V1.65413ZM428.909 1.65413H428.336V15.7109H428.909H429.481V1.65413H428.909ZM428.909 15.7109V15.1383H418.096V15.7109V16.2835H428.909V15.7109ZM418.096 15.7109H417.523V88.1572H418.096H418.668V15.7109H418.096ZM418.096 88.1572V87.5847H401.877V88.1572V88.7298H418.096V88.1572ZM401.877 88.1572H402.449V15.7109H401.877H401.304V88.1572H401.877ZM401.877 15.7109V15.1383H391.064V15.7109V16.2835H401.877V15.7109ZM391.064 15.7109H391.636V1.65413H391.064H390.491V15.7109H391.064Z" fill="url(#paint0_linear_1291_422)" mask="url(#path-1-outside-1_1291_422)"/>
<defs>
<linearGradient id="paint0_linear_1291_422" x1="0" y1="44.6572" x2="430" y2="44.6572" gradientUnits="userSpaceOnUse">
<stop stop-color="white" stop-opacity="0"/>
<stop offset="0.524038" stop-color="white" stop-opacity="0.35"/>
<stop offset="1" stop-color="white" stop-opacity="0"/>
</linearGradient>
</defs>
</svg>
