<svg width="713" height="302" viewBox="0 0 713 302" fill="none" xmlns="http://www.w3.org/2000/svg">
<g filter="url(#filter0_d_167_87)">
<mask id="path-1-inside-1_167_87" fill="white">
<path d="M486.725 45.9194C490.284 52.1561 496.914 56.0059 504.095 56.0059H689C700.046 56.0059 709 64.9602 709 76.0059V274C709 285.046 700.046 294 689 294H24C12.9543 294 4 285.046 4 274V20C4 8.9543 12.9543 0 24 0H448.904C456.085 0 462.715 3.84976 466.274 10.0865L486.725 45.9194Z"/>
</mask>
<path d="M466.274 10.0865L465.406 10.5821L466.274 10.0865ZM486.725 45.9194L487.593 45.4237L486.725 45.9194ZM504.095 56.0059V57.0059H689V56.0059V55.0059H504.095V56.0059ZM709 76.0059H708V274H709H710V76.0059H709ZM689 294V293H24V294V295H689V294ZM4 274H5V20H4H3V274H4ZM24 0V1H448.904V0V-1H24V0ZM466.274 10.0865L465.406 10.5821L485.856 46.4151L486.725 45.9194L487.593 45.4237L467.143 9.59078L466.274 10.0865ZM448.904 0V1C455.726 1 462.024 4.65727 465.406 10.5821L466.274 10.0865L467.143 9.59078C463.405 3.04225 456.444 -1 448.904 -1V0ZM4 20H5C5 9.50659 13.5066 1 24 1V0V-1C12.402 -1 3 8.40202 3 20H4ZM24 294V293C13.5066 293 5 284.493 5 274H4H3C3 285.598 12.402 295 24 295V294ZM709 274H708C708 284.493 699.493 293 689 293V294V295C700.598 295 710 285.598 710 274H709ZM689 56.0059V57.0059C699.493 57.0059 708 65.5125 708 76.0059H709H710C710 64.4079 700.598 55.0059 689 55.0059V56.0059ZM504.095 56.0059V55.0059C497.273 55.0059 490.975 51.3486 487.593 45.4237L486.725 45.9194L485.856 46.4151C489.594 52.9636 496.555 57.0059 504.095 57.0059V56.0059Z" fill="#BBFC00" mask="url(#path-1-inside-1_167_87)"/>
</g>
<defs>
<filter id="filter0_d_167_87" x="0" y="0" width="713" height="302" filterUnits="userSpaceOnUse" color-interpolation-filters="sRGB">
<feFlood flood-opacity="0" result="BackgroundImageFix"/>
<feColorMatrix in="SourceAlpha" type="matrix" values="0 0 0 0 0 0 0 0 0 0 0 0 0 0 0 0 0 0 127 0" result="hardAlpha"/>
<feOffset dy="4"/>
<feGaussianBlur stdDeviation="2"/>
<feComposite in2="hardAlpha" operator="out"/>
<feColorMatrix type="matrix" values="0 0 0 0 0 0 0 0 0 0 0 0 0 0 0 0 0 0 0.25 0"/>
<feBlend mode="normal" in2="BackgroundImageFix" result="effect1_dropShadow_167_87"/>
<feBlend mode="normal" in="SourceGraphic" in2="effect1_dropShadow_167_87" result="shape"/>
</filter>
</defs>
</svg>
