<?xml version="1.0" encoding="UTF-8"?>
<svg id="Layer_2" data-name="Layer 2" xmlns="http://www.w3.org/2000/svg" viewBox="0 0 179.4 56.27">
  <defs>
    <style>
      .cls-1 {
        fill: #f40009;
      }
    </style>
  </defs>
  <g id="Layer_1-2" data-name="Layer 1">
    <g>
      <path class="cls-1" d="M93.44,14.21h-5.39l-3.04,4.93h5.38l3.04-4.93ZM107.41,27.17c-2.82.23-7.81,2.76-10.52,8.27s-2.72,8.92-2.72,8.92c0,0,1.43-1.57,3.63-3.21,2.19-1.64,3.83-2.23,3.83-2.23,0,0,.41-2.02,1.42-4.14.99-2.06,2.55-4.2,4.49-4.69,3.92-.99,2.04,6.17-.84,10.84-1.55,2.51-7.04,9.72-11.77,9.72s-5.64-4.56-4.64-8.82c1-4.26,2.38-9.68,9.28-19.52,6.9-9.84,14.37-15.68,18.69-18.13,4.44-2.52,6.25-1.41,6.25-1.41,0,0-5.67,3.49-8.89,7.69-3.08,4.02-4.92,8.53-3.49,10.75,1.36,2.11,6.16,2.15,11.45-5.49,5.22-7.54,3.9-12.02,3.9-12.02,0,0,.63-.21,1.05-.26,2.55-.34,4.58.33,7.74,1.95,3.31,1.7,6.48,4.42,10.83,6.64,1.31-1.43,2.77-2.96,4.3-4.44-5.86-2.85-10.31-6.92-16.06-7.31-5-.34-8.95,1.48-8.95,1.48,0,0-1.53-2.08-6.24-1.4-4.71.68-19.22,6.75-31.56,26.51-11.16,17.87-5.9,28.11,2.12,28,8.7-.13,16.97-9.8,19.77-17.77s-.51-10.14-3.05-9.93h0ZM124.48,10.56c-1.46,3.56-3.61,6.05-5.73,7.95-2.72,2.44-4.21,2.36-4.85,1.87-1.68-1.28.58-6.12,4.5-10.45,3.91-4.31,7.27-5.65,7.27-5.65,0,.05.56,2.01-1.19,6.28ZM172.91,5.36c-3.98,2.56-9.5,4.88-14.79,4.37-1.34,1.39-2.78,2.99-4.22,4.74,9.19,1.81,17.23-3.88,21.51-8.73,2.67-3.02,3.99-5.73,3.99-5.73,0,0-2.55,2.81-6.49,5.34h0Z"/>
      <path class="cls-1" d="M168.56,27.83h-5.66l-.92,1.42s-1.16-2.08-3.11-2.05c-3.35.06-6.71,2.62-10.6,7.06-2.86,3.25-7.59,10.49-7.59,10.49,0,0-3.63,5.6-5.47,5.16-3.13-.75,2.63-12.34,2.63-12.34,0,0,3.03-1.87,6.96-5.18,2.47-2.08,5.32-4.94,7.93-7.59,2.38-2.41,5.18-5.69,7.84-9.28-.68.11-1.38.18-2.09.22-2.39,3.15-4.94,5.97-7.11,8.21-3.23,3.34-6.2,6.06-8.36,7.81-2.07,1.67-3.39,2.42-3.39,2.42,0,0,3.94-8.1,10.52-17.05,6.57-8.95,15.78-17.26,15.06-13.32-.21,1.13-.91,2.76-1.97,4.69.75-.16,1.47-.35,2.18-.57,1.58-3.27,2.12-5.96.94-6.74-4.82-3.18-17.09,9.97-23.25,17.6-6.15,7.64-11.72,19.3-11.72,19.3,0,0-.96.4-2.03.61-.67.13-.96.1-1.07.06-.05-.02-.06-.06-.06-.06,0,0,5.41-10.12-.13-11.46-5.35-1.29-14.61,8.6-17.9,15.48-2.26,4.72-3.53,10.66.34,12.08,4.2,1.53,11.33-6.13,13-8.36,1.68-2.23,3.77-5.93,3.77-5.93,0,0,1.02-.05,1.58-.14,1.07-.16,1.57-.29,1.57-.29,0,0-.69,1.82-1.44,4.12-1.4,4.3-2.66,10.44,2.38,10.73,3.21.18,7.92-5.61,7.92-5.61,0,0-1.27,5.15,2.9,5.61,3.08.34,7.55-4.41,7.55-4.41,0,0-.97,4.09,2.14,4.45,2.67.31,6.46-2.82,9.56-6.26,3.39-3.76,5.99-7.88,5.99-7.88h-1.97s-4.37,6.63-7.43,8.4c-2.52,1.46-1.65-.88-.89-2.1.84-1.35,11.4-19.29,11.4-19.29h0ZM125.41,40.31c-.08.18-1.49,2.64-3.01,4.58-1.63,2.09-4.62,5.23-6.42,4.57-2.81-1.04.28-7.16,2.3-10.13s2.25-3.17,2.31-3.25.11-.15.16-.06.69,1.31,1.96,2.37c1.28,1.06,2.5,1.62,2.6,1.66s.17.08.09.25h0ZM126.68,38.1c-.18.3-.3.31-.67.21-.65-.18-3.34-1.42-3.32-4.17.02-2.69,3.81-5.32,5.29-4.19,1.39,1.05.72,3.73.2,5.1-.52,1.37-1.39,2.86-1.5,3.06h0ZM152.4,44.74c-.75,1.03-1.37,1.95-1.94,2.6-1.21,1.39-1.99,2.04-2.69,2.21-.35.09-.79.06-1.08-.11-1.03-.63-.31-3.06,1.48-6.34,1.64-3,3.53-5.99,6.65-9.44,3.13-3.46,4.32-3.63,5.2-3.59.74.03.84.81.84.81,0,0-.05.18-.17.38-1.03,1.79-6.23,10.67-8.29,13.49h0ZM68.87,49.08c-3.43-2.12-7.84-3.48-12.9-3.53-13.04-.11-27.23,6.22-36.85,6.31-11.34.1-11.91-8.63-11.06-13.42,1.81-10.32,9.13-20.17,13.84-25.36,4.71-5.19,9.64-9.22,13.74-10.25s3.72,2.09,3.21,2.52c-.52.01-1.51.12-2.08.51-.88.61-2.06,1.72-2.14,3.49-.13,2.72,3.39,3.2,5.94-2.5,1.74-3.89-1.02-6.53-3.3-6.79-3.14-.35-7.93.74-13.65,4.42C13.66,10.88.34,25.09,0,40.86c-.19,8.99,5.68,14.06,13.74,14.06s19.01-4.94,29.69-5.06c6.62-.06,10.9,2.26,13.07,6.04,0,0,2.16-3.59,6.96-3.78,4.75-.19,9.98,1.14,14.27,4.16-1.43-2.07-5.48-5.1-8.86-7.19h0Z"/>
      <path class="cls-1" d="M39.18,13.66c-5.47-1.39-14.54,7.91-18.37,15.48-2.36,4.67-3.39,10.54.81,12.07s11.33-6.13,13-8.36c1.68-2.23,4.42-6.69,4.42-6.69,0,0,.84-.16,1.39-.29s1.44-.38,1.44-.38c0,0-1.03,1.84-1.97,3.73-1.11,2.24-4.11,9.69,1.69,11.92,5.54,2.13,13.43-6.77,13.84-6.94,0,0-2.35,6.07,1.3,7,4,1.02,8.39-4.1,8.39-4.1,0,0-.92,3.85,2.19,4.21,5.58.65,15.46-13.64,15.46-13.64h-1.97s-5.03,6.47-7.44,7.8c-2.42,1.34-1.55-1.04-.89-2.1.84-1.35,11.52-19.19,11.52-19.19h-5.66l-.66,1.04s-1.17-1.78-3.12-1.65c-5.68.37-12.43,9.42-15.4,13.4-2.97,3.99-9.37,11.6-12.75,10.24-3.68-1.48-.02-8.27,2.4-12.26,2.63-4.34,7.3-8.64,9.14-8.67,2.27-.04,1.38,2.01,1.38,2.01,0,0-1.7-.21-2.93,1.34-.87,1.09-1.59,2.69-.76,3.56,1.34,1.4,3.08-.02,4.12-1.61,3.24-4.96.87-7.57-1.68-7.95-5.42-.81-10.41,6.15-14.21,8.74-2.63,1.79-3.73,1.65-3.73,1.65,0,0,4.57-8.96-.95-10.37h0ZM63.72,29.69c1.64-3,3.87-5.89,6.78-9.52,2.91-3.63,4.35-3.92,5.23-3.88.74.03.84.81.84.81,0,0-6.31,11-8.6,14.14-.75,1.03-1.39,1.89-1.95,2.55-1.21,1.39-2.08,2.07-2.76,2.23-.35.09-.79.06-1.08-.11-1.03-.63-.24-2.94,1.55-6.21h0ZM36.92,26.12c-.08.18-1.88,3.16-3.4,5.1-1.63,2.09-4.65,5.25-6.45,4.58-2.81-1.04.19-7.12,2.21-10.09,2.02-2.97,2.32-3.35,2.38-3.43.06-.08.11-.15.16-.06.05.09.69,1.41,2.09,2.3,1.39.89,2.82,1.3,2.92,1.34s.17.08.09.25h0ZM39.27,21.48c-.52,1.37-.99,2.23-1.09,2.43-.15.33-.54.22-.54.22-.44-.02-3.88-.8-3.86-3.56.02-2.69,3.81-5.32,5.29-4.19,1.39,1.05.72,3.73.2,5.1h0ZM164.3,51.64c-.33-.19-.7-.28-1.1-.28s-.77.09-1.1.28c-.33.19-.59.44-.78.76-.19.32-.28.67-.28,1.05s.09.74.28,1.06c.19.32.45.57.78.76.33.19.7.28,1.1.28s.77-.09,1.1-.28.59-.44.78-.76c.19-.32.28-.67.28-1.06s-.09-.73-.28-1.05c-.19-.32-.45-.58-.78-.76ZM164.69,54.33c-.14.26-.35.46-.6.6-.26.15-.56.22-.89.22s-.63-.07-.89-.22-.46-.35-.6-.6c-.14-.26-.22-.55-.22-.87s.07-.6.22-.86.35-.46.61-.6.56-.22.88-.22.62.07.88.22.46.35.61.6c.14.26.22.54.22.86s-.07.61-.22.87h0Z"/>
      <path class="cls-1" d="M164.01,53.42c.06-.1.09-.21.09-.33,0-.17-.05-.31-.16-.43s-.26-.17-.44-.17h-1.1v1.9h.48v-.69h.37l.45.69h.55l-.5-.74c.11-.05.2-.13.26-.23ZM163.55,53.22s-.08.05-.15.05h-.52v-.37h.52c.06,0,.11.02.15.05.04.03.05.08.05.13s-.02.1-.05.13h0Z"/>
    </g>
  </g>
</svg>