<?xml version="1.0" encoding="UTF-8"?>
<svg id="Layer_2" data-name="Layer 2" xmlns="http://www.w3.org/2000/svg" viewBox="0 0 119.22 119.22">
  <defs>
    <style>
      .cls-1, .cls-2, .cls-3, .cls-4, .cls-5, .cls-6, .cls-7 {
        stroke-miterlimit: 26.4;
      }

      .cls-1, .cls-2, .cls-5 {
        stroke: #cc2229;
      }

      .cls-1, .cls-3 {
        stroke-width: .1px;
      }

      .cls-1, .cls-3, .cls-4, .cls-5, .cls-6, .cls-7, .cls-8 {
        fill-rule: evenodd;
      }

      .cls-1, .cls-5, .cls-9, .cls-8 {
        fill: #cc2229;
      }

      .cls-2 {
        fill: none;
        stroke-width: .32px;
      }

      .cls-3, .cls-4 {
        fill: #fff22d;
        stroke: #fff22d;
      }

      .cls-4, .cls-7 {
        stroke-width: 3.85px;
      }

      .cls-5 {
        stroke-width: 7.71px;
      }

      .cls-6 {
        fill: #a7a690;
        stroke: #a7a690;
        stroke-width: 11.56px;
      }

      .cls-7 {
        fill: #fff;
        stroke: #fff;
      }
    </style>
  </defs>
  <g id="Layer_1-2" data-name="Layer 1">
    <g>
      <path class="cls-6" d="M37.09,7.56c12.09-5.01,20.53,5.96,21.4,7.45.37.64,9.92-13.14,22-8.13,12.09,5.01,10.3,18.74,9.86,20.4-.19.71,16.3-2.28,21.31,9.81,5,12.09-5.97,20.53-7.45,21.4-.64.37,13.14,9.92,8.13,22-5.01,12.09-18.74,10.3-20.4,9.86-.71-.19,2.28,16.3-9.81,21.31-12.09,5.01-20.53-5.96-21.4-7.45-.37-.64-9.92,13.14-22,8.13-12.09-5.01-10.3-18.74-9.86-20.4.19-.71-16.3,2.28-21.31-9.81-5-12.09,5.96-20.53,7.45-21.4.64-.37-13.14-9.92-8.13-22,5.01-12.09,18.74-10.3,20.4-9.86.72.19-2.28-16.3,9.81-21.31h0Z"/>
      <path class="cls-5" d="M36.56,8.89c11.73-6.03,21.14,6.73,21.97,8.16.36.61,8.09-13.63,20.65-9.6,12.56,4.03,10.19,19.7,9.77,21.3-.18.69,15.35-3.91,21.39,7.81,6.03,11.73-6.73,21.14-8.16,21.97-.61.36,13.63,8.09,9.6,20.65-4.03,12.56-19.7,10.19-21.3,9.77-.69-.18,3.91,15.36-7.81,21.39-11.73,6.03-21.14-6.73-21.97-8.16-.36-.61-8.09,13.63-20.65,9.6s-10.19-19.7-9.77-21.3c.18-.69-15.36,3.91-21.39-7.81-6.03-11.73,6.73-21.14,8.16-21.97.61-.36-13.63-8.09-9.6-20.65s19.7-10.19,21.3-9.77c.69.18-3.91-15.36,7.81-21.39h0Z"/>
      <path class="cls-7" d="M37.9,9.02c11.59-4.78,21.8,10.19,20.91,9.89-.67-.22,9.65-15.24,21.22-10.42,11.58,4.81,8.21,22.61,7.79,21.77-.31-.63,17.6-3.95,22.38,7.64,4.78,11.59-10.19,21.8-9.89,20.91.22-.67,15.24,9.65,10.42,21.22-4.81,11.58-22.61,8.21-21.77,7.79.63-.31,3.95,17.6-7.64,22.38-11.59,4.78-21.8-10.19-20.9-9.89.67.22-9.65,15.24-21.22,10.42-11.58-4.81-8.21-22.61-7.79-21.77.31.63-17.6,3.95-22.38-7.64-4.78-11.59,10.19-21.8,9.89-20.91-.22.67-15.24-9.65-10.42-21.22,4.81-11.58,22.61-8.21,21.77-7.79-.63.31-3.95-17.6,7.64-22.38h0Z"/>
      <path class="cls-4" d="M38.71,11.87c10.44-4.95,18.96,7.52,19.75,8.87.34.58,9.25-13.55,20.13-9.66,10.88,3.89,8.09,18.72,7.69,20.23-.17.65,16.12-3.03,21.07,7.41,4.95,10.44-7.52,18.96-8.87,19.75-.58.34,13.55,9.26,9.66,20.13-3.89,10.88-18.72,8.09-20.23,7.69-.65-.17,3.03,16.12-7.41,21.07-10.44,4.95-18.96-7.52-19.75-8.87-.34-.58-9.25,13.55-20.13,9.66-10.88-3.89-8.09-18.72-7.69-20.23.17-.65-16.12,3.04-21.07-7.41-4.95-10.44,7.52-18.96,8.87-19.75.58-.34-13.55-9.26-9.66-20.14,3.89-10.88,18.72-8.09,20.23-7.69.65.17-3.04-16.12,7.41-21.07h0Z"/>
      <path class="cls-1" d="M31.46,37.77c1.09-.23,3.34-1.4,3.26-3.15-.06-1.29-1.11-1.37-1.52-1.44-2.24-.41-4.2,2.56-5.36,4.13-1.13,1.54-2.7,5.81-2.75,7.83-.07,3.18,1.69,5.36,3.49,5.5,3.8.3,6.15-1.09,7.84-4.12l6.76-16.09h5.08s-3.44,7.99-3.44,7.99c1.69-1.46,3.89-2.23,5.57-1.34,1.34.71,1.55,2.02.92,3.7l-3.23,8.58c-.51,1.36,1.73,1.81,3.12-.46l4.65-12.04h4.63s-4.29,12.12-4.29,12.12c-.18.52.08,1.3.76,1.31.5,0,1.4-.44,1.61-1.06l4.3-12.36,4.79.03-3.91,11.67c-.36.84-.2,1.52.5,1.54.6.2,1.27-.31,1.86-1.05l4.35-12.38h4.96s-.17.88-.17.88c1.18-1.15,2.64-1.48,3.91-1.26,3.79.64,3.39,4.92,2.54,7.33l-.05.49c2.19-3,4.79-6.05,5.98-6.8,2.69-1.68,5.06-1.51,6.39-.02l.29-.96,4.48-.03-4.44,13.26c-.49,1.45,1.08,1.49,2.15.95-.62,1.44-3.59,2.85-5.84,2.08-.95-.32-.76-.97-1.12-1.36-2.6,1.52-3.02,1.67-4.37,1.57-.96-.09-1.87-.41-2.68-1.25-.96-1.19-1.01-3-.16-5.58.12-.37-.82.51-1.21.92-2.93,5.75-6.11,6.16-9.07,6-.45-.03-1.51-.61-1.86-1.23-1.26,5.3-2.58,6.93-4.01,7.88-2.55,1.59-5.17,1.27-6.31.08,2.81-1.25,3.46-2.69,4.48-5.59l.74-2.11c-.73.74-1.64,1.44-4.56,1.11-.81-.09-1.66-.59-2.29-1.55-1.92,1.59-3.2,1.82-4.37,1.87-1.39.05-3.17-.18-3.01-1.98v.04c-.02.06-1.49,1.27-3.15,1.86-1.2.42-2.84.55-3.63.14-1.36-.41-1.89-1.87-1.5-2.93l3.21-8.7c.41-1.12-1.74-1.44-2.29-.1l-4.91,11.98-5.17-.02.8-1.9c-2.51,2.12-5.21,2.45-8.09,2.35-3.75-.12-6.28-3.86-6.36-7.56-.18-9.41,7.95-17.02,14.55-16.1,2.33.32,3.98,1.69,4.35,3.22,1.49,6.07-6.22,6.88-7.22,4.09h0Z"/>
      <path class="cls-3" d="M91.15,39.29c-1.04.43-1.65,1.77-2.47,3.28-.59,1.09-1.97,3.94-1.83,5.98.07.96.93,1.37,1.85.8.8-.49,1.38-2.56,4.09-9.32.29-.72-.8-1.09-1.63-.74h0ZM74.9,39.74l-3.07,9.18c-.23.69.76,1.27,1.24,1.07.69-.29,1.33-.81,2.46-3.25.6-1.28,1.25-4.1,1.24-5.75-.01-1.83-1.52-1.38-1.87-1.26Z"/>
      <path class="cls-8" d="M28.89,64.07c1.19-.25,3.64-1.56,3.55-3.51-.07-1.44-1.21-1.52-1.66-1.61-2.44-.46-4.59,2.85-5.85,4.61-1.23,1.72-2.95,6.48-3,8.74-.08,3.55,1.85,5.98,3.81,6.13,4.14.33,6.71-1.22,8.56-4.6l7.38-17.95h5.54s-3.75,8.92-3.75,8.92c1.84-1.63,4.24-2.49,6.07-1.5,1.47.8,1.69,2.26,1,4.13l-3.53,9.58c-.56,1.52,1.88,2.02,3.4-.52l5.07-13.43h5.05s-4.68,13.53-4.68,13.53c-.2.58.08,1.45.83,1.46.54.01,1.53-.49,1.76-1.18l4.69-13.8,5.23.03-4.26,13.02c-.4.94-.21,1.7.54,1.72.66.22,1.39-.35,2.04-1.17l4.74-13.82h5.41s-.18.98-.18.98c1.28-1.29,2.88-1.65,4.27-1.41,4.14.72,3.86,3.49,2.94,6.18,2.78-1.43,5.91-4.81,9.14-6.87l4.15.21c-.75.29-3.24,1.54-3,3.86.29,2.96.44,6.32.45,10.14-8.57,11.34-16.44.21-8.92-1.4-.31,1.81-1.5,4.61,2.4,3.42.4-.45,1.66-5.34,2.82-12.04-.51-.43-11.9,15.21-17.7,15.03-.49-.03-2.31-.51-2.7-1.21l-2.01,5.17c-1.51,3.9,17.1,1.59,18.74.63-1.78,5.43-11.95,8.4-22.5,6.4-19.79,18.77-32.87-11.81-1.42-7.57l2.3-4.51c-.8.82-1.79,1.61-4.98,1.24-.88-.1-1.81-.66-2.5-1.73-2.09,1.77-3.49,2.03-4.77,2.08-1.52.06-3.46-.2-3.28-2.21v.05c-.02.06-1.62,1.42-3.44,2.07-1.31.47-3.09.61-3.96.16-1.48-.46-2.06-2.09-1.63-3.27l3.5-9.7c.45-1.25-1.9-1.61-2.5-.12l-5.36,13.37-5.64-.02.87-2.12c-2.74,2.36-5.68,2.73-8.83,2.62-4.1-.14-6.86-4.3-6.93-8.43-.2-10.5,8.67-18.99,15.87-17.97,2.54.36,4.34,1.88,4.75,3.59,1.63,6.77-6.78,7.68-7.88,4.56h0ZM76.28,66.26l-3.35,10.24c-.25.77.83,1.42,1.35,1.19.76-.32,1.45-.91,2.69-3.62.65-1.43,1.36-4.58,1.35-6.41-.01-2.05-1.66-1.54-2.04-1.4h0ZM59.18,91.41c-2.41,3.85-10.13,6.19-11.51,1.32-.96-3.38,12.69-3.22,11.51-1.32h0Z"/>
      <path class="cls-2" d="M66.45,93.95c1.55,0,2.81,1.26,2.81,2.81,0,1.55-1.26,2.81-2.81,2.81s-2.81-1.26-2.81-2.81,1.26-2.81,2.81-2.81"/>
      <path class="cls-9" d="M65.84,95.36h.93c.23,0,.41.04.53.13.13.1.19.25.19.45,0,.17-.04.29-.12.38-.08.09-.15.14-.23.17-.06.03-.12.04-.18.04h-1.13v-1.17h0ZM65.4,98.35h.44v-1.44h.95c.29,0,.47.07.52.2.04.08.07.15.08.21s.02.13.02.23v.27l.02.3.06.17.02.02.02.02h.48l-.02-.03-.02-.03s-.04-.08-.05-.11c0-.02-.01-.04-.01-.07l-.02-.13v-.36l-.02-.28-.05-.25c-.04-.16-.18-.29-.41-.38.16-.03.29-.11.37-.24s.15-.26.18-.39v-.1s.01-.1.01-.1c0-.3-.08-.52-.24-.65-.15-.13-.33-.21-.52-.24-.06-.01-.11-.02-.17-.02h-1.63v3.38h0,0Z"/>
    </g>
  </g>
</svg>