<?xml version="1.0" encoding="UTF-8"?>
<svg id="Layer_2" data-name="Layer 2" xmlns="http://www.w3.org/2000/svg" viewBox="0 0 197.42 28.9">
  <defs>
    <style>
      .cls-1 {
        fill: #fff;
        fill-rule: evenodd;
      }
    </style>
  </defs>
  <g id="Layer_1-2" data-name="Layer 1">
    <g>
      <path class="cls-1" d="M108.25,13.42s-1.92-1.19-3.11-1.65c0,0-3.68-1.7-4.41-2.51,0,0-1.43-1.35-.59-2.92,0,0,.35-1.03,1.86-1.03,0,0,1.97.11,1.97,1.73v2.29h7.06v-3.37s.53-5.51-8.33-5.75c0,0-6.97-.46-8.97,3.3,0,0-.78.84-.78,3.75v2.11s-.08,2.43,1.16,4c0,0,.7,1.03,2.43,2.16,0,0,3.51,1.89,5.62,2.97,0,0,2.13,1.21,1.85,3.15,0,0-.17,1.98-2.23,1.9,0,0-1.88-.09-1.88-2.03v-2.28h-7.53v3.32s-.21,6.35,9.46,6.35c0,0,9.24.19,9.67-6.51v-2.7s.33-4.11-3.27-6.27h0Z"/>
      <polygon class="cls-1" points="72.09 1 69.72 15.82 69.17 15.82 66.91 1.13 55.11 1.13 54.52 27.97 61.51 27.97 61.59 7.75 62.14 7.75 65.84 27.97 73.19 27.97 76.85 7.76 77.34 7.76 77.51 27.97 84.53 27.97 83.77 1 72.09 1 72.09 1"/>
      <polygon class="cls-1" points="30.5 1.11 25.85 27.94 33.37 27.94 36.12 7.14 36.74 7.14 39.5 27.94 47.02 27.94 42.37 1.11 30.5 1.11 30.5 1.11"/>
      <path class="cls-1" d="M188.32,13.05v3.96h1.93v4.25c0,2.08-1.77,2.11-1.77,2.11-2.16,0-2.08-1.97-2.08-1.97V6.7c0-1.51,1.92-1.6,1.92-1.6,1.84,0,1.85,1.81,1.85,1.81v2.24h7.08c.23-4.36-.64-5.42-.64-5.42C194.85-.21,188.21,0,188.21,0c-10.21,0-9.08,7.84-9.08,7.84v14.21c.22,7.35,10.28,6.6,10.45,6.59,4.48-.5,5.83-1.92,5.83-1.92,1.24-.92,1.57-2.2,1.57-2.2.35-.75.44-3.12.44-3.12v-8.35h-9.1Z"/>
      <polygon class="cls-1" points="164.85 17.42 164.54 17.42 157.35 1 148.76 1 148.76 27.98 155.75 27.98 155.33 11.57 155.65 11.57 163.09 27.98 171.43 27.98 171.43 1 164.34 1 164.85 17.42 164.85 17.42"/>
      <path class="cls-1" d="M131.67,21.26s.1,2.21-1.95,2.21c0,0-2.16.12-2.16-2.16l-.02-20.29h-7.68v20.13s-.79,7.62,9.96,7.62c0,0,9.34.11,9.34-7.27V1.02h-7.5v20.24h0Z"/>
      <path class="cls-1" d="M15.87,13.42s-1.92-1.19-3.11-1.65c0,0-3.67-1.7-4.4-2.51,0,0-1.43-1.35-.59-2.92,0,0,.35-1.03,1.86-1.03,0,0,1.97.11,1.97,1.73v2.29h7.07v-3.37S19.19.45,10.33.21c0,0-.67-.04-1.65,0,0,0-5.37.29-7.29,3.23-.01.02-.03.04-.04.06,0,0-.78.84-.78,3.75v2.11s-.08,2.43,1.16,4c0,0,.7,1.03,2.43,2.16,0,0,3.51,1.89,5.62,2.97,0,0,2.13,1.21,1.85,3.15,0,0-.17,1.98-2.23,1.9,0,0-1.88-.09-1.88-2.03v-2.29H0v3.32s-.21,6.35,9.46,6.35c0,0,9.24.19,9.67-6.51v-2.7s.32-4.11-3.27-6.27h0Z"/>
    </g>
  </g>
</svg>