<?xml version="1.0" encoding="UTF-8"?>
<svg id="Layer_2" data-name="Layer 2" xmlns="http://www.w3.org/2000/svg" viewBox="0 0 167.69 30.36">
  <defs>
    <style>
      .cls-1 {
        fill: #fff;
        fill-rule: evenodd;
      }
    </style>
  </defs>
  <g id="Layer_1-2" data-name="Layer 1">
    <g>
      <path class="cls-1" d="M22.27,24.71v3.56H0V3.79h4.01v20.93h18.26ZM19.15,12.69l4.45-8.46h-4.23l-3.34,8.46h3.12,0ZM55.56,7.81c-1.44-2.27-3.55-4.18-6.04-5.48-2.48-1.3-5.34-2-8.2-2s-5.72.69-8.2,2c-2.48,1.3-4.59,3.21-6.04,5.48-1.44,2.27-2.22,4.91-2.22,7.54s.78,5.27,2.22,7.54c1.44,2.27,3.55,4.18,6.04,5.48,2.48,1.3,5.34,2,8.2,2s5.72-.69,8.2-2c2.48-1.3,4.59-3.21,6.04-5.48,1.44-2.27,2.22-4.91,2.22-7.54s-.78-5.27-2.22-7.54ZM52.1,21.34c-1.08,1.78-2.65,3.28-4.51,4.31-1.86,1.03-4,1.57-6.15,1.57s-4.29-.55-6.15-1.57c-1.86-1.03-3.44-2.53-4.51-4.31-1.08-1.78-1.66-3.84-1.66-5.91s.58-4.12,1.66-5.91c1.08-1.78,2.65-3.28,4.51-4.31,1.86-1.03,4.01-1.57,6.15-1.57s4.29.55,6.15,1.57c1.86,1.03,3.44,2.53,4.51,4.31,1.08,1.78,1.65,3.82,1.66,5.91,0,2.08-.58,4.12-1.66,5.91ZM85.74,14.35c-.73,1.6-2.1,2.52-3.17,3.08-1.07.56-1.85.75-2.63.72l7.79,10.13h-4.45l-7.54-9.8h-9.83v9.8h-4.01V3.79h16.03c1.62,0,3.26.32,4.71,1.13,1.45.82,2.71,2.06,3.29,3.81.59,1.75.51,4.02-.21,5.62h0ZM81.26,14.18c.84-.71,1.34-1.89,1.3-3.05-.04-1.16-.63-2.32-1.47-3.02-.84-.7-1.91-.76-2.92-.76h-12.25v7.57h12.25c1.08,0,2.25-.02,3.09-.74h0ZM108.9,14.25v3.34h-13.58v7.13h18.26v3.56h-22.27V3.79h22.27v3.56h-18.26v6.9h13.58ZM109.12,0h-6.01l-2.45,3.12,8.46-3.12ZM121.42,22.04l-3.18,6.23h-4.01l12.47-24.49h4.01l12.47,24.49h-4.01l-3.17-6.23h-14.58ZM128.71,7.72l-5.7,11.2h11.41l-5.7-11.2h0ZM167.46,24.71v3.56h-22.27V3.79h4.01v20.93h18.26ZM165.73,8.7l-.03-.58c0-.11,0-.22-.04-.34-.04-.13-.11-.24-.2-.34-.06-.08-.15-.13-.25-.14.17-.06.32-.18.41-.34.1-.17.17-.39.17-.63s-.08-.49-.2-.68c-.27-.4-.75-.47-1.18-.45h-1.77v4.09h.69v-1.68h1.03c.11,0,.3-.02.49.13.25.29.14.68.18,1.01,0,.2.02.38.1.54h.77v-.13c-.14-.06-.15-.26-.17-.47h0ZM164.88,6.9c-.21.14-.43.14-.59.13h-.97v-1.25c.42,0,.85-.02,1.27.02.2.02.37.14.45.32.09.27.09.56-.17.77h0Z"/>
      <path class="cls-1" d="M167.22,5.51c-.3-.52-.74-.96-1.26-1.26s-1.12-.46-1.73-.46-1.2.16-1.73.46-.96.74-1.26,1.26-.46,1.12-.46,1.73.16,1.2.46,1.73.74.96,1.26,1.26,1.12.46,1.73.46,1.2-.16,1.73-.46.96-.74,1.26-1.26.46-1.12.46-1.73-.16-1.2-.46-1.73ZM166.81,8.74c-.26.44-.63.81-1.07,1.07-.45.26-.95.39-1.47.39-1.05,0-2.02-.56-2.54-1.46-.52-.91-.52-2.02,0-2.93.81-1.4,2.61-1.88,4.01-1.07.44.26.82.63,1.07,1.07.26.45.39.95.39,1.46,0,.51-.14,1.02-.39,1.46h0Z"/>
    </g>
  </g>
</svg>