<?xml version="1.0" encoding="UTF-8"?>
<svg id="Layer_2" data-name="Layer 2" xmlns="http://www.w3.org/2000/svg" viewBox="0 0 89.01 101.69">
  <defs>
    <style>
      .cls-1 {
        fill: #fff;
      }

      .cls-2 {
        fill: #ec1c24;
      }

      .cls-3 {
        fill: #fff100;
      }
    </style>
  </defs>
  <g id="Layer_1-2" data-name="Layer 1">
    <g>
      <g>
        <path class="cls-2" d="M17.57,78.87l-2.03-16.17c-5.26-3.73-9.35-6.82-14.24-10.41C-.98,35.3,3.25,26.06,9.53,17.3,17.33,7.4,29.83,0,44.82,0c15,.13,27.58,7.68,34.96,17.61,6.94,9.38,10.63,21.19,7.93,35.17l-13.48,9.92-2.01,16.17h-21.42c-1.3,1.07-3.1,2.03-5.98,2.12-2.79-.09-4.56-1.04-6.01-2.12h-21.24Z"/>
        <path class="cls-3" d="M44.82,56.47c-1.12-15.06-1.43-33.65-2.37-48.56-1.63-.39-3.86-.27-5.74.04-1.91.58-3.28,1.07-4.86,1.98,2.92,14.33,6.34,32.54,9.22,46.74-3.92-13.78-9.22-31.11-13.16-44.86-1.85.37-3.68,1.43-5.04,2.52-1.39,1.12-2.24,1.92-3.52,3.91,5.68,12.13,12.5,27.58,18.21,39.61-6.61-10.96-14.66-25.37-21.3-36.26-1.3,1.13-2.27,1.95-3.55,4.13-1.1,1.76-1.64,3.83-1.88,5.85,7.26,8.86,15.94,19.51,23.27,28.35-7.61-7.34-17.02-16.81-24.56-24.18-.76,1.49-1.22,2.74-1.43,5.22-.28,2.39.18,5.24.67,6.95l14.78,10.96,1.55,12.17,16.26.12c1.16,1.37,1.54,2.09,3.46,2.18,1.85-.09,2.92-1.22,3.39-2.18h16.2l1.63-12.2,14.63-10.9c.58-1.8.91-4.55.73-6.97-.24-2.57-.73-3.86-1.36-5.22-7.58,7.31-17,16.79-24.56,24.13,7.35-8.77,15.96-19.46,23.31-28.4-.37-2.01-.85-4.04-2.01-5.8-1.36-2.18-2.16-3-3.42-4.18-6.7,10.84-14.83,25.39-21.43,36.26,5.85-12.08,12.53-27.53,18.29-39.52-1.25-1.92-2.16-2.88-3.42-3.92-1.49-1.12-3.33-2.18-5.13-2.6-4.12,13.71-9.16,31.17-13.16,44.86,2.79-14.2,6.25-32.29,9.04-46.56-1.4-1-2.79-1.54-4.62-2.06-2.12-.42-4.18-.46-5.8-.19-1.12,15.03-1.16,33.56-2.3,48.56Z"/>
      </g>
      <g>
        <path class="cls-1" d="M0,96.11h7.56c-.09,1.67.72,2.07,1.12,2.34.43.16,3.59.31,5.15.04.62-.12,1.22-.35,1.22-2.27,0-.82-.2-1.72-1.15-1.92-3.33-.27-6.58.09-9.89-.26-3.34-.72-3.83-1.58-4.01-4.22.22-3.64,1.49-4.67,5.22-4.8,3.89-.1,7.77-.1,11.62,0,3.97,0,5.18,1.52,5.18,4.85h-6.97c0-1.63-.31-2.25-1.13-2.34-1.69-.12-3.36-.12-5.1,0-.63,0-1.45.33-1.45,1.8,0,1.4.37,1.76,1.31,1.88,2.86.09,5.74.13,8.58.33,4.67.3,4.85,2.36,5.01,4.56.04,3.1-1.06,4.22-1.88,4.71-.81.37-4.61.81-5.34.81h-7.53c-1.67,0-3.79-.21-5.64-.76-1.7-.45-1.88-2.76-1.88-4.76Z"/>
        <rect class="cls-1" x="71.34" y="85.12" width="6.64" height="16.57"/>
        <rect class="cls-1" x="82.42" y="85.12" width="6.59" height="16.57"/>
        <path class="cls-1" d="M67.43,92.99c-.1-.51-.24-1.01-.46-1.51-1.13-1.85-5.03-1.85-8.83-1.94-2.88,0-7.14.09-8.38,1.3-.51.57-.79,1.36-.94,2.15-.18,1-.16,2-.16,2.49,0,.87.09,4.18,1.69,5.04,1.49.97,5.98,1.1,7.73,1.1,1.85,0,6.94-.21,7.68-1.06,1.3-.49,1.63-2.12,1.89-3.42h-6.52c0,1.3-1.01,2.06-3.06,1.97-1.83.09-2.89-.31-2.89-2.64l12.47.04c0-1.12.03-2.34-.21-3.53ZM61.12,94.14h-5.95c0-.48.07-.87.19-1.15.43-1.03,1.52-1.07,2.7-1.15,1.77,0,2.58.43,2.89,1.15.15.33.18.72.16,1.15Z"/>
        <path class="cls-1" d="M26.15,101.69h6.52v-7.05c.16-.94.4-1.75,2.77-1.75,2.28-.04,2.88.58,2.88,1.75v7.05h6.5v-7.05c0-2.28-.04-3.55-1.51-4.22-1.33-.87-3.25-.73-5.04-.73-1.89,0-4.01.24-5.61,1v-5.56h-6.52v16.57Z"/>
      </g>
    </g>
  </g>
</svg>