<?xml version="1.0" encoding="UTF-8"?>
<svg id="Layer_2" data-name="Layer 2" xmlns="http://www.w3.org/2000/svg" viewBox="0 0 185.67 37.58">
  <defs>
    <style>
      .cls-1 {
        fill: #fefefe;
      }

      .cls-1, .cls-2, .cls-3 {
        fill-rule: evenodd;
      }

      .cls-2 {
        fill: #4978bb;
      }

      .cls-3 {
        fill: #004fa2;
      }
    </style>
  </defs>
  <g id="Layer_1-2" data-name="Layer 1">
    <g>
      <path class="cls-1" d="M177.76,20.85h.96V7.3h-10.27c-1.64-.44-3.52-.83-5.5-1.03-5.26-.59-11.48.99-14.14,5.68-3-3.36-7.46-5.44-12.32-5.44-3.53,0-6.98,1.11-9.84,3.19v-2.35h-3.49V0h-9.09c-2.72,3.53-5.59,6.15-9.44,8.41-1.67-1.16-3.73-1.84-6.05-1.86-2.11-.06-4.24.23-6.04.75h-18.62v2.97c-2.57-2.36-6.13-3.79-10.76-3.79-5.51,0-9.93,2.48-12.74,6.05-2.34-4.46-7.91-5.95-11.11-5.98-3.39,0-5.94.49-8.25,1.66-2.76-1.5-6.03-1.83-8.85-1.57-1.29.11-2.7.43-3.67.7H0v10.2h1.42s0,8.93,0,8.93H0s0,10.21,0,10.21h52.88s0-2.6,0-2.6c2.84,2.27,6.38,3.5,10.01,3.49,5.07,0,8.49-1.42,11.05-3.84v2.96h36.57s0-.9,0-.9c1.81,1.11,4.12,1.77,6.95,1.77,3.02.12,5.73-.35,9.14-2.71v-.55c2.85,2.11,6.31,3.25,9.85,3.25,4.44,0,8.55-1.76,11.52-4.64v3.82h10.6s3.77.87,7.28.84c7.53.06,12.93-2.75,13.85-10.06.25-2.86-.58-5-1.96-6.67"/>
      <path class="cls-3" d="M120.44,2.96v7.29h3.49v4.3h-3.49v12.49c.02,1.68,1.55,1.94,3.45,1.5v4.78c-.87.62-2.33,1.24-6.31,1.21-6.16,0-8.66-3.46-8.66-7.64,0,0,0-12.34,0-12.34h-1.42s-.03-4.19,0-4.27c4.6-2.66,8.18-7.32,8.18-7.32h4.76Z"/>
      <path class="cls-3" d="M123.41,21.99c0-6.92,5.94-12.53,13.27-12.53s13.27,5.61,13.27,12.53-5.94,12.53-13.27,12.53-13.27-5.61-13.27-12.53M133.8,21.99c0-4.02.68-6.76,2.89-6.76s2.88,2.74,2.88,6.76-.63,6.86-2.88,6.86-2.89-2.84-2.89-6.86M151.12,33.68v-8.53h3.98c1.83,1.98,5.58,3.58,8.61,4.13,1.18.18,2.39.28,2.72-.39.27-.5-.07-1.1-1.14-1.6-2.5-1.05-6.84-2.14-9.05-3.25-3.26-1.63-5.77-3.45-5.57-7.63.52-7.18,9.08-7.36,12.19-7.01,3.74.37,7.16,1.51,9,2.22,0,0,0-1.38,0-1.38h4.17v8.16s-3.47.04-3.47,0c-1.78-1.8-6.18-3.67-8.84-4.12-1.57-.33-2.28,0-2.44.66-.11.72.65,1.1,1.44,1.41,2.25.91,5.7,1.6,8.4,3.01,3.87,1.92,6.28,3.9,5.93,7.75-.65,5.17-4.22,7.39-10.89,7.43-5.59-.07-8.47-1.58-10.46-2.35v1.48h-4.58ZM106.33,17.14s0,12.28,0,12.28h1.47v4.29s-14.45,0-14.45,0v-4.28h1.44v-10.2c0-3.33-4.74-3.67-4.74.62v9.58h1.41v4.3h-14.41v-4.29s1.42,0,1.42,0v-14.87s-1.43,0-1.43,0v-4.31h13.06v1.56c2.2-1.6,5.04-2.43,8.55-2.33,4.68.13,7.69,3.43,7.69,7.67M76.58,23.52c.66-8.08-5.5-14.09-13.22-14.09-8.12,0-13.24,6.43-13.24,12.79s5.71,12.41,12.96,12.38c7.26,0,11.19-4.19,12.77-8.07l-6.44-.02c-.98,1.66-2.29,2.44-4.34,2.44-2.92,0-4.05-2.49-4-5.45h15.51ZM61.11,19.73h5.54c.06-1.95-.42-4.51-2.84-4.51s-2.69,2.5-2.7,4.51h0ZM3.12,14.55v-4.3s12.99,0,12.99,0v1.48c1.08-.71,3.22-1.95,6.54-2.24,3.45-.19,6.3.25,8.51,2.17,2.36-1.55,4.72-2.3,8.44-2.25,3.88.04,9.2,2.33,9.21,7.73-.06,0-.03,12.29-.03,12.29h1.4v4.28h-14.37v-4.28s1.41,0,1.41,0v-10.21c0-3.34-4.7-3.7-4.75.62v9.59s1.43,0,1.42,0v4.28h-14.44v-4.28h1.42s0-10.21,0-10.21c0-3.35-4.76-3.67-4.76.62,0,0,.01,9.59.01,9.59h1.4v4.29s-14.41-.01-14.41-.01v-4.28h1.42v-14.87s-1.42,0-1.42,0Z"/>
      <g>
        <path class="cls-2" d="M22.53,31.14h-1.41s0,.89,0,.89l-1.44,1.44v-3.8s1.4,0,1.4,0l-.02-10.13s.06-.68-.16-1.33c-.15-.44-.37-.8-.75-1.17.35-.37.7-.73,1.06-1.08,1.33,1.2,1.35,3.04,1.33,3.63,0,.15,0,11.55,0,11.55M38.91,31.13h-1.44v.89l-1.4,1.45v-3.8h1.35v-10.1c0-.14.15-1.63-.98-2.59,0,0,1.06-1.07,1.07-1.09,1.4,1.19,1.38,3.08,1.4,3.7,0,.15,0,11.54,0,11.54M14.4,31.13l1.46-1.47h1.43s-1.47,1.47-1.47,1.47h-1.42M30.74,31.14l1.49-1.48h1.41s-1.48,1.48-1.48,1.48h-1.37M47.06,31.13l1.51-1.47h1.41s-1.53,1.47-1.53,1.47h-1.39M15.87,10.48l-12.51.02,1.46,1.51h9.59l1.47-1.53ZM27.37,10.04c-6.82-1.41-11.1,1.88-11.8,2.49-.55.47-.92.74-1.15,1-.01.06,0,1.54,0,1.54,0,0,2.22-2.4,6.39-3.45,2.62-.66,4.87-.23,5.07-.19.02-.02,1.49-1.39,1.49-1.39M6.2,12.89l-1.47,1.45v15.33h-1.39v3.82s1.46-1.48,1.46-1.48v-.87h1.41V12.89ZM96.58,31.14h-1.41s0,.94,0,.94l-1.56,1.41v-3.82s1.49,0,1.49,0c0,0,0-10.07,0-10.07,0-.14.07-1.69-.9-2.52,0-.01,1.04-1.07,1.04-1.06,1.33,1.2,1.35,3.04,1.32,3.63,0,.15,0,11.5,0,11.5M88.34,31.15l1.47-1.48h1.41l-1.49,1.48h-1.39M104.57,31.14l1.45-1.47h1.43l-1.49,1.47h-1.39M89.85,10.49h-12.58s1.49,1.52,1.49,1.52h9.63l1.45-1.52ZM101.15,10.23c-.7-.23-1.4-.36-2.13-.42-4.14-.33-7.41,1.17-9.25,2.69-.54.45-1.23.94-1.45,1.2-.01.06,0,1.39,0,1.39,0,0,2.11-2.22,6.39-3.31,2.48-.63,4.87-.23,5.07-.18.02-.02,1.38-1.37,1.38-1.37M80.21,12.98l-1.47,1.24v15.44h-1.39v3.8s1.46-1.46,1.46-1.46v-.89h1.41V12.98ZM43.21,10.38c-.17-.06-1.34-.61-3.55-.69-.61-.02-1.39.01-2.14.07-2.91.24-4.91,1.32-6.22,2.18-.19.12-1.33.99-1.33,1.01.11.09.99.77,1.13.94.25-.09,1.89-1.82,5.21-2.32,3.25-.49,5.46.02,5.58.1.18-.18,1.32-1.3,1.32-1.3M69.76,11.25s-1.05,1.08-1.09,1.1c-5.7-2.6-11.14-.62-14.22,2.84-3.43,3.85-3.11,8.93-1.17,12.28-.35.33-.7.67-1.05,1.01-2.34-3.77-2.89-9.33,1.02-14.1,6.06-7.38,15.2-4.09,16.5-3.12"/>
        <path class="cls-2" d="M65.44,15.52c1.25.83,1.54,3.09,1.43,4.41-.03.03-5.96,0-5.96,0l-1.51,1.53h8.97s.58-4.83-1.84-7.01c-.15.14-1.09,1.07-1.09,1.07M59.47,21.89l1.39,1.32s-.54,4.9,3.05,5.84c3.01.78,4.99-1.08,5.64-2.26h5.86s-2.34,1.43-2.34,1.43h-2.76s-1.66,2.64-5.44,2.47c-4.15-.19-5.69-3.06-5.4-8.8M123.69,10.49h-3.47s-1.49,1.53-1.49,1.53h3.44s1.52-1.53,1.52-1.53ZM120.14,3.24h-4.3s-3.32,4.51-8.1,7.25l.02,3.8,1.44-1.44v-1.59c2.98-1.58,7.3-6.55,7.3-6.55h2.18l1.46-1.47ZM110.63,12.85v14.18s-.29,4.28,4.12,5.45c-.02-.02-1.11,1.1-1.11,1.1,0,0-4.31-1.32-4.38-6.57-.08-5.26-.02-12.71-.02-12.71l1.4-1.44ZM120.15,27.21c.09,1.71,1.67,2.16,3.43,1.71l-1.44,1.33s-2.08.21-3.18-1.89c0,0,1.18-1.14,1.18-1.14M125.42,28.03c-1.2-1.98-2.33-5.03-1.38-8.73,1.52-5.95,6.43-8.09,7.32-8.45,2.59-1.05,6.97-1.76,11.27.33,0,0-1.03,1.05-1.07,1.05-2.2-.95-5.62-1.68-9.65.02-2.45,1.03-5.29,2.89-6.4,7.16-.82,3.16-.14,5.66.99,7.6,0,0-1.07,1.05-1.08,1.03"/>
        <path class="cls-2" d="M133.52,20.13c-.31,4.55.17,9.14,3.2,9.03,2.3-.08,2.6-2.42,2.82-3.41.54-2.4.19-6.86.07-7.38-.12-.52-.21-1.9-1.36-2.9.17-.16.84-.82,1.03-1,.87.71,1.41,1.98,1.57,2.66.26.81.77,4.51.12,8.76-.56,3.64-2.33,4.74-4.26,4.71-2.36-.04-4.82-1.25-4.68-9.06.11-.13,1.48-1.4,1.48-1.4M151.38,33.45l.03-7.95h3.52s2.49,2.77,8.3,4.03c3.23.7,3.38-.47,3.49-.82.4-.36,1.19-1.2,1.19-1.2,0,0,.87,1.79-.64,3.1-1.45,1.26-5.16.19-6.78-.3-4.09-1.23-6.12-3.37-6.12-3.37h-1.59l-.02,5.07-1.38,1.44ZM175.79,10.48l-1.26,1.54h-1.43v2.22s-3.81-2.38-9.82-3.1c-3.9-.46-7.94.27-9.67,2.28-1.72,2-2.2,6.14,1.63,8.21,0,.03-.76,1.07-.74,1.07-.69-.39-2.27-1.62-2.89-3-.54-1.22-1.25-3.7.32-6.34,2.17-3.63,8.47-4.03,11.68-3.53,2.31.36,4.91.75,8.53,2.31,0,0,0-1.67,0-1.67h3.65Z"/>
        <path class="cls-2" d="M161.19,15.78c.63.94,4.22,1.88,6.44,2.53,3.03.88,6.17,2.99,6.45,3.21,0,.01-1.07,1.04-1.07,1.04,0,0-3.37-2.16-6.37-3.03-3-.87-5.83-1.98-6.49-2.72-.01-.03,1.05-1.03,1.05-1.03"/>
      </g>
      <path class="cls-1" d="M183.23,6.51v.56h.34c.3,0,.72.05.72-.26,0-.29-.24-.31-.51-.31h-.56ZM184.59,8.45h-.37l-.57-1.05h-.41v1.05h-.32v-2.27h.94c.4,0,.77.12.77.6,0,.45-.3.61-.6.62l.57,1.05ZM182.01,7.3c0,.93.74,1.68,1.66,1.69,0,0,0,0,0,0,.93,0,1.67-.76,1.67-1.68,0,0,0,0,0,0,0-.92-.73-1.68-1.66-1.69,0,0,0,0-.01,0-.92,0-1.67.75-1.67,1.68,0,0,0,0,0,.01h0ZM181.68,7.3c0-1.12.88-2.02,1.99-2.02s1.99.89,1.99,2.02-.88,2.02-1.99,2.02-1.99-.89-1.99-2.02Z"/>
    </g>
  </g>
</svg>