<?xml version="1.0" encoding="UTF-8"?>
<svg id="Layer_2" data-name="Layer 2" xmlns="http://www.w3.org/2000/svg" viewBox="0 0 100.35 82.45">
  <defs>
    <style>
      .cls-1 {
        fill: #ffcd05;
        fill-rule: evenodd;
      }
    </style>
  </defs>
  <g id="Layer_1-2" data-name="Layer 1">
    <path class="cls-1" d="M55.34,76.84c1.02-39.6,8.13-63.39,8.13-63.39,5.78-18.53,15.47.34,15.47.34,11.26,19.93,10.88,68.66,10.88,68.66h10.54s-2.21-41.3-13.26-65.77c0,0-8.19-17.36-16.66-16.66,0,0-13.3-1.41-20.26,36.79C43.21-1.38,29.91.02,29.91.02,21.44-.69,13.26,16.68,13.26,16.68,2.21,41.15,0,82.45,0,82.45h10.54s-.38-48.73,10.88-68.66c0,0,9.69-18.87,15.47-.34,0,0,7.11,23.79,8.13,63.39h10.32Z"/>
  </g>
</svg>