<?xml version="1.0" encoding="UTF-8"?>
<svg id="Layer_2" data-name="Layer 2" xmlns="http://www.w3.org/2000/svg" viewBox="0 0 178.49 54.25">
  <defs>
    <style>
      .cls-1 {
        fill: #fff;
      }
    </style>
  </defs>
  <g id="Layer_1-2" data-name="Layer 1">
    <g>
      <path class="cls-1" d="M174.22,43.82l-10.39-14.11-10.38,14.11h-4.28l12.5-17.04-11.41-15.49h4.28l9.3,12.64,9.3-12.64h4.27l-11.4,15.49,12.5,17.05h-4.27ZM93.22,43.81l-12.51-17.04,11.41-15.49h-4.28l-9.3,12.64-9.29-12.64h-4.27l11.41,15.49-12.51,17.04h4.28l10.38-14.1,10.39,14.1h4.28Z"/>
      <path class="cls-1" d="M117,28c-.64-.55-1.36-1.01-2.13-1.36,2.41-1.28,3.91-3.79,3.91-6.52,0-2.08-.77-8.85-10.58-8.85h-13.21v14.03h-4.4c-.57.74-1.87,2.53-2.36,3.27h6.76v15.24h13.21c7.16,0,11.6-3.63,11.6-9.5,0-2.56-.97-4.74-2.81-6.31M98.64,14.68h9.56c2.59,0,6.92.64,6.92,5.17,0,3.42-2.52,5.46-6.92,5.46h-9.56v-10.63h0ZM108.2,40.42h-9.56v-11.84h9.56c3.62,0,7.96,1,7.96,5.67,0,5.37-4.99,6.18-7.96,6.18M137,10.53c-9.14,0-15.53,6.99-15.53,17s6.39,17.01,15.53,17.01,15.5-6.98,15.5-17.01-6.37-17-15.5-17M137,41.1c-6.96,0-11.84-5.58-11.84-13.57s4.88-13.56,11.84-13.56,11.8,5.58,11.8,13.56-4.85,13.57-11.8,13.57M8.09,7.8l-.03.02h0C2.9,12.91,0,19.87,0,27.12c0,5.94,1.94,11.71,5.54,16.43.04.05.09.07.15.05.05-.03.05-.09.03-.14-2.07-6.39,8.5-21.89,13.96-28.39.02-.02.04-.05.04-.08,0-.04-.03-.07-.05-.09C10.49,5.76,8.03,7.85,8.07,7.82M46.15,7.8l.03.02h0c5.17,5.09,8.08,12.05,8.06,19.3,0,5.94-1.94,11.71-5.54,16.43-.03.05-.09.07-.15.05-.05-.03-.05-.09-.03-.14,2.07-6.39-8.49-21.9-13.95-28.4-.02-.02-.04-.05-.04-.08,0-.04.02-.07.05-.09,9.19-9.14,11.62-7.04,11.59-7.07M27.12,0c5.47,0,9.98,1.5,14.13,3.97.05.03.07.08.05.13-.02.05-.08.06-.13.05-5.25-1.13-13.23,3.4-13.98,3.86-.02.01-.03.02-.06.02-.03,0-.04-.01-.06-.02-2-1.15-9.38-5.02-14.02-3.83-.05.01-.11,0-.13-.05-.02-.05,0-.11.05-.13C17.1,1.5,21.66,0,27.12,0M27.12,21.75s.07.03.09.04c8.12,6.17,22.01,21.43,17.77,25.74h0s0,0,0,0h0c-4.94,4.33-11.28,6.72-17.85,6.71-6.57,0-12.92-2.38-17.85-6.71h0s0,0,0,0c-4.23-4.31,9.66-19.57,17.76-25.74.02-.02.06-.04.09-.04"/>
    </g>
  </g>
</svg>