<?xml version="1.0" encoding="UTF-8"?>
<svg id="Layer_2" data-name="Layer 2" xmlns="http://www.w3.org/2000/svg" xmlns:xlink="http://www.w3.org/1999/xlink" viewBox="0 0 96.13 96.13">
  <defs>
    <style>
      .cls-1 {
        fill: url(#linear-gradient-13);
      }

      .cls-2 {
        fill: url(#linear-gradient-2);
      }

      .cls-3 {
        fill: url(#linear-gradient-3);
      }

      .cls-3, .cls-4 {
        opacity: .4;
      }

      .cls-3, .cls-4, .cls-5 {
        isolation: isolate;
      }

      .cls-6 {
        fill: url(#linear-gradient-10);
      }

      .cls-7 {
        fill: url(#linear-gradient-12);
      }

      .cls-4 {
        fill: url(#linear-gradient-4);
      }

      .cls-8 {
        fill: rgba(164, 170, 174, .6);
      }

      .cls-9 {
        fill: #fff;
      }

      .cls-10 {
        fill: url(#linear-gradient-7);
        fill-opacity: .8;
      }

      .cls-11 {
        fill: #fbfbfb;
      }

      .cls-12 {
        fill: url(#linear-gradient-5);
      }

      .cls-13 {
        fill: #565f64;
      }

      .cls-14 {
        fill: url(#linear-gradient-14);
      }

      .cls-15 {
        fill: #333f47;
      }

      .cls-16 {
        fill: url(#linear-gradient-9);
      }

      .cls-17 {
        fill: url(#linear-gradient-11);
      }

      .cls-18 {
        fill: url(#linear-gradient-6);
      }

      .cls-5 {
        fill: url(#linear-gradient-8);
        opacity: .8;
      }

      .cls-19 {
        fill: #333e46;
      }

      .cls-20 {
        fill: url(#linear-gradient);
      }
    </style>
    <linearGradient id="linear-gradient" x1="-1469.32" y1="412.59" x2="-1467.48" y2="414.13" gradientTransform="translate(57407.49 -16098.86) scale(39.06)" gradientUnits="userSpaceOnUse">
      <stop offset="0" stop-color="#fff"/>
      <stop offset=".1" stop-color="#e7e8e6"/>
      <stop offset=".1" stop-color="#cdd0d0"/>
      <stop offset=".2" stop-color="#b5bbbd"/>
      <stop offset=".2" stop-color="#a5acaf"/>
      <stop offset=".3" stop-color="#9ba3a7"/>
      <stop offset=".3" stop-color="#98a0a4"/>
      <stop offset=".4" stop-color="#828a8f"/>
      <stop offset=".5" stop-color="#667075"/>
      <stop offset=".6" stop-color="#535c63"/>
      <stop offset=".7" stop-color="#475158"/>
      <stop offset=".8" stop-color="#434d54"/>
      <stop offset="1" stop-color="#475157"/>
    </linearGradient>
    <linearGradient id="linear-gradient-2" x1="-1469.27" y1="412.63" x2="-1467.54" y2="414.09" gradientTransform="translate(57407.49 -16098.86) scale(39.06)" gradientUnits="userSpaceOnUse">
      <stop offset="0" stop-color="#0b1f2a"/>
      <stop offset=".2" stop-color="#333f47"/>
      <stop offset=".5" stop-color="#777f84"/>
      <stop offset=".5" stop-color="#81898d"/>
      <stop offset=".7" stop-color="#b3b8b8"/>
      <stop offset=".8" stop-color="#d2d5d3"/>
      <stop offset=".8" stop-color="#dee0dd"/>
      <stop offset="1" stop-color="#fbfbfb"/>
    </linearGradient>
    <linearGradient id="linear-gradient-3" x1="143.17" y1="666.6" x2="144.01" y2="668.92" gradientTransform="translate(5657 26132.31) rotate(-180) scale(39.06)" gradientUnits="userSpaceOnUse">
      <stop offset="0" stop-color="#e1e3e1"/>
      <stop offset=".1" stop-color="#c1c5c4"/>
      <stop offset=".3" stop-color="#9ba1a2"/>
      <stop offset=".5" stop-color="#7d8487"/>
      <stop offset=".7" stop-color="#687074" stop-opacity="0"/>
      <stop offset=".8" stop-color="#5b6469" stop-opacity="0"/>
      <stop offset="1" stop-color="#576065" stop-opacity="0"/>
    </linearGradient>
    <linearGradient id="linear-gradient-4" x1="-1468.93" y1="412.44" x2="-1467.87" y2="414.28" gradientTransform="translate(57407.49 -16098.86) scale(39.06)" xlink:href="#linear-gradient-3"/>
    <linearGradient id="linear-gradient-5" x1="-1467.92" y1="413.65" x2="-1467.99" y2="413.75" gradientTransform="translate(57407.49 -16098.86) scale(39.06)" gradientUnits="userSpaceOnUse">
      <stop offset="0" stop-color="#27343c"/>
      <stop offset="1" stop-color="#00111e" stop-opacity="0"/>
    </linearGradient>
    <linearGradient id="linear-gradient-6" x1="-1468.11" y1="413.25" x2="-1468.22" y2="413.08" gradientTransform="translate(57407.49 -16098.86) scale(39.06)" gradientUnits="userSpaceOnUse">
      <stop offset=".1" stop-color="#02131f"/>
      <stop offset=".9" stop-color="#02131f" stop-opacity="0"/>
    </linearGradient>
    <linearGradient id="linear-gradient-7" x1="-1468.4" y1="413.53" x2="-1468.56" y2="413.57" gradientTransform="translate(57407.49 -16098.86) scale(39.06)" gradientUnits="userSpaceOnUse">
      <stop offset=".2" stop-color="#02131f"/>
      <stop offset=".9" stop-color="#02131f" stop-opacity="0"/>
    </linearGradient>
    <linearGradient id="linear-gradient-8" x1="-1468.83" y1="413.74" x2="-1468.86" y2="413.68" gradientTransform="translate(57407.49 -16098.86) scale(39.06)" gradientUnits="userSpaceOnUse">
      <stop offset="0" stop-color="#02131f"/>
      <stop offset=".1" stop-color="#02131f"/>
      <stop offset="1" stop-color="#02131f" stop-opacity="0"/>
    </linearGradient>
    <linearGradient id="linear-gradient-9" x1="-1468.26" y1="412.79" x2="-1468.39" y2="412.81" gradientTransform="translate(57407.49 -16098.86) scale(39.06)" gradientUnits="userSpaceOnUse">
      <stop offset=".3" stop-color="#02131f"/>
      <stop offset=".3" stop-color="#02131f"/>
      <stop offset=".8" stop-color="#02131f" stop-opacity="0"/>
    </linearGradient>
    <linearGradient id="linear-gradient-10" x1="-1468.26" y1="412.79" x2="-1468.35" y2="412.8" gradientTransform="translate(57407.49 -16098.86) scale(39.06)" gradientUnits="userSpaceOnUse">
      <stop offset=".4" stop-color="#27343c"/>
      <stop offset="1" stop-color="#3b474e" stop-opacity="0"/>
    </linearGradient>
    <linearGradient id="linear-gradient-11" x1="-1469.65" y1="413.39" x2="-1468.57" y2="414.01" gradientTransform="translate(57407.49 -16098.86) scale(39.06)" gradientUnits="userSpaceOnUse">
      <stop offset="0" stop-color="#24303a" stop-opacity="0"/>
      <stop offset="0" stop-color="#25323b" stop-opacity="0"/>
      <stop offset=".1" stop-color="#27343c"/>
    </linearGradient>
    <linearGradient id="linear-gradient-12" x1="-1468.4" y1="413.57" x2="-1468.4" y2="413.38" gradientTransform="translate(57407.49 -16098.86) scale(39.06)" gradientUnits="userSpaceOnUse">
      <stop offset=".3" stop-color="#a5abaf"/>
      <stop offset="1" stop-color="#a5abaf" stop-opacity="0"/>
    </linearGradient>
    <linearGradient id="linear-gradient-13" x1="-1467.8" y1="412.22" x2="-1467.8" y2="414.56" gradientTransform="translate(57407.49 -16098.86) scale(39.06)" gradientUnits="userSpaceOnUse">
      <stop offset="0" stop-color="#dee0dd"/>
      <stop offset="0" stop-color="#c5c9c7"/>
      <stop offset="0" stop-color="#9ea4a5"/>
      <stop offset="0" stop-color="#82898c"/>
      <stop offset="0" stop-color="#71797d"/>
      <stop offset="0" stop-color="#6b7378"/>
      <stop offset=".2" stop-color="#333f47"/>
      <stop offset=".5" stop-color="#27343c"/>
      <stop offset=".8" stop-color="#333f47"/>
      <stop offset="1" stop-color="#434d54"/>
    </linearGradient>
    <linearGradient id="linear-gradient-14" x1="-1467.43" y1="412.44" x2="-1467.95" y2="413.2" gradientTransform="translate(57407.49 -16098.86) scale(39.06)" gradientUnits="userSpaceOnUse">
      <stop offset=".7" stop-color="#27343c"/>
      <stop offset=".7" stop-color="#2b373f"/>
      <stop offset=".7" stop-color="#36424a"/>
      <stop offset=".7" stop-color="#49545b"/>
      <stop offset=".8" stop-color="#646d73" stop-opacity="0"/>
      <stop offset=".8" stop-color="#868d92" stop-opacity="0"/>
      <stop offset=".8" stop-color="#b0b5b8" stop-opacity="0"/>
      <stop offset=".8" stop-color="#e1e3e4" stop-opacity="0"/>
      <stop offset=".8" stop-color="#fff" stop-opacity="0"/>
    </linearGradient>
  </defs>
  <g id="Layer_1-2" data-name="Layer 1">
    <g>
      <path id="outer" class="cls-20" d="M95.08,48.06c0,25.98-21.03,47.01-47.01,47.01S1.05,74.05,1.05,48.06,22.08,1.05,48.06,1.05s47.01,21.03,47.01,47.01ZM48.06,3.91C23.58,3.91,3.91,23.58,3.91,48.06s19.83,44.16,44.16,44.16,44.16-19.83,44.16-44.16S72.55,3.91,48.06,3.91Z"/>
      <path class="cls-2" d="M48.06,3.91C23.58,3.91,3.91,23.58,3.91,48.06s19.83,44.16,44.16,44.16,44.16-19.83,44.16-44.16S72.55,3.91,48.06,3.91ZM48.06,89.37c-22.83,0-41.31-18.47-41.31-41.31S25.23,6.76,48.06,6.76s41.31,18.47,41.31,41.31-18.47,41.31-41.31,41.31Z"/>
      <path class="cls-3" d="M48.06,95.08c25.98,0,47.01-21.03,47.01-47.01S74.05,1.05,48.06,1.05,1.05,22.08,1.05,48.06s21.03,47.01,47.01,47.01ZM48.06,0c26.44,0,48.06,21.63,48.06,48.06s-21.63,48.06-48.06,48.06S0,74.5,0,48.06,21.63,0,48.06,0Z"/>
      <path class="cls-9" d="M3.3,48.21C3.3,23.58,23.28,3.3,48.06,3.3s44.76,20.13,44.76,44.91-19.98,44.61-44.76,44.61S3.3,72.85,3.3,48.21ZM17.27,17.27c-7.96,7.96-12.92,18.93-12.92,30.94s4.96,22.98,12.77,30.79c7.96,7.81,18.93,12.77,30.94,12.77s22.98-4.81,30.79-12.77c7.96-7.81,12.77-18.78,12.77-30.79s-4.96-22.98-12.77-30.94c-7.81-7.96-18.78-12.92-30.79-12.92s-22.98,4.96-30.79,12.92h0Z"/>
      <path class="cls-4" d="M48.06,89.52c-11.11,0-21.48-4.36-29.29-12.17-7.81-7.81-12.17-18.17-12.17-29.29s4.36-21.48,12.17-29.29c7.81-7.81,18.17-12.17,29.29-12.17s21.48,4.36,29.29,12.17c7.81,7.81,12.17,18.17,12.17,29.29s-4.36,21.48-12.17,29.29c-7.81,7.81-18.17,12.17-29.29,12.17ZM48.06,88.32c10.66,0,20.88-4.21,28.39-11.72,7.66-7.66,11.72-17.72,11.72-28.39s-4.21-20.88-11.72-28.39c-7.66-7.66-17.72-11.72-28.39-11.72s-20.88,4.21-28.39,11.72c-7.66,7.36-11.87,17.57-11.87,28.24s4.21,20.88,11.72,28.39c7.66,7.66,17.87,11.87,28.54,11.87h0Z"/>
      <path class="cls-9" d="M84.56,67.59c-.75-.6-29.74-23.58-29.74-23.58l-6.76-38.6c-.45.15-1.05.6-1.35,1.2l-4.81,37.55-29.89,22.98s-.6.75-.9,1.2c-.15.3-.15.75-.15,1.2l36.95-15.17,36.95,15.17c.3-.75,0-1.5-.3-1.95h0Z"/>
      <path class="cls-13" d="M48.36,49.27l-.3,6.91,33.95,13.67c1.2.6,2.1.3,3-.3l-36.2-20.43c-.15-.15-.45,0-.45.15Z"/>
      <path class="cls-12" d="M48.36,49.27s1.95,3.45,4.21,5.86c3.15,3.45,7.36,5.86,7.36,5.86l22.08,8.86c1.2.6,2.1.3,3-.3l-36.2-20.43c-.15-.15-.45,0-.45.15Z"/>
      <path class="cls-8" d="M84.86,68.19c0-.15-.15-.3-.3-.6l-30.94-22.68-4.21,2.7s.3.15.45,0c.45-.15,1.35-.3,2.25,0,.75.3,32.74,20.73,32.74,20.58q0,.15,0,0h0Z"/>
      <path class="cls-19" d="M83.81,66.84l-28.84-22.83-1.35.9,30.94,22.83c-.15-.3-.45-.6-.75-.9h0Z"/>
      <path class="cls-13" d="M48.82,47.01l-.15.15s0,.3.3.15c.15-.15,4.51-2.4,6.01-3.3l-5.26-36.05c-.15-1.35-.75-1.95-1.8-2.4l.6,41.76.3-.3h0Z"/>
      <path class="cls-8" d="M46.26,7.96v1.95l-3.3,33.19c0,.45.15.9.6,1.2l1.95,1.5,1.35-36.65.15-2.85c-.45.3-.6.9-.75,1.65h0ZM44.46,46.41l-1.8-1.5-30.49,22.08s-.9.6-1.05,1.2l1.05-.6,31.99-20.13c.6-.3.75-.6.3-1.05h0Z"/>
      <path class="cls-13" d="M47.61,49.27c0-.15-.15-.3-.3-.15l-36.35,20.58c.9.6,1.8.75,3,.3l33.95-13.67-.3-7.06Z"/>
      <path class="cls-18" d="M48.67,47.16l.15-.15-.15.15s0,.15.15.15h.15c.15-.15,4.51-2.4,6.01-3.3l-.6-4.36-4.66-31.69c0-.6-.15-1.05-.45-1.35,0,0,2.25,30.34,2.25,33.65,0,4.36-2.85,6.91-2.85,6.91h0Z"/>
      <path class="cls-10" d="M47.61,49.27c0-.15-.15-.3-.3-.15l-36.35,20.58c.9.6,1.8.75,3,.3l33.95-13.67-.3-7.06Z"/>
      <path class="cls-5" d="M13.97,69.84l33.95-13.67-.3-6.61c-.6,1.8-1.65,3.76-4.51,5.26-2.1,1.2-22.23,11.11-29.44,14.57-.45.3-1.05.45-1.35.6.6.3,1.05.15,1.65-.15h0Z"/>
      <path class="cls-16" d="M48.82,47.01l-.15.15s0,.3.3.15c.15-.15,4.51-2.4,6.01-3.3l-5.26-36.05c-.15-1.35-.75-1.95-1.8-2.4l.6,41.76.3-.3h0Z"/>
      <path class="cls-6" d="M48.82,47.01l-.15.15s0,.3.3.15c.15-.15,4.51-2.4,6.01-3.3l-5.26-36.05c-.15-1.35-.75-1.95-1.8-2.4l.6,41.76.3-.3h0Z"/>
      <path class="cls-17" d="M7.66,66.69c-1.05-2.4-7.06-14.12-.45-36.65h-2.55c-1.35,4.51-2.4,7.21-3,11.27,0,0-.3,1.5-.45,3.15s-.15,2.55-.15,3.6c0,9.01,2.25,14.27,2.25,14.27,2.4,7.51,6.61,14.27,12.32,19.38,4.96,4.36,12.62,7.66,18.93,8.86-1.05-.15-19.08-7.81-26.89-23.88h0Z"/>
      <path class="cls-7" d="M48.67,48.97h-1.35c.15,0,.3,0,.3.15l.3,6.91h.15l.3-6.91c0-.15.15-.3.3-.15h0Z"/>
      <path class="cls-1" d="M63.08,3.45c15.77,6.01,30.64,22.53,30.64,43.41,0,25.23-20.13,45.81-45.66,45.81v2.4c25.53,0,47.01-21.03,47.01-47.01,0-20.73-13.22-38.15-31.99-44.61h0Z"/>
      <path class="cls-14" d="M88.32,30.34C77.8,6.16,54.07,4.81,52.72,4.66h-.15c18.17,3.3,29.74,15.17,33.8,27.64v.15c1.8,4.81,2.7,9.91,2.85,15.47.15,5.26-1.05,11.11-3.3,16.52-.15.75-.3,1.65-.45,1.65h2.4c7.21-13.52,4.06-27.19.45-35.75Z"/>
      <path class="cls-11" d="M3.3,48.21C3.3,23.58,23.28,3.3,48.06,3.3s44.76,20.13,44.76,44.91-19.98,44.61-44.76,44.61S3.3,72.85,3.3,48.21ZM17.27,17.27c-7.96,7.96-12.92,18.93-12.92,30.94s4.96,22.98,12.77,30.79c7.96,7.81,18.93,12.77,30.94,12.77s22.98-4.81,30.79-12.77c7.96-7.81,12.77-18.78,12.77-30.79s-4.96-22.98-12.77-30.94c-7.81-7.96-18.78-12.92-30.79-12.92s-22.98,4.96-30.79,12.92h0Z"/>
      <path class="cls-15" d="M11.87,67.29l30.64-22.08c1.65.9,4.36,2.1,4.66,2.1.3.15.3-.15.3-.15l-3.76-3.15c-.45-.3-.6-.75-.6-1.2l3.6-36.2c-.15.15-.15.45-.3.6-.15.3-.15.45-.15.75l-5.26,36.2-28.84,22.68c-.15.15-.3.3-.3.45h0Z"/>
    </g>
  </g>
</svg>