<?xml version="1.0" encoding="UTF-8"?>
<svg id="Layer_2" data-name="Layer 2" xmlns="http://www.w3.org/2000/svg" viewBox="0 0 179.09 48.4">
  <defs>
    <style>
      .cls-1 {
        fill: #e50914;
      }
    </style>
  </defs>
  <g id="Layer_1-2" data-name="Layer 1">
    <path class="cls-1" d="M169.51,23.04l9.58,25.36c-2.82-.4-5.65-.91-8.52-1.36l-5.4-14.01-5.55,12.86c-2.72-.46-5.4-.61-8.12-.96l9.73-22.18L152.42,0h8.17l4.94,12.7L170.82,0h8.27l-9.58,23.04ZM145.97,0h-7.41v43.97c2.42.15,4.94.25,7.41.55V0ZM132.15,43.46c-6.76-.45-13.51-.86-20.42-1.01V0h7.56v35.29c4.34.1,8.67.45,12.86.65v7.51ZM103.66,17.19v7.56h-10.34v17.19h-7.46V0h21.18v7.56h-13.71v9.63h10.34,0ZM73.16,7.56v34.79c-2.52,0-5.09,0-7.56.1V7.56h-7.82V0h23.24v7.56h-7.86ZM49.61,25.16c-3.33,0-7.26,0-10.08.15v11.24c4.44-.3,8.87-.66,13.36-.81v7.26l-20.92,1.67V0h20.92v7.56h-13.36v10.19c2.93,0,7.41-.15,10.08-.15v7.56h0ZM7.71,20.92v26.42c-2.72.3-5.14.66-7.71,1.06V0h7.21l9.83,27.48V0h7.56v45.28c-2.67.46-5.4.61-8.27,1.01L7.71,20.92Z"/>
  </g>
</svg>