<?xml version="1.0" encoding="UTF-8"?>
<svg id="Layer_2" data-name="Layer 2" xmlns="http://www.w3.org/2000/svg" viewBox="0 0 148.83 75.38">
  <defs>
    <style>
      .cls-1 {
        fill: #fff;
      }
    </style>
  </defs>
  <g id="Layer_1-2" data-name="Layer 1">
    <g>
      <g>
        <path class="cls-1" d="M65.54,0v33.39l7.56,2.4V7.79c0-1.32.59-2.2,1.53-1.89,1.23.34,1.47,1.56,1.47,2.86v11.18c4.71,2.28,8.41,0,8.41-6.01s-2.17-8.88-8.56-11.08c-2.52-.84-7.19-2.26-10.41-2.85"/>
        <path class="cls-1" d="M74.54,30.9l12.14-4.32c1.37-.51,1.58-1.2.47-1.56-1.13-.37-3.14-.26-4.53.23l-8.08,2.85v-4.55l.46-.15s2.34-.83,5.63-1.19c3.28-.36,7.31.05,10.48,1.24,3.57,1.13,3.97,2.79,3.06,3.93-.92,1.14-3.13,1.96-3.13,1.96l-16.5,5.93"/>
        <path class="cls-1" d="M51.69,30.44c-3.66-1.02-4.27-3.17-2.6-4.41,1.54-1.13,4.16-1.99,4.16-1.99l10.83-3.86v4.39l-7.79,2.79c-1.38.49-1.59,1.19-.48,1.55,1.13.38,3.14.28,4.52-.23l3.74-1.35v3.92c-.24.04-.51.08-.75.12-3.73.62-7.71.37-11.64-.94"/>
        <path class="cls-1" d="M92.24,33.51c0,.11-.03.18-.08.22-.07.04-.15.07-.26.07h-.54v-.55h.57c.08,0,.14.01.19.03.08.04.12.12.12.23M92.63,34.78s-.05-.03-.06-.08c0-.04-.01-.09-.01-.15v-.25c-.01-.12-.04-.21-.08-.26-.02-.04-.07-.07-.11-.1.05-.05.1-.1.15-.15.05-.08.08-.18.08-.3,0-.23-.1-.39-.29-.49-.1-.04-.22-.07-.37-.07h-.92v1.97h.35v-.8h.53c.1,0,.17.01.21.03.07.04.1.11.11.21l.02.31c0,.08.01.13.01.16l.03.07v.02h.39v-.11M90.28,33.96c0-.4.15-.77.43-1.05.28-.28.66-.43,1.05-.43s.76.15,1.03.43c.28.27.43.64.43,1.05,0,.81-.66,1.46-1.46,1.46-.39,0-.77-.15-1.05-.43-.28-.28-.43-.64-.43-1.04M91.76,35.73c.47,0,.91-.19,1.25-.52.33-.34.52-.78.52-1.25s-.19-.92-.52-1.25c-.33-.34-.77-.52-1.25-.52-.98,0-1.77.79-1.77,1.77,0,.47.18.91.51,1.25.33.33.79.52,1.26.52"/>
      </g>
      <g>
        <path class="cls-1" d="M9.2,45.97H.07s-.07.03-.07.06v21.35s.03.07.07.07h3.7l.06-.07v-19.04s.03-.03.03-.03h4.24c1.54,0,2.39,1.55,2.39,4.36s-.85,4.38-2.39,4.38h-2.55s-.06.03-.06.06v2.22s.03.07.06.07h3.65c1.29,0,2.55-.6,3.46-1.62,1.08-1.22,1.65-2.98,1.65-5.08,0-4.08-1.99-6.73-5.11-6.73"/>
        <path class="cls-1" d="M20.36,45.96h-3.7s-.07.03-.07.06v21.35s.03.07.07.07h3.7l.07-.07v-21.35l-.07-.06"/>
        <path class="cls-1" d="M36.5,51.16s-.03-.07-.07-.07h-6.59c-5.91,0-6.67,4.34-6.67,8.15v3.3c0,2.84,1.77,4.9,4.2,4.9h3.6l.06-.07v-2.21s-.03-.07-.06-.07h-2.57c-.59,0-1.39-.26-1.39-2.29v-3.56c0-2.37.22-3.88.71-4.74.53-.95,1.37-1.08,2.12-1.08h2.81l.02.03v13.92s.02.07.06.07h3.7s.07-.03.07-.07"/>
        <path class="cls-1" d="M63.14,54.9l-1.82-.14c-1.37-.12-2.38-.88-2.38-3.12,0-2.62,1.17-3.33,2.74-3.33h5.05l.07-.07v-2.22l-.07-.06h-5.57c-3.44,0-5.89,2.02-5.89,6.06v.18c0,3.18,1.96,5.48,4.87,5.7l1.81.13c1.38.1,2.25,1.34,2.25,3.22v.53c0,1.17-.29,3.32-2.81,3.32h-5.24s-.07.03-.07.07v2.21l.07.07h6.51c2.01,0,5.36-.81,5.36-6.27,0-1.98-.45-3.54-1.36-4.66-.78-.97-1.93-1.49-3.51-1.61"/>
        <path class="cls-1" d="M93.46,51.16s-.03-.07-.07-.07h-6.61c-5.9,0-6.66,4.34-6.66,8.15v3.3c0,2.84,1.77,4.9,4.21,4.9h3.59l.07-.07v-2.21s-.03-.07-.07-.07h-2.57c-.59,0-1.38-.26-1.38-2.29v-3.56c0-2.37.22-3.88.7-4.74.53-.95,1.38-1.08,2.12-1.08h2.82l.03.03v13.92s.02.07.06.07h3.7s.06-.03.06-.07"/>
        <path class="cls-1" d="M78.58,51.09h-4.02l-.02-.02v-2.69s-.03-.07-.06-.07h-3.7s-.07.03-.07.07v14.17c0,2.84,1.77,4.9,4.21,4.9h2.65s.07-.03.07-.07v-2.21s-.03-.07-.07-.07h-1.63c-.42,0-1.39-.03-1.4-2.12v-9.54l.02-.02c1.23,0,4.02,0,4.02,0l.06-.06v-2.2s-.03-.07-.06-.07"/>
        <path class="cls-1" d="M104.42,51.09h-3.99l-.03-.02v-2.69l-.06-.07h-3.71s-.07.03-.07.07v14.17c0,2.84,1.77,4.9,4.2,4.9h2.65s.07-.03.07-.07v-2.21s-.03-.07-.07-.07h-1.63c-.42,0-1.39-.03-1.39-2.12v-9.54l.02-.02c1.22,0,4,0,4,0l.07-.06v-2.2s-.03-.07-.07-.07"/>
        <path class="cls-1" d="M110.53,51.09h-3.7s-.07.03-.07.07v16.22l.07.07h3.7s.07-.03.07-.07v-16.22s-.03-.07-.07-.07"/>
        <path class="cls-1" d="M110.53,45.96h-3.7l-.07.06v3.1s.03.07.07.07h3.7s.07-.03.07-.07v-3.1s-.03-.06-.07-.06"/>
        <path class="cls-1" d="M136.12,51.09h-6.6s-.06.03-.06.07v16.22s.06.07.06.07h3.71l.06-.07v-13.92s.02-.03.02-.03h2.81c.76,0,1.6.12,2.13,1,.49.8.71,2.19.71,4.39,0,.09,0,8.56,0,8.56,0,.03.03.07.07.07h3.69s.07-.03.07-.07v-8.13c0-3.81-.76-8.15-6.66-8.15"/>
        <path class="cls-1" d="M122.38,64.03c-.58.96-1.51,1.09-2.35,1.09s-1.76-.13-2.35-1.09c-.53-.86-.78-2.37-.78-4.76v-.02c0-2.81.35-4.41,1.12-5.17.46-.46,1.06-.65,2-.65s1.55.19,2.01.65c.77.76,1.11,2.37,1.11,5.19,0,2.39-.25,3.9-.78,4.76M120.03,51.09c-6.18,0-6.97,4.36-6.97,8.17s.79,8.19,6.97,8.19,6.97-4.37,6.97-8.19-.79-8.17-6.97-8.17"/>
        <path class="cls-1" d="M38.59,51.09l-.04.06,5.49,16.07s0,.09,0,.13l-3.09,7.96s0,.07.04.07h3.22s.08-.03.09-.07l9.63-24.16s0-.06-.04-.06h-3.51s-.08.03-.09.06l-4.08,10.56h-.05l-3.6-10.56s-.05-.06-.09-.06"/>
      </g>
      <path class="cls-1" d="M147.54,65.23c0,.11-.03.18-.09.22-.06.05-.15.06-.26.06h-.54v-.55h.57c.08,0,.14.01.19.03.08.04.12.12.12.23M147.93,66.5s-.05-.04-.06-.08c0-.03-.01-.09-.01-.15v-.25c-.01-.12-.04-.21-.09-.26-.02-.04-.07-.07-.11-.1.05-.05.1-.1.14-.15.05-.08.08-.18.08-.29,0-.23-.1-.4-.29-.49-.1-.04-.22-.07-.37-.07h-.91v1.97h.35v-.8h.53c.1,0,.17.01.21.03.07.04.1.11.11.21l.02.31c0,.08,0,.13.02.16l.02.07v.02h.39v-.11M145.59,65.68c0-.4.15-.77.43-1.05.28-.28.66-.43,1.05-.43s.76.15,1.04.43c.28.28.43.64.43,1.05,0,.81-.66,1.46-1.47,1.46-.39,0-.76-.15-1.05-.43-.28-.28-.43-.64-.43-1.04M147.06,67.45c.47,0,.92-.19,1.25-.51.33-.33.51-.78.51-1.25s-.19-.92-.51-1.25c-.34-.34-.78-.52-1.25-.52-.98,0-1.77.79-1.77,1.77,0,.47.18.91.51,1.25.33.33.79.51,1.26.51"/>
    </g>
  </g>
</svg>