<?xml version="1.0" encoding="UTF-8"?>
<svg id="Layer_2" data-name="Layer 2" xmlns="http://www.w3.org/2000/svg" viewBox="0 0 122.2 81.3">
  <defs>
    <style>
      .cls-1 {
        fill: #fff;
      }
    </style>
  </defs>
  <g id="Layer_1-2" data-name="Layer 1">
    <g>
      <path class="cls-1" d="M121.59,66.06h-5.33c-.17-.88-.42-1.51-.77-1.86-.57-.57-1.54-.86-2.89-.86s-2.24.22-2.76.66c-.39.33-.59.79-.59,1.36,0,.81,1.12,1.45,3.35,1.95,2.54.55,4.36,1.03,5.48,1.41.29.11.55.2.74.29,2.26,1.07,3.38,2.69,3.38,4.86,0,2.65-1.1,4.58-3.29,5.79-.28.15-.53.28-.83.41-1.41.61-3.07.92-4.93.92-2.78,0-5.02-.5-6.73-1.47-1.08-.63-1.88-1.41-2.41-2.36-.54-.95-.8-2.05-.8-3.32h5.59c0,.96.35,1.71,1.03,2.22.68.53,1.84.81,3.47.81,1.23,0,2.15-.26,2.76-.77.48-.41.7-.85.7-1.36,0-.86-1.1-1.54-3.29-2.02-3.27-.7-5.33-1.27-6.18-1.67-2.24-1.05-3.35-2.66-3.35-4.91,0-1.8.57-3.33,1.75-4.58,1.47-1.56,3.68-2.34,6.6-2.34,2.41,0,4.34.35,5.79,1.03.13.05.24.11.35.19,1.05.57,1.84,1.32,2.37,2.26.53.94.79,2.06.79,3.36Z"/>
      <path class="cls-1" d="M118.74,53.04c0-.11-.02-.2-.07-.28-.05-.09-.13-.15-.24-.18-.07-.02-.19-.04-.35-.06h-.84v1.03h.84c.24-.02.41-.05.5-.15.11-.09.17-.22.17-.37ZM119.18,52.49c.11.15.17.31.17.5,0,.26-.09.48-.28.66-.18.19-.42.3-.72.31.13.05.22.11.29.18l.51.68.4.68h-.66l-.31-.55c-.2-.35-.37-.61-.51-.74-.02-.02-.04-.04-.07-.06l-.44-.13h-.33v1.47h-.55v-3.46h1.19c.07,0,.15.02.2.02.29,0,.51.04.66.09.18.06.33.17.44.33Z"/>
      <path class="cls-1" d="M120.74,53.74c0-.48-.11-.92-.35-1.34-.24-.42-.57-.75-.99-.99-.42-.22-.86-.35-1.31-.35h-.02c-.44,0-.88.13-1.3.35-.42.24-.76.57-.99.99-.24.42-.37.86-.37,1.34s.13.9.37,1.32c.22.4.55.74.97.97.42.24.86.35,1.32.35h.02c.46,0,.9-.11,1.33-.35.42-.24.75-.57.97-.97.24-.42.35-.86.35-1.32ZM121.28,53.74c0,.53-.13,1.07-.42,1.58-.27.51-.66.9-1.18,1.18-.52.3-1.03.42-1.58.42h-.02c-.55,0-1.07-.13-1.58-.42-.52-.27-.9-.66-1.18-1.18-.29-.51-.42-1.05-.42-1.58,0-.57.13-1.1.42-1.62.29-.51.68-.9,1.2-1.18.52-.28,1.03-.4,1.56-.42h.02c.53,0,1.05.15,1.56.42.52.28.92.66,1.2,1.18.29.52.42,1.05.42,1.62Z"/>
      <polygon class="cls-1" points="90 27.76 105.1 52.92 90 52.92 80.84 52.92 66.43 28.88 55.51 10.7 66.43 4.14 73.31 0 90 27.76"/>
      <path class="cls-1" d="M100.96,70.38v10.32h-5.02v-1.14c-1.69,1.1-3.71,1.75-5.88,1.75h-.06c-5.99-.04-10.87-4.93-10.87-10.92s4.87-10.88,10.87-10.92h.06c2.17,0,4.19.64,5.88,1.75v-1.19h5.02v10.37ZM95.94,71.52v-2.28c-.53-2.76-2.98-4.86-5.88-4.86h-.06c-3.29.02-5.96,2.7-5.96,5.99s2.67,5.98,5.96,6.01h.06c2.91,0,5.35-2.11,5.88-4.87Z"/>
      <path class="cls-1" d="M77.39,70.38v10.32h-5.02v-1.14c-1.71,1.1-3.71,1.75-5.88,1.75h-.05c-5.99-.04-10.87-4.93-10.87-10.92s4.87-10.88,10.87-10.92h.05c2.17,0,4.17.64,5.88,1.75v-8.29h5.02v17.46ZM72.37,71.52v-2.28c-.53-2.76-2.98-4.86-5.88-4.86h-.05c-3.29.02-5.96,2.7-5.96,5.99s2.67,5.98,5.96,6.01h.05c2.9,0,5.35-2.11,5.88-4.87Z"/>
      <polygon class="cls-1" points="66.43 43.02 72.35 52.92 66.43 52.92 48.12 52.92 34.66 30.52 34.07 29.55 34.66 29.2 51.89 18.83 66.43 43.02"/>
      <rect class="cls-1" x="48.13" y="59.46" width="5.46" height="21.24"/>
      <rect class="cls-1" x="48.13" y="53.02" width="5.46" height="4.8"/>
      <path class="cls-1" d="M45.63,70.38v10.32h-5.02v-1.14c-1.71,1.1-3.73,1.75-5.9,1.75h-.05c-5.99-.04-10.87-4.93-10.87-10.92s4.87-10.88,10.87-10.92h.05c2.17,0,4.19.64,5.9,1.75v-8.29h5.02v17.46ZM40.61,71.52v-2.28c-.53-2.76-2.98-4.86-5.9-4.86h-.05c-3.29.02-5.96,2.7-5.96,5.99s2.66,5.98,5.96,6.01h.05c2.92,0,5.37-2.11,5.9-4.87Z"/>
      <polygon class="cls-1" points="34.66 44.64 39.62 52.92 34.66 52.92 15.37 52.92 12.65 48.37 30.47 37.67 34.66 44.64"/>
      <path class="cls-1" d="M21.82,70.38v10.32h-5.02v-1.14c-1.71,1.1-3.73,1.75-5.9,1.75h-.06c-5.97-.04-10.85-4.93-10.85-10.92s4.87-10.88,10.85-10.92h.06c2.17,0,4.19.64,5.9,1.75v-1.19h5.02v10.37ZM16.81,71.52v-2.28c-.53-2.76-2.98-4.86-5.9-4.86h-.06c-3.27.02-5.94,2.7-5.94,5.99s2.66,5.98,5.94,6.01h.06c2.92,0,5.37-2.11,5.9-4.87Z"/>
    </g>
  </g>
</svg>