<?xml version="1.0" encoding="UTF-8"?>
<svg id="Layer_2" data-name="Layer 2" xmlns="http://www.w3.org/2000/svg" viewBox="0 0 210.17 48.54">
  <defs>
    <style>
      .cls-1 {
        fill: #0097d5;
      }

      .cls-1, .cls-2, .cls-3, .cls-4, .cls-5 {
        fill-rule: evenodd;
      }

      .cls-2 {
        fill: #fff;
      }

      .cls-3 {
        fill: #2f9c5c;
      }

      .cls-4 {
        fill: #d9783e;
      }

      .cls-5 {
        fill: #cc2131;
      }
    </style>
  </defs>
  <g id="Layer_1-2" data-name="Layer 1">
    <g>
      <path class="cls-2" d="M53.95,31.57h4.86c1.9,0,2.62.65,2.62,2.26s-.72,2.2-2.62,2.2h-4.86v-4.46ZM46.41,47.79h7.54v-6.6h8.07c5.34,0,7.27-3.15,7.27-7.22,0-4.72-1.98-7.4-7.32-7.4h-15.55v21.21h0ZM71.77,26.58h20.28v5.17h-12.75v2.85h11.84v5.17h-11.84v2.85h12.75v5.17h-20.28v-21.21ZM102.74,31.57h4.86c1.9,0,2.62.65,2.62,2.26s-.72,2.2-2.62,2.2h-4.86v-4.46ZM95.21,47.79h7.54v-6.6h8.07c5.35,0,7.27-3.15,7.27-7.22,0-4.72-1.98-7.4-7.32-7.4h-15.55v21.21ZM125.38,38.79c-3.69-.62-5.21-3-5.21-5.97,0-5.5,4.84-6.98,11.04-6.98,8.5,0,12,2.47,12.27,6.95h-8.77c0-.86-.46-1.4-1.15-1.7-.67-.32-1.52-.44-2.35-.44-2.24,0-3.02.62-3.02,1.52,0,.59.24.98.99,1.1l9.01,1.49c3.8.62,6.15,2.59,6.15,6.18,0,5.17-3.8,7.61-12.27,7.61-5.8,0-12.13-.89-12.16-7.13h9.09c.03.71.27,1.19.8,1.51.56.3,1.39.45,2.57.45,2.35,0,2.99-.71,2.99-1.72,0-.62-.35-1.25-1.36-1.42l-8.61-1.43h0ZM146.78,26.58h7.54v21.21h-7.54v-21.21ZM182.24,39.53c-.48,2.79-1.34,5.05-3.21,6.6-1.84,1.55-4.73,2.41-9.33,2.41s-13.04-.36-13.04-11.35,8.47-11.35,13.04-11.35,11.54.65,12.53,9.06h-8.5c-.21-1.52-1.12-3.71-4.04-3.71-3.07,0-5.02,1.69-5.02,6s1.9,6,4.65,6c2.38,0,3.8-1.1,4.41-3.66h8.5s0,0,0,0ZM192.1,37.19c0-4.31,1.95-6,5.02-6s5.03,1.69,5.03,6-1.95,6-5.03,6c-3.07,0-5.02-1.69-5.02-6ZM184.09,37.19c0,10.99,8.47,11.35,13.04,11.35s13.04-.36,13.04-11.35-8.47-11.35-13.04-11.35c-4.57,0-13.04.36-13.04,11.35ZM35.02,26.79c.49-10.18-8.29-21.64-20.26-23.06l.02-.14c11.8,0,20.84,10.92,20.84,19.53-.01,1.79-.15,2.9-.41,3.71l-.2-.05ZM34.31,28.08c-.87,1.05-1.85,2-2.93,2.84-2.13-12.23-11.12-22.94-17.47-26.06l-.14.1c6.39,5.25,14.02,15.44,16.98,26.44-1.51,1.11-3.15,2.05-4.87,2.79-6.03-6.88-11.66-20.15-13.47-28.57l-.18.06c.04,8.17,5.84,22.05,12.92,28.82-1.62.64-3.31,1.11-5.03,1.39-6.78-2.69-11.61-11.29-11.61-20.11,0-5.76,1.75-9.32,2.09-10.04l-.14-.06c-.41.62-2.98,4.18-2.98,10.39,0,9.97,4.91,17.58,11.44,19.98-2.33.26-4.69.15-6.99-.33l-.05.15c.7.26,3.07,1.25,6.68,1.25,8.17,0,13.69-5.08,15.92-8.94l-.16-.11Z"/>
      <path class="cls-1" d="M17.73,0C11.54,0,4.28,4.47,4.28,8.56c0,1.58,1.45,2.92,4.44,2.92,6.95,0,13.4-4.77,13.4-8.48,0-1.95-1.88-2.99-4.38-2.99h0ZM20.2,2.87c0,3.13-6.01,6.95-11.03,6.95-2.22,0-3.42-.87-3.42-2.32,0-3.17,6.08-6.93,10.79-6.93,3.07,0,3.66,1.56,3.66,2.29h0Z"/>
      <path class="cls-4" d="M1.81,10.45c-.17.3-.87,1.67-.87,3.06,0,2.59,2.62,5,7.44,5,9.28,0,19.99-6.83,19.99-13.17,0-2.84-2.69-4.39-4.56-4.71l-.04.11c.58.18,2.71,1.17,2.71,3.71,0,5.05-9.46,11.93-18.89,11.93-3.61,0-5.88-1.78-5.88-4.38,0-.82.17-1.36.22-1.52l-.13-.05h0Z"/>
      <path class="cls-3" d="M32.19,5.83c.25.19,1.78,1.47,1.78,3.87,0,8.21-12.86,16.28-24.24,16.28C2.96,25.98-.13,22.64,0,19.66h.12c.27,1.54,2.47,4.31,8.4,4.31,11.39,0,24.1-8.35,24.1-15.67,0-1.26-.34-2.04-.53-2.39l.1-.09h0Z"/>
      <path class="cls-5" d="M36.49,13.49c.05.17.33.96.33,2.19,0,9.13-13.02,16.95-24.34,16.95-5.83,0-8.87-2.83-9.51-3.98l.1-.08c1.61,1.41,4.79,2.48,8.49,2.48,10,0,24.92-7.61,24.79-17.53l.14-.03h0Z"/>
    </g>
  </g>
</svg>