<?xml version="1.0" encoding="UTF-8"?>
<svg id="Layer_2" data-name="Layer 2" xmlns="http://www.w3.org/2000/svg" viewBox="0 0 76.06 93.42">
  <defs>
    <style>
      .cls-1 {
        fill: #fff;
      }
    </style>
  </defs>
  <g id="Layer_1-2" data-name="Layer 1">
    <path class="cls-1" d="M63.53,49.63c.13,14.14,12.4,18.84,12.54,18.9-.1.33-1.96,6.7-6.46,13.29-3.89,5.69-7.93,11.36-14.3,11.48-6.25.12-8.27-3.71-15.42-3.71s-9.38,3.59-15.3,3.82c-6.14.23-10.82-6.15-14.75-11.82C1.81,69.99-4.33,48.81,3.91,34.52c4.09-7.1,11.4-11.59,19.33-11.71,6.03-.11,11.73,4.06,15.42,4.06s10.61-5.02,17.88-4.28c3.05.13,11.6,1.23,17.09,9.27-.44.27-10.2,5.96-10.1,17.77M51.77,14.92c3.26-3.95,5.46-9.45,4.86-14.92-4.7.19-10.39,3.13-13.76,7.08-3.02,3.5-5.67,9.09-4.96,14.45,5.24.41,10.6-2.66,13.86-6.61"/>
  </g>
</svg>