<?xml version="1.0" encoding="UTF-8"?>
<svg id="Layer_2" data-name="Layer 2" xmlns="http://www.w3.org/2000/svg" viewBox="0 0 122.97 122.97">
  <defs>
    <style>
      .cls-1 {
        fill: #c23c40;
      }

      .cls-1, .cls-2, .cls-3 {
        fill-rule: evenodd;
      }

      .cls-2 {
        fill: #fff;
      }

      .cls-3 {
        fill: #0077a6;
      }
    </style>
  </defs>
  <g id="Layer_1-2" data-name="Layer 1">
    <g>
      <path class="cls-2" d="M121.52,65.5c1.94-1.94,1.94-5.08,0-7.02h0S64.49,1.45,64.49,1.45c-1.94-1.94-5.08-1.94-7.02,0,0,0,0,0,0,0L1.45,57.47c-1.94,1.94-1.94,5.08,0,7.01,0,0,0,0,0,0l57.03,57.03c1.94,1.94,5.08,1.94,7.01,0,0,0,0,0,0,0l56.02-56.02h0Z"/>
      <path class="cls-1" d="M60.23,60.52l-27.29,27.29c-1.45,1.45-3.81,1.45-5.26,0L3.73,63.85c-1.45-1.45-1.45-3.81,0-5.26l27.29-27.29,29.21,29.22h0ZM32.77,29.55L58.23,4.09c1.45-1.45,3.81-1.45,5.26,0,0,0,0,0,0,0l23.95,23.95c1.45,1.45,1.45,3.81,0,5.26l-25.45,25.45-29.21-29.21Z"/>
      <path class="cls-3" d="M119.24,65.12c1.45-1.45,1.45-3.81,0-5.26,0,0,0,0,0,0l-24.75-24.75c-1.45-1.45-3.81-1.45-5.26,0,0,0,0,0,0,0l-54.53,54.53c-1.45,1.45-1.45,3.81,0,5.26,0,0,0,0,0,0l24.75,24.75c1.45,1.45,3.81,1.45,5.26,0l54.53-54.53h0Z"/>
      <path class="cls-2" d="M38.49,93.34l2.9-2.9c2.63-2.63,6.09-3.2,9.69.39,2.91,2.91,3.11,6.4.82,8.7l-3.61,3.61-9.8-9.8h0ZM48.2,97.35l.18-.18c.95-.95,1.13-2.22-.16-3.51-1.38-1.38-2.6-1.33-3.64-.29l-.18.18,3.79,3.79ZM59.7,84.99c2.29,2.29,1.9,5.14.17,6.87-1.73,1.73-4.58,2.11-6.87-.17-2.42-2.42-2.16-5.22-.34-7.04,1.82-1.82,4.62-2.07,7.04.34ZM55.56,89.03c.55.55,1.28.62,1.7.2.42-.42.35-1.15-.2-1.7-.56-.56-1.31-.71-1.76-.26-.45.45-.29,1.2.27,1.76ZM60.79,79.27l.08-.08c-.63-1.06-.48-2.27.22-2.98.79-.79,1.87-.81,3.05-.11l.06-.06c-.65-1.27-.65-2.29.21-3.14,1.32-1.32,3.18-.63,4.67.86l4.29,4.29-2.6,2.6-3.42-3.42c-.4-.4-.92-.92-1.32-.53-.39.38.13.9.54,1.31l3.42,3.42-2.6,2.6-3.42-3.42c-.4-.4-.92-.92-1.32-.53-.38.38.14.9.54,1.31l3.42,3.42-2.6,2.6-6.9-6.9,2.54-2.54,1.14,1.3h0ZM67.74,69.88l2.68-2.68,6.9,6.9-2.68,2.68-6.9-6.9ZM68.43,64.93c1.13,1.13.92,2.33.15,3.1-.77.77-1.97.98-3.1-.15-1-1-.98-2.24-.14-3.09s2.09-.87,3.09.14ZM75.26,64.57l.06-.06c-.23-1.27-.34-2.17.52-3.04,1.37-1.37,3.2-.63,4.72.89l4.25,4.25-2.68,2.68-3.37-3.36c-.4-.4-.97-.98-1.43-.52-.45.45.13,1.02.53,1.42l3.36,3.37-2.68,2.68-6.9-6.9,2.62-2.62,1,1.21h0ZM89.01,55.67c2.29,2.29,1.9,5.14.17,6.87s-4.58,2.11-6.87-.17c-2.42-2.42-2.16-5.22-.34-7.04,1.82-1.82,4.62-2.07,7.04.34ZM84.87,59.72c.55.55,1.28.62,1.7.2s.35-1.15-.2-1.7c-.56-.56-1.32-.71-1.76-.27-.45.45-.3,1.2.26,1.76h0ZM87.62,52.63l-3.72-5.94,2.69-2.69,2.89,6.77-1.86,1.86h0ZM93.46,52.58l.3-.04c.66-.09,1.55-.28,2.01-.74.18-.18.28-.51.02-.77-.38-.38-.71-.07-.97.11-1.05.74-2.34,1.12-3.63-.18-1.73-1.73-1.02-3.81.16-4.99.69-.69,1.71-1.37,2.73-1.56l1.25,2.56c-.65.03-1.37.23-1.81.67-.17.17-.32.45-.07.7.34.34.65.07,1.11-.22,1.15-.76,2.35-1.13,3.74.26,1.79,1.79,1.11,3.96-.14,5.21-.87.87-2.06,1.39-3.29,1.76l-1.39-2.76h0ZM51.85,106.43l3.61-3.61c1.83-1.83,4.35-2.01,6.78.42,2,2,2.25,4.25.66,5.84l-1.45,1.46,2.95,2.95-2.74,2.74-9.8-9.8ZM58.97,108.06l.28-.28c.5-.5.94-1.14.14-1.94-.77-.77-1.39-.22-1.86.24l-.27.27,1.7,1.7h0ZM62.58,101.5l2.68-2.68,6.9,6.9-2.68,2.68-6.9-6.9ZM63.26,96.55c1.13,1.13.92,2.33.15,3.1-.77.77-1.97.98-3.1-.15-1-1-.98-2.24-.14-3.09.84-.84,2.09-.87,3.09.14h0ZM73.86,97.07l.3,1.44.08.08.47-.63,1.53-1.53,2.6,2.6-5.82,5.82-.47-.47-1.46-4.72-.23-1.33-.05-.05-.52.7-1.3,1.3-2.6-2.6,5.69-5.69.39.39,1.4,4.68ZM80.15,90.78l.3,1.44.08.08.47-.63,1.53-1.53,2.6,2.6-5.82,5.82-.47-.47-1.46-4.72-.23-1.33-.05-.05-.52.7-1.3,1.3-2.6-2.6,5.69-5.69.39.39,1.4,4.68h0ZM89.13,86.92l-.06.06c.16,1.14.14,1.99-.62,2.75-1.5,1.5-4.23.43-5.9-1.24-1.74-1.74-2.8-4.48-1.24-6.04.67-.67,1.51-.92,2.59-.64l.06-.06-.9-.74,2.63-2.63,6.9,6.9-2.63,2.63-.83-.99h0ZM86.86,86.08c.51-.51.21-1.22-.32-1.76s-1.21-.63-1.64-.21-.26,1.14.25,1.64c.55.55,1.22.81,1.71.32Z"/>
      <path class="cls-2" d="M73.4,116.07c1.47,0,2.77,1.05,2.77,2.69s-1.31,2.71-2.77,2.71-2.77-1.06-2.77-2.71,1.31-2.69,2.77-2.69ZM73.4,120.89c1.12,0,2.03-.89,2.03-2.13s-.92-2.12-2.03-2.12-2.04.89-2.04,2.12.9,2.13,2.04,2.13ZM72.32,117.25h1.14c.76,0,1.18.24,1.18.89,0,.56-.35.77-.8.81l.81,1.32h-.63l-.74-1.29h-.38v1.29h-.6v-3.02h0ZM72.92,118.51h.53c.34,0,.59-.05.59-.42,0-.33-.35-.38-.62-.38h-.51v.79h0Z"/>
      <path class="cls-2" d="M25.1,67.05c2.72-2.72,2.72-7.13,0-9.84-2.72-2.72-7.13-2.72-9.84,0-2.72,2.72-2.72,7.13,0,9.84,2.72,2.72,7.13,2.72,9.84,0ZM46.01,67.05c2.72-2.72,2.72-7.13,0-9.84-2.72-2.72-7.13-2.72-9.84,0-2.72,2.72-2.72,7.13,0,9.84,2.72,2.72,7.13,2.72,9.84,0ZM66.26,35.19c2.72-2.72,2.72-7.13,0-9.84-2.72-2.72-7.13-2.72-9.84,0-2.72,2.72-2.72,7.13,0,9.84,2.72,2.72,7.13,2.72,9.84,0Z"/>
    </g>
  </g>
</svg>