<?xml version="1.0" encoding="UTF-8"?>
<svg id="Layer_2" data-name="Layer 2" xmlns="http://www.w3.org/2000/svg" viewBox="0 0 125.4 76.28">
  <defs>
    <style>
      .cls-1 {
        fill: #ee2424;
        fill-rule: evenodd;
      }
    </style>
  </defs>
  <g id="Layer_1-2" data-name="Layer 1">
    <path class="cls-1" d="M11.14,61.6l-3.39,9.85-3.47-9.85H0l5.29,14.4h4.7l5.32-14.4h-4.17ZM37.03,68.81c0-2.15,1.74-3.89,3.89-3.89s3.89,1.74,3.89,3.89c0,2.15-1.74,3.89-3.89,3.89h0c-2.15,0-3.89-1.74-3.89-3.89ZM44.65,55.73v7.07s-.01,0-.02-.01c-1.18-.87-2.63-1.42-4.19-1.42-3.98,0-7.21,3.32-7.21,7.43s3.23,7.42,7.21,7.42c1.57,0,3.03-.52,4.21-1.4v1.2h3.7v-20.29h-3.7ZM54.63,68.81c.04-2.15,1.81-3.86,3.96-3.82,2.09.04,3.78,1.73,3.82,3.82,0,2.15-1.74,3.89-3.89,3.89-2.15,0-3.89-1.74-3.89-3.89ZM62.25,61.61v1.18h-.02c-1.18-.89-2.63-1.43-4.19-1.43-3.98,0-7.21,3.32-7.21,7.43s3.23,7.42,7.21,7.42c1.57,0,3.03-.52,4.21-1.4v1.2h3.7v-14.4h-3.7s0,0,0,0ZM76.03,61.61h-2.22s0-.46,0-.87c0-.91,0-2.07,1.45-2.07.37,0,.73.06.73.06v-3.35s-.61-.02-1.02,0c-3.4.13-4.9,1.29-4.9,4.69v1.54h-1.66v3.32h1.66v11.06h3.74v-11.06h2.22v-3.32h0ZM98.43,62.87c1.05-.96,2.59-1.55,4.23-1.55,3.39,0,5.33,2.16,5.34,5.01v1.61s0,8.06,0,8.06h-3.82v-8.4c0-2.12-1.47-2.76-2.64-2.76-1.07,0-3.13.59-3.01,3.17v7.99h-3.83v-14.38h3.72v1.25h0ZM114.46,69.93c.18,1.81,1.69,3.13,3.55,3.13,1.46,0,2.43-.58,3-1.63h4c-.64,2.24-3.16,4.78-6.87,4.78-4.47,0-7.62-3.33-7.62-7.43s3.38-7.43,7.62-7.43,7.26,3.62,7.26,7.43c0,.79-.09,1.15-.09,1.15h-10.85ZM121.36,67.15c-.32-1.63-1.69-2.57-3.36-2.57s-3.06,1-3.45,2.56h6.8s0,.01,0,.01ZM26.23,61.82c-1.4.31-2.39,1.54-2.4,2.97,0,.03,0,.07,0,.1,2.16.46,3.25,1.92,3.25,3.84,0,2.16-1.77,3.91-3.93,3.91s-4.18-1.8-4.18-4.47c0-3.26,2.8-6.32,6.78-6.42.07,0,.18,0,.3,0-.9-.34-1.86-.52-2.83-.52-4.27,0-7.74,3.35-7.74,7.49s3.47,7.49,7.74,7.49,7.74-3.35,7.74-7.49c0-3.11-1.96-5.78-4.76-6.91h0ZM84.61,61.3c-4.28,0-7.74,3.35-7.74,7.49,0,3.11,1.96,5.78,4.76,6.91,1.4-.31,2.39-1.54,2.4-2.97,0-.03,0-.07,0-.1-2.16-.46-3.25-1.92-3.25-3.84,0-2.16,1.77-3.91,3.93-3.91s4.18,1.8,4.18,4.47c0,3.26-2.8,6.32-6.78,6.42-.1,0-.2,0-.3,0,.87.33,1.83.52,2.83.52,4.27,0,7.74-3.35,7.74-7.49,0-4.14-3.46-7.49-7.74-7.49h0ZM72.05,1.85c-4.35.96-7.63,4.86-7.63,9.53,0,.1.02.22.03.32,6.88,1.47,10.35,6.15,10.35,12.31,0,6.92-5.62,12.54-12.49,12.54s-13.29-5.78-13.29-14.34c0-10.46,8.9-20.26,21.57-20.58.23,0,.59,0,.96.02C68.68.56,65.63,0,62.56,0,48.95,0,37.93,10.75,37.93,24.01s11.03,24.01,24.63,24.01,24.63-10.75,24.63-24.01c0-9.98-6.25-18.54-15.13-22.16h0Z"/>
  </g>
</svg>