<?xml version="1.0" encoding="UTF-8"?>
<svg id="Layer_2" data-name="Layer 2" xmlns="http://www.w3.org/2000/svg" viewBox="0 0 144.02 86.57">
  <defs>
    <style>
      .cls-1 {
        fill: lime;
      }
    </style>
  </defs>
  <g id="Layer_1-2" data-name="Layer 1">
    <g>
      <g>
        <path class="cls-1" d="M78.62,48.71c0,.1.03.07-.07.07,0-.24-.03,0,.07-.07ZM91.07,0h.17c.38.03.66.31.73.66.1.49-.03.17.21.56.21.31.17.8-.14,1.08-.38.35-.91,0-1.85.42-.28.14-.17.17-.35.38-.14.17-.24.21-.42.35-.31.21-.42.52-.73.73-.14.1-.31.17-.45.28-.63.42-.77.52-1.68.52.07.31.42.77.56,1.36.42,2.03-1.99,3.74-4.06,1.82-.31-.31-.59-.7-.91-1.01-1.26-1.19-1.96-.21-1.61.87.14.49.42.87.66,1.26s.52.73.8,1.12l3.71,3.99c.17.17.28.31.45.52.45.49.91,1.05,1.29,1.61.14.21.24.35.38.56,1.01,1.64,1.61,3.25.98,5.21-1.01,3.29-4.62,4.96-7.94,3.85-.17-.07-.59-.24-.7-.21l-1.33.59c-1.54.56-3.39.77-5,.31-.49-.14-1.08-.45-1.33-.52-.24.42-.7.77-1.12,1.01-1.92,1.22-3.5,1.05-4.76,1.64.7,1.33,2.62,1.64,3.74.77.42-.35.45-.98,1.01-1.08,1.61-.28,1.26,2.41-.77,3.46-1.4.7-3.08.63-4.44-.14-.91-.49-1.33-1.08-1.54-1.26-.21.45-.28,1.26-.1,1.82.66,2.06,4.02,1.36,5.66,1.05,1.78-.35,3.5-.87,5.28-1.12.94-.14,2.13-.21,3.04-.1,1.64.21,3.25.91,4.02,2.41.59,1.15.63,2.27.24,3.5-.38,1.12-1.05,1.75-2.03,2.24.24.35.42.45.56.94.28.84-.03,1.61.07,1.96.1.24.14.28.17.59.07.52-.42,1.75-.73,2.13-.21.24-.14.14-.28.49-.17.42-.42.49-.45.98-.03.17-.1.45-.07.63.07.38.35.7.07,1.15-.1.21-.31.38-.59.42h-.21c-.07,0-.14-.03-.21-.07-.38-.17-.07-.14-.52-.07-.17.03-.38-.03-.52-.14-.28-.17-.49-.59-.28-1.05s.35-.49.45-1.01c.03-.31.1-.38,0-.59s-.17-.31-.17-.56c-.03-.42,0-.28-.14-.63s-.14-.84-.17-1.15c-.03-.24-.03-.49,0-.73.03-.45.28-.66.49-.98-.49.1-1.15-.03-1.57-.17s-.84-.45-1.05-.8c-.59-.84-.49-2.06.14-2.73,1.26-1.33,3.6-.91,3.78-1.78.14-.66-.28-.94-.7-1.12-1.47-.56-5.03.42-6.33.73-2.41.59-3.92.98-6.4.98-4.23,0-6.96-4.48-4.96-8.53.38-.8,1.01-1.5,1.61-2.06.17-.14.42-.24.45-.49.14-.91-.03-1.05.35-2.38.28-.98.63-1.78,1.15-2.52.21-.31.56-.77.84-1.01.24-.21.77-.7,1.05-.77,0-.24-.14-.56-.17-.84-.28-1.4.07-2.9.49-4.16.1-.35.28-1.29.38-1.54-.56,0-.73.07-1.15.24-.31.17-.59.35-.8.59-1.36,1.68-.21,2.69-.17,3.08.07.42-.24.77-.49.87-.7.31-1.47-.59-1.71-.94-.38-.63-.56-1.29-.42-2.24.21-1.5.98-2.59,2.17-3.39.38-.24,1.4-.77,1.96-.77-.1-.42-.91-.84-1.29-.98-.7-.24-1.4.03-1.78.35-.8.66-1.36,1.71-1.75,2.8-.8,2.24-1.36,4.65-2.31,6.85-.35.84-.73,1.5-1.26,2.2-.49.66-1.08,1.19-1.78,1.61-2.27,1.33-5.17.1-6.01-1.96-.28-.7-.31-.98-.31-1.92-.77.38-1.75-.1-2.31-.56-.77-.63-1.08-.07-1.89-1.19-.1-.17-.24-.24-.38-.42-.21-.28-.31-.73-.56-1.01-.42-.45-.03-.42-.63-.91-.8-.63-1.15-.24-1.5-.8-.24-.45-.1-.8.21-1.08.1-.07.07-.03.14-.07.24-.21.17-.56.59-.77.94-.42,1.08.7,1.5,1.05.24.21.38.38.73.42.49.03.63.24,1.22.35.38.07,1.26.52,1.57.73.35.24.42.45.63.84.28-.21.77-1.68,2.2-1.71,1.26-.03,1.99.59,2.31,1.54.59,1.68-1.47,4.06.1,4.37,1.82.38,3.36-6.01,3.81-7.69.14-.45.31-.98.49-1.43.91-2.73,2.55-5.63,5.8-5.77.24,0,.28-.03.42-.03l1.26.17c2.48.63,4.09,2.45,4.72,4.9.14.52,0,.7.49.98.7.42,1.26.98,1.82,1.54.49.49.84,1.08,1.19,1.68.52.84.84,1.96.87,2.97.63.14,1.12.31,1.68.63.98.52,1.68,1.33,2.45,2.1.24.24.84.98,1.15,1.08.03-.17.14-.28.21-.49.42-1.22-.24-2.62-1.4-3.11-.52-.21-.77-.03-1.12-.14-.98-.31-.84-1.68.94-1.85,2.13-.21,3.88,1.99,4.16,4.02.07.63,0,1.29-.14,1.85-.03.17-.1.35-.1.52.56,0,1.33-.45,1.57-.77,1.43-1.71-.73-4.06-1.82-5.35l-1.12-1.19c-.63-.63-1.85-1.99-2.45-2.73-.1-.1-.14-.17-.24-.28-1.15-1.5-2.87-4.23-1.61-6.75.8-1.61,2.59-2.59,4.44-2.34,1.08.14,1.22.52,1.64.63.17-.77.73-1.26,1.4-1.61.91-.45.24.1.91-.56.31-.31.45-.42.94-.52.21-.03.45-.07.63-.1.45-.07,1.64-.07,2.03-.03.24.03.42-.07.59-.14.84-.45.84-.94,1.33-.98h0ZM79.36,48.81c.03.07.07.03,0,.14l-.07-.14-.24-.49c-.28.14-.21.24-.45.38.24-.7.35-.14.52-1.96-.14-.17-.28-.21-.31-.52-.07-.7-.28-.84-.28-1.43,0-.31-.07-.45-.03-.73.03-.56.49-.7.59-1.12.38-1.64-2.55-.03-3.08-1.92-.59-2.2,2.76-1.85,3.81-2.76.73-.59.52-1.78-.07-2.34-1.19-1.08-4.13-.52-5.66-.17-3.25.73-8.29,2.59-11.01.38-1.08-.87-2.17-2.59-1.78-4.83.24-1.5,1.43-3.25,2.73-3.95-.1-1.64.28-3.04.94-4.3.56-1.05,1.54-2.24,2.73-2.55-.07-.24-.28-.45-.38-.8-.35-.94-.24-2.06-.03-2.97.28-1.26.84-2.34.84-3.71-.24-.35-1.71-.1-2.06.03-.63.24-1.08.63-1.4,1.01-.35.45-.63.94-.73,1.64-.14.98.1,1.19.38,1.96-.24-.1-.56-.49-.7-.73-1.01-1.92.77-5.17,4.34-5.17,0-.94-1.43-2.27-2.59-2.48-1.71-.35-2.69.91-3.29,1.75-2.17,3.08-2.62,12.76-7.73,12.69-1.54-.03-2.62-1.01-3.08-2.03-.31-.7-.31-1.36-.14-2.17.21-.94.7-1.57.42-1.82-.24.03-.31.24-.42.45-.28.59-.7,1.12-1.47,1.22-.59.07-.98-.21-1.29-.45-.17-.14-.28-.31-.52-.38-.52-.17-.87-.03-1.19-.59-.17-.28-.24-.28-.42-.49-.14-.17-.17-.38-.28-.63-.14-.24-.24-.31-.35-.49-.24-.38.1-.35-.28-.63-.7-.52-.8-.77-1.71-.94l.7-.03-.1-.7c.17.49.38.7.8,1.01,1.05.87.56.31,1.19.49.24.07.35.21.7.28.31.07.49.03.73.21l.59.31c.7.35.56,1.43,1.36,1.4.49,0,.63-.59.87-.98.49-.77,1.29-1.4,2.38-.66.91.63.35,1.99.1,2.87-.38,1.26-.31,2.1.7,2.59,1.85.87,3.18-2.1,3.71-3.43,1.26-3.43,2.03-8.57,4.44-10.38,1.61-1.19,3.85-1.36,5.66-.21.77.49,1.33,1.08,1.78,1.89.84,1.47.63,2.69.98,2.9.56.38.8.38,1.5,1.01,1.54,1.36,2.73,3.22,2.45,5.59,1.68-.1,2.8.87,3.6,1.61.28.24.42.45.63.7.91.94.98,1.01,2.03,1.78.35-.24.77-.98.91-1.57.35-1.33-.24-2.69-1.26-3.5-.66-.52-1.08-.49-1.85-.59,1.75-1.05,4.27,1.22,4.02,3.95-.07.98-.35,1.4-.7,2.13.94.52,2.97-.24,3.67-1.29.8-1.22.28-2.83-.38-3.92-.42-.66-.91-1.33-1.4-1.85l-2.76-3.01c-1.01-1.01-2.06-2.38-2.69-3.78-1.54-3.46,1.01-6.12,3.74-5.49,1.61.38,2.34,2.03,2.66,2.17.66.28-.17-.94-.24-1.15-.35-.94,0-1.78.94-2.17.8-.31.42,0,1.01-.66.31-.35.73-.35,1.26-.45.35-.07.49,0,.8.03.28.03.49-.1.73-.07.35.03.21.21.63.07.31-.14.94-.31,1.19-.52.17-.14.21-.28.38-.42-.07.21-.21.35-.28.52.14.1.42.14.63.17-.56.1-.52-.1-1.19.17-.31.14-.66.21-.91.38-.1.31-.07.38-.35.56-.38.24-.56.66-.94.87-.1.07-.21.07-.28.14-.14.07-.14.1-.24.21-.56.45-.94.03-1.5.21-.49.14-.63.63-.35,1.08.49.77.98,1.75.21,2.55-.84.87-1.89.28-2.45-.31-.42-.49-1.15-1.4-1.96-1.64-1.01-.28-1.92.63-1.92,1.57,0,1.57,1.57,3.5,2.59,4.51.14.14.28.31.42.49s.31.28.45.45c.59.63,1.68,1.68,2.17,2.31l.8.94c.94,1.12,1.96,2.55,2.13,4.09.28,2.34-1.12,3.99-2.38,4.76s-2.9.94-4.41.56c-.45-.1-.94-.38-1.33-.45-.28.14-.45.31-.8.49-.28.14-.63.28-.91.38-1.68.56-3.71.66-5.31-.17-.28-.14-.52-.35-.77-.49-.66,1.78-3.11,2.24-4.83,2.69-.91.24-1.36.52-1.85.66.07.35.21.66.38.94.52.84,1.15,1.36,2.27,1.54,1.43.24,2.69-.31,3.36-1.54.14,1.75-2.17,2.45-3.57,2.27-1.61-.21-2.59-1.19-3.39-2.45-.73.7-1.33,2.24-.84,3.6,1.36,3.6,8.29.98,11.08.49,3.01-.52,5.94-.35,7.03,2.03.56,1.26.17,2.97-.59,3.71-1.57,1.47-3.11.91-3.36,1.4.14.35.66.14,1.08.17,1.22.1,1.75,1.01,1.43,2.34-.1.45.21.63.21,1.08,0,.31-.21.7-.31,1.05-.14.42-.35.49-.52.8-.28.59,0,.38-.56.77-.03.38-.1.7-.14,1.08.07.42.21.42.28.87Z"/>
        <path class="cls-1" d="M66.91,25.21c.1-.42.56-.87.77-1.15.17-.21.14-.14.31-.31.35-.31.73-.59,1.22-.7.24-.03.31.03.45.14,0,.73-.52,1.01-1.12,1.29-.28.17-1.33.7-1.64.73ZM65.51,26.61c.73-.21,2.73-.98,3.39-1.36.56-.31.98-.59,1.33-1.01,1.26-1.54-.87-3.11-3.11-.73-.66.7-1.43,1.78-1.61,3.11ZM70.86,19.13h-.17c-.66,0-.45-2.17-.42-2.55.03-.28.1-.59.1-.91l.03.07c.03.07.03.03.07.1.8,1.15.98,3.29.38,3.29ZM69.88,13.85c-.17,1.5-1.01,4.27-.07,5.63.31.45.91.7,1.5.35,1.26-.8.59-3.46-.35-4.86-.24-.31-.84-1.08-1.08-1.12ZM73.69,22.31c0-.98,1.82.14,1.99.28l1.26.94c-.8,0-1.36-.07-1.96-.28-.28-.07-1.29-.52-1.29-.94ZM78.8,24.06l-1.22-1.05c-4.2-3.64-5.45-1.12-4.2.17,1.43,1.47,3.6,1.29,5.42.87Z"/>
        <path d="M65.51,26.61c.17-1.33.94-2.41,1.61-3.11,2.24-2.38,4.37-.77,3.11.73-.35.42-.77.73-1.33,1.01-.66.38-2.66,1.15-3.39,1.36ZM78.8,24.06c-1.78.42-3.95.63-5.42-.87-1.29-1.29,0-3.85,4.2-.17l1.22,1.05ZM69.88,13.85c.24.03.84.8,1.08,1.12.94,1.36,1.61,4.02.35,4.86-.59.38-1.19.14-1.5-.35-.94-1.36-.1-4.13.07-5.63ZM78.62,48.71c.24-.1.17-.24.45-.38l.24.49h.07c-.07-.45-.21-.45-.14-.98.07-.38.1-.7.14-1.08.56-.38.28-.21.56-.77.17-.35.38-.38.52-.8.1-.31.31-.73.31-1.05-.03-.42-.35-.63-.21-1.08.31-1.33-.21-2.2-1.43-2.34-.42-.03-.98.14-1.08-.17.24-.49,1.75.07,3.36-1.4.8-.73,1.15-2.45.59-3.71-1.08-2.38-4.02-2.55-7.03-2.03-2.8.49-9.72,3.15-11.08-.49-.52-1.36.07-2.9.84-3.6.8,1.26,1.78,2.24,3.39,2.45,1.36.17,3.67-.52,3.57-2.27-.66,1.22-1.92,1.78-3.36,1.54-1.08-.17-1.71-.7-2.27-1.54-.17-.28-.31-.59-.38-.94.49-.14.94-.45,1.85-.66,1.71-.42,4.16-.91,4.83-2.69.28.1.49.31.77.49,1.61.8,3.64.73,5.31.17.31-.1.63-.24.91-.38.35-.17.52-.31.8-.49.35.07.84.35,1.33.45,1.5.38,3.15.21,4.41-.56s2.66-2.41,2.38-4.76c-.17-1.54-1.19-2.94-2.13-4.09l-.8-.94c-.52-.63-1.57-1.68-2.17-2.31-.14-.17-.31-.28-.45-.45s-.28-.35-.42-.49c-1.01-1.01-2.62-2.9-2.59-4.51,0-.94.91-1.85,1.92-1.57.8.21,1.5,1.15,1.96,1.64.56.59,1.61,1.19,2.45.31.77-.8.28-1.78-.21-2.55-.31-.45-.14-.94.35-1.08.56-.17.94.24,1.5-.21.1-.07.1-.1.24-.21.1-.07.17-.07.28-.14.38-.21.56-.63.94-.87.28-.17.24-.21.35-.56.24-.17.59-.24.91-.38.63-.24.59-.07,1.19-.17-.21-.03-.49-.07-.63-.17.07-.21.21-.31.28-.52-.21.14-.24.24-.38.42-.24.21-.87.38-1.19.52-.38.17-.28-.03-.63-.07-.24-.03-.42.1-.73.07s-.45-.1-.8-.03c-.52.1-.94.1-1.26.45-.59.63-.17.31-1.01.66-.94.38-1.29,1.22-.94,2.17.07.21.91,1.4.24,1.15-.31-.14-1.05-1.78-2.66-2.17-2.73-.63-5.24,2.03-3.74,5.49.63,1.4,1.68,2.76,2.69,3.78l2.76,3.01c.49.52,1.01,1.19,1.4,1.85.66,1.08,1.19,2.69.38,3.92-.7,1.05-2.73,1.82-3.67,1.29.31-.73.59-1.15.7-2.13.24-2.73-2.27-5-4.02-3.95.77.1,1.19.07,1.85.59,1.01.8,1.57,2.17,1.26,3.5-.14.59-.56,1.33-.91,1.57-1.05-.8-1.12-.84-2.03-1.78-.24-.24-.38-.45-.63-.7-.8-.73-1.92-1.71-3.6-1.61.28-2.34-.91-4.2-2.45-5.59-.7-.63-.91-.63-1.5-1.01-.35-.21-.14-1.47-.98-2.9-.45-.8-1.05-1.4-1.78-1.89-1.82-1.19-4.06-1.01-5.66.21-2.45,1.82-3.18,6.96-4.44,10.38-.7,1.4-2.03,4.37-3.88,3.46-1.01-.49-1.08-1.33-.7-2.59.28-.87.8-2.24-.1-2.87-1.08-.77-1.89-.1-2.38.66-.24.38-.38.98-.87.98-.8.03-.66-1.05-1.36-1.4l-.59-.31c-.24-.14-.42-.14-.73-.21-.35-.07-.45-.21-.7-.28-.63-.14-.14.38-1.19-.49-.38-.31-.59-.56-.8-1.01l.17.66-.7.03c.91.17,1.01.38,1.71.94.35.28.03.24.28.63.1.17.24.24.35.49s.14.45.28.63c.14.21.24.21.42.49.31.52.66.42,1.19.59.24.07.35.28.52.38.31.24.73.52,1.29.45.77-.07,1.15-.59,1.47-1.22.1-.21.17-.42.42-.45.28.24-.21.91-.42,1.82-.17.77-.17,1.47.14,2.17.45,1.01,1.57,1.99,3.08,2.03,5.07.14,5.52-9.55,7.69-12.62.59-.84,1.61-2.1,3.29-1.75,1.12.24,2.55,1.54,2.59,2.48-3.57,0-5.35,3.25-4.34,5.17.14.24.45.63.7.73-.28-.77-.56-.98-.38-1.96.1-.73.38-1.19.73-1.64.31-.38.77-.77,1.4-1.01.35-.14,1.82-.38,2.06-.03,0,1.36-.56,2.45-.84,3.71-.21.94-.31,2.06.03,2.97.1.31.31.56.38.8-1.19.31-2.17,1.5-2.73,2.55-.66,1.26-1.05,2.66-.94,4.3-1.29.7-2.45,2.45-2.73,3.95-.38,2.24.66,3.95,1.78,4.83,2.73,2.2,7.76.35,11.01-.38,1.54-.35,4.48-.91,5.66.17.63.56.8,1.71.07,2.34-1.08.87-4.41.56-3.81,2.76.52,1.92,3.46.31,3.08,1.92-.1.42-.56.56-.59,1.12-.03.28.03.45.03.73,0,.59.21.73.28,1.43.03.31.14.35.31.52-.17,1.85-.28,1.29-.52,1.99h0Z"/>
      </g>
      <g>
        <path class="cls-1" d="M140.56,75.95c2.03-.84,3.46-2.97,3.46-5.17v-1.43c0-3.11-2.55-5.66-5.66-5.66h-10.24c-.1-.03-.17,0-.17.14v22.59c0,.14.03.17.17.17h2.41v-10.14h4.58c.17,0,.66.91.8,1.19l2.94,5.1c.28.42.49.84.73,1.29l1.5,2.55h2.94c-.94-1.78-2.31-3.92-3.25-5.66-.28-.56-2.52-4.27-2.55-4.48.35,0,.91-.07,1.26-.14.42-.07.77-.21,1.08-.35ZM137.94,73.85h-7.41v-7.66h7.73c1.82,0,3.22,1.4,3.22,3.11,0,1.54.17,2.62-1.01,3.74-.63.52-1.36.8-2.52.8Z"/>
        <path class="cls-1" d="M13.43,75.46c.77-.52,1.57-1.36,1.99-2.17.77-1.47.59-2.73.59-4.37,0-1.05-.49-2.2-1.08-2.97-1.05-1.43-2.66-2.31-4.51-2.31H0v22.9h2.55v-10.14h4.58c.17,0,.24.24.42.56.14.24.24.38.38.63.56,1.01,1.29,2.17,1.82,3.18l3.32,5.77h2.94c-.07-.31-1.19-2.1-1.43-2.52l-1.82-3.15c-.77-1.36-1.89-3.15-2.59-4.48.8,0,1.75-.17,2.34-.45.35-.14.63-.28.91-.49ZM11.4,73.64c-.42.14-.91.21-1.43.21H2.55v-7.66h7.8c1.68,0,3.11,1.4,3.11,2.87s.21,3.01-1.05,3.99c-.35.28-.56.42-1.01.59Z"/>
        <path class="cls-1" d="M69.13,82.76c.24-.45.49-.84.73-1.29,1.19-1.99,2.45-4.34,3.64-6.33l4.41-7.62c.21-.35,2.1-3.57,2.17-3.85h-16.08v2.52h11.75l-4.41,7.62c-1.47,2.48-2.94,5.21-4.41,7.62-.24.42-.49.8-.73,1.26-.24.45-.49.84-.73,1.29l-1.47,2.59h14.69c.17-.31,1.4-2.31,1.43-2.55h-11.71l.73-1.26Z"/>
        <path class="cls-1" d="M40.07,63.99q-.03-.1-.07-.17t-.1-.17l-6.92,17.17c-.38.94-.77,1.89-1.15,2.83-.17.45-.38.98-.59,1.43l-.52,1.47h2.76c.07-.28.28-.7.38-1.01l1.22-3.01c.52-1.33,1.08-2.66,1.64-4.02l3.22-8.04c.21.24,5.49,13.5,6.12,15.03.14.31.31.73.38,1.05h2.76l-8.99-22.2c-.03-.1-.07-.21-.14-.35Z"/>
        <path class="cls-1" d="M112.03,63.64h-16.01l-.03,2.55h14.65c.07-.38,1.36-2.2,1.4-2.55Z"/>
        <path class="cls-1" d="M95.98,86.54h14.65c.03-.21,1.22-2.17,1.43-2.55h-16.08v2.55Z"/>
        <path class="cls-1" d="M95.98,76.23c0,.14.03.17.17.17h14.3c.17,0,.28-.31.45-.56l.77-1.33c.14-.24.24-.45.38-.66h-16.08v2.38Z"/>
      </g>
    </g>
  </g>
</svg>