<?xml version="1.0" encoding="UTF-8"?>
<svg id="Layer_2" data-name="Layer 2" xmlns="http://www.w3.org/2000/svg" viewBox="0 0 127.09 127.1">
  <defs>
    <style>
      .cls-1 {
        fill: #fff;
      }

      .cls-2 {
        fill: #232e7f;
      }
    </style>
  </defs>
  <g id="Layer_1-2" data-name="Layer 1">
    <g>
      <path class="cls-2" d="M127.09,63.55c0,35.1-28.45,63.55-63.54,63.55S0,98.65,0,63.56h0C0,28.45,28.45,0,63.56,0s63.54,28.45,63.54,63.55"/>
      <g>
        <path class="cls-1" d="M86.77,58.52h-6.52v2.91h6.52v3.93h-6.52v3.23h6.52v5.41h-13.3v-20.73h13.3v5.25Z"/>
        <path class="cls-1" d="M100.92,51.54c-4.2,7.42-12.48,22.45-12.48,22.45h7.1l1.15-2.26h8.47l1.12,2.26h7.14l-12.49-22.45ZM98.33,68.32s2.6-5.32,2.6-5.32c0,0,2.54,5.33,2.54,5.32h-5.14ZM60.49,62.55l4.64-9.29h7.23s-11.87,22.27-11.87,22.27l-11.86-22.27h7.23s4.26,8.64,4.63,9.29M47.52,74h-6.78v-20.74s6.78.03,6.78,0v20.74ZM27.84,61.28v-8.02h6.78v22.27l-11.01-9.57v8.03h-6.79v-22.31l11.02,9.6Z"/>
      </g>
    </g>
  </g>
</svg>