<?xml version="1.0" encoding="UTF-8"?>
<svg id="Layer_2" data-name="Layer 2" xmlns="http://www.w3.org/2000/svg" viewBox="0 0 109.46 85.15">
  <defs>
    <style>
      .cls-1 {
        fill: #ff5f00;
      }

      .cls-2 {
        fill: #fff;
      }

      .cls-3 {
        fill: #f79e1b;
      }

      .cls-4 {
        fill: #eb001b;
      }
    </style>
  </defs>
  <g id="Layer_1-2" data-name="Layer 1">
    <g>
      <path class="cls-2" d="M19.95,84.66v-5.64c0-2.12-1.35-3.55-3.53-3.57-1.15-.02-2.33.34-3.16,1.6-.62-1-1.6-1.6-2.97-1.6-.96,0-1.9.28-2.63,1.33v-1.11h-1.95v8.98h1.97v-4.98c0-1.56.86-2.39,2.2-2.39s1.95.85,1.95,2.37v5h1.97v-4.98c0-1.56.9-2.39,2.2-2.39s1.97.85,1.97,2.37v5h1.97ZM49.15,75.68h-3.19v-2.72h-1.97v2.72h-1.82v1.79h1.82v4.1c0,2.09.81,3.33,3.12,3.33.85,0,1.82-.26,2.44-.7l-.56-1.67c-.58.34-1.22.51-1.73.51-.98,0-1.3-.6-1.3-1.5v-4.06h3.19v-1.79ZM65.82,75.46c-1.13,0-1.86.53-2.37,1.32v-1.09h-1.94v8.98h1.95v-5.04c0-1.48.64-2.31,1.92-2.31.39,0,.81.06,1.22.23l.6-1.84c-.43-.17-1-.24-1.39-.24h0ZM40.62,76.4c-.94-.62-2.24-.94-3.66-.94-2.27,0-3.74,1.09-3.74,2.87,0,1.47,1.09,2.37,3.1,2.65l.92.13c1.07.15,1.58.43,1.58.94,0,.7-.71,1.09-2.05,1.09s-2.33-.43-2.99-.94l-.92,1.52c1.07.79,2.42,1.17,3.89,1.17,2.59,0,4.1-1.22,4.1-2.93,0-1.58-1.18-2.41-3.14-2.69l-.92-.13c-.85-.11-1.52-.28-1.52-.88,0-.66.64-1.05,1.71-1.05,1.15,0,2.25.43,2.8.77l.85-1.58ZM92.97,75.46c-1.13,0-1.86.53-2.37,1.32v-1.09h-1.94v8.98h1.95v-5.04c0-1.48.64-2.31,1.92-2.31.39,0,.81.06,1.22.23l.6-1.84c-.43-.17-1-.24-1.39-.24h0ZM67.79,80.17c0,2.72,1.9,4.72,4.79,4.72,1.35,0,2.25-.3,3.23-1.07l-.94-1.58c-.73.53-1.5.81-2.35.81-1.56-.02-2.71-1.15-2.71-2.88s1.15-2.86,2.71-2.87c.85,0,1.62.28,2.35.81l.94-1.58c-.98-.77-1.88-1.07-3.23-1.07-2.89,0-4.79,1.99-4.79,4.72h0ZM86.09,80.17v-4.49h-1.95v1.09c-.62-.81-1.56-1.32-2.84-1.32-2.52,0-4.49,1.97-4.49,4.72s1.97,4.72,4.49,4.72c1.28,0,2.22-.51,2.84-1.32v1.09h1.95v-4.49ZM78.82,80.17c0-1.58,1.03-2.87,2.72-2.87s2.71,1.24,2.71,2.87-1.09,2.88-2.71,2.88-2.72-1.3-2.72-2.88h0ZM55.24,75.46c-2.63,0-4.47,1.92-4.47,4.72s1.92,4.72,4.6,4.72c1.35,0,2.59-.34,3.68-1.26l-.96-1.45c-.75.6-1.71.94-2.61.94-1.26,0-2.41-.58-2.69-2.2h6.67c.02-.24.04-.49.04-.75-.02-2.8-1.75-4.72-4.27-4.72h0ZM55.2,77.2c1.26,0,2.07.79,2.27,2.18h-4.66c.21-1.3,1-2.18,2.39-2.18h0ZM104.22,80.17v-8.1h-1.95v4.7c-.62-.81-1.56-1.32-2.84-1.32-2.52,0-4.49,1.97-4.49,4.72s1.97,4.72,4.49,4.72c1.28,0,2.22-.51,2.84-1.32v1.09h1.95v-4.49ZM96.95,80.17c0-1.58,1.03-2.87,2.72-2.87s2.71,1.24,2.71,2.87-1.09,2.88-2.71,2.88-2.72-1.3-2.72-2.88h0ZM30.96,80.17v-4.49h-1.95v1.09c-.62-.81-1.56-1.32-2.84-1.32-2.52,0-4.49,1.97-4.49,4.72s1.97,4.72,4.49,4.72c1.28,0,2.22-.51,2.84-1.32v1.09h1.95v-4.49ZM23.69,80.17c0-1.58,1.03-2.87,2.72-2.87s2.71,1.24,2.71,2.87-1.09,2.88-2.71,2.88-2.72-1.3-2.72-2.88ZM107.48,83.36c.13,0,.24.02.35.07.11.05.21.11.29.19.08.08.15.18.19.28s.07.22.07.35-.02.24-.07.35c-.05.11-.11.2-.19.28-.08.08-.18.14-.29.19-.11.05-.23.07-.35.07s-.25-.02-.36-.07c-.11-.05-.21-.11-.29-.19-.08-.08-.15-.18-.19-.28-.05-.11-.07-.22-.07-.35s.02-.24.07-.35c.05-.11.11-.2.19-.28.08-.08.18-.14.29-.19.11-.05.23-.07.36-.07ZM107.48,84.95c.1,0,.19-.02.27-.05.08-.04.16-.09.22-.15.06-.06.11-.14.15-.22.04-.08.05-.18.05-.27s-.02-.19-.05-.27c-.04-.08-.08-.16-.15-.22-.06-.06-.14-.11-.22-.15s-.17-.05-.27-.05-.19.02-.27.05c-.09.04-.16.08-.22.15-.06.06-.11.14-.15.22-.04.08-.05.18-.05.27s.02.19.05.27c.04.08.09.16.15.22.06.06.14.11.22.15.09.04.18.05.27.05ZM107.53,83.84c.11,0,.19.02.25.07.06.05.09.11.09.19,0,.07-.02.13-.07.17-.05.04-.11.07-.2.08l.27.31h-.21l-.25-.31h-.08v.31h-.18v-.83h.38ZM107.33,83.99v.22h.2s.08,0,.11-.03c.03-.02.04-.05.04-.08s-.01-.06-.04-.08c-.03-.02-.07-.03-.11-.03h-.2Z"/>
      <g>
        <rect class="cls-1" x="39.93" y="7.23" width="29.6" height="53.19"/>
        <path class="cls-4" d="M41.81,33.83c0-10.79,5.05-20.4,12.92-26.59C48.98,2.7,41.72,0,33.82,0,15.14,0,0,15.14,0,33.83s15.14,33.83,33.82,33.83c7.89,0,15.15-2.7,20.9-7.23-7.87-6.19-12.92-15.8-12.92-26.59Z"/>
        <path class="cls-3" d="M109.46,33.83c0,18.68-15.14,33.83-33.82,33.83-7.89,0-15.15-2.7-20.9-7.23,7.87-6.19,12.92-15.8,12.92-26.59s-5.05-20.4-12.92-26.59c5.75-4.53,13.01-7.23,20.9-7.23,18.68,0,33.82,15.14,33.82,33.83Z"/>
        <path class="cls-3" d="M106.23,54.79v-1.09h.44v-.22h-1.12v.22h.44v1.09h.24ZM108.4,54.79v-1.31h-.34l-.39.9-.39-.9h-.34v1.31h.24v-.99l.37.85h.25l.37-.86v.99h.24Z"/>
      </g>
    </g>
  </g>
</svg>