<?xml version="1.0" encoding="UTF-8"?>
<svg id="Layer_2" data-name="Layer 2" xmlns="http://www.w3.org/2000/svg" viewBox="0 0 226.67 67.98">
  <defs>
    <style>
      .cls-1 {
        fill: #1ed760;
      }
    </style>
  </defs>
  <g id="Layer_1-2" data-name="Layer 1">
    <path class="cls-1" d="M33.99,0C15.22,0,0,15.22,0,33.99s15.22,33.99,33.99,33.99,33.99-15.22,33.99-33.99S52.77,0,33.99,0h0s0,0,0,0ZM49.58,49.02c-.61,1-1.91,1.31-2.91.7,0,0,0,0,0,0-7.98-4.87-18.03-5.98-29.86-3.28-1.14.26-2.28-.45-2.54-1.6-.26-1.14.45-2.27,1.59-2.54,0,0,0,0,0,0,12.95-2.96,24.05-1.68,33.01,3.79,1,.61,1.32,1.92.7,2.91ZM53.74,39.77c-.77,1.25-2.4,1.64-3.64.87-9.14-5.62-23.06-7.24-33.87-3.96-1.4.42-2.88-.37-3.31-1.77-.42-1.4.37-2.88,1.77-3.31,12.34-3.75,27.69-1.93,38.18,4.52,1.25.77,1.64,2.4.87,3.64h0ZM54.1,30.13c-10.96-6.51-29.03-7.11-39.49-3.93-1.68.51-3.46-.44-3.96-2.12-.51-1.68.44-3.46,2.12-3.97,12.01-3.64,31.97-2.94,44.58,4.55,1.51.89,2.01,2.84,1.12,4.35,0,0,0,0,0,0-.89,1.51-2.85,2.01-4.36,1.11h0ZM92.48,31.38c-5.87-1.4-6.91-2.38-6.91-4.45,0-1.95,1.83-3.26,4.57-3.26s5.27,1,8.02,3.05c.08.06.19.09.29.07.1-.01.2-.07.26-.16l2.87-4.04c.12-.17.09-.4-.07-.52-3.28-2.63-6.96-3.9-11.27-3.9-6.34,0-10.76,3.8-10.76,9.24,0,5.83,3.82,7.9,10.42,9.5,5.61,1.29,6.56,2.38,6.56,4.31,0,2.15-1.92,3.48-5,3.48-3.43,0-6.22-1.16-9.35-3.86-.08-.07-.18-.1-.28-.09-.11,0-.2.06-.26.13l-3.21,3.82c-.13.16-.12.4.04.54,3.64,3.25,8.11,4.96,12.94,4.96,6.83,0,11.24-3.73,11.24-9.51.01-4.87-2.91-7.57-10.05-9.31h-.01ZM117.99,25.59c-2.96,0-5.39,1.17-7.39,3.55v-2.69c0-.21-.17-.38-.38-.39h-5.26c-.21,0-.38.17-.38.39v29.87c0,.21.17.39.38.39h5.26c.21,0,.38-.17.38-.39v-9.43c2.01,2.24,4.43,3.34,7.39,3.34,5.5,0,11.07-4.23,11.07-12.33,0-8.09-5.56-12.33-11.06-12.33h0ZM122.95,37.92c0,4.12-2.54,7-6.17,7s-6.3-3.01-6.3-7,2.71-7,6.3-7c3.58,0,6.17,2.94,6.17,7h0ZM143.33,25.59c-7.08,0-12.63,5.45-12.63,12.42s5.51,12.28,12.55,12.28,12.67-5.43,12.67-12.37-5.53-12.33-12.59-12.33h0ZM143.33,44.96c-3.77,0-6.61-3.03-6.61-7.04s2.74-6.95,6.52-6.95,6.65,3.03,6.65,7.04-2.76,6.95-6.56,6.95h0ZM171.04,26.07h-5.78v-5.91c0-.21-.17-.38-.38-.38h-5.26c-.21,0-.39.17-.39.38v5.91h-2.52c-.21,0-.38.17-.38.39v4.52c0,.21.17.39.38.39h2.52v11.69c0,4.72,2.35,7.12,6.99,7.12,1.88,0,3.45-.39,4.92-1.23.12-.06.19-.19.19-.33v-4.3c0-.13-.07-.26-.18-.32-.11-.07-.26-.08-.37-.02-1.01.51-1.99.74-3.08.74-1.68,0-2.44-.77-2.44-2.48v-10.86h5.78c.21,0,.38-.17.38-.39v-4.52c0-.21-.15-.38-.36-.39,0,0-.01,0-.02,0h0ZM191.19,26.09v-.73c0-2.14.82-3.09,2.65-3.09,1.1,0,1.98.22,2.96.55.12.04.25.02.35-.05.1-.07.16-.19.16-.31v-4.43c0-.17-.11-.32-.27-.37-1.04-.31-2.37-.63-4.37-.63-4.85,0-7.42,2.73-7.42,7.9v1.11h-2.52c-.21,0-.39.17-.39.38v4.54c0,.21.17.39.39.39h2.52v18.02c0,.22.17.39.39.39h5.25c.22,0,.39-.17.39-.39v-18.02h4.91l7.52,18.02c-.85,1.89-1.69,2.27-2.84,2.27-.93,0-1.9-.28-2.9-.82-.09-.05-.2-.06-.3-.03-.1.04-.19.11-.23.21l-1.78,3.91c-.09.19-.01.4.17.5,1.86,1.01,3.54,1.44,5.61,1.44,3.88,0,6.03-1.81,7.92-6.67l9.12-23.56c.05-.12.03-.25-.04-.36-.07-.1-.19-.17-.31-.17h-5.47c-.17,0-.31.1-.37.26l-5.61,16.01-6.14-16.02c-.06-.15-.2-.25-.36-.25h-8.98ZM179.51,26.07h-5.26c-.21,0-.39.17-.39.39v22.93c0,.22.17.39.39.39h5.26c.21,0,.39-.17.39-.39v-22.92c0-.21-.17-.38-.38-.39,0,0,0,0,0,0h0ZM176.91,15.63c-2.08,0-3.77,1.69-3.77,3.77s1.69,3.77,3.77,3.77,3.77-1.69,3.77-3.77-1.69-3.77-3.77-3.77ZM222.95,33.44c-2.08,0-3.7-1.67-3.7-3.7s1.64-3.72,3.72-3.72,3.7,1.67,3.7,3.7-1.64,3.72-3.72,3.72h0ZM222.97,26.39c-1.9,0-3.33,1.51-3.33,3.35s1.42,3.33,3.31,3.33,3.33-1.5,3.33-3.35-1.42-3.33-3.31-3.33h0ZM223.79,30.1l1.05,1.46h-.88l-.94-1.34h-.81v1.34h-.74v-3.88h1.73c.91,0,1.5.46,1.5,1.24,0,.64-.37,1.03-.9,1.18h0ZM223.16,28.35h-.96v1.23h.96c.48,0,.77-.24.77-.61,0-.4-.29-.61-.77-.61Z"/>
  </g>
</svg>