<?xml version="1.0" encoding="UTF-8"?>
<svg id="Layer_2" data-name="Layer 2" xmlns="http://www.w3.org/2000/svg" viewBox="0 0 133.58 46.33">
  <defs>
    <style>
      .cls-1 {
        fill: #fff;
      }
    </style>
  </defs>
  <g id="Layer_1-2" data-name="Layer 1">
    <g>
      <path class="cls-1" d="M47.73,0v16.45c6.47-6.41,16.99-6.39,23.66-.27,12.97,11.91,1.61,33.7-15.76,29.65-3.61-.84-4.93-2.13-7.69-4.24-.11-.08-.13-.2-.32-.16v4.01h-6.55V0h6.65ZM67.02,37.19c6.05-6.04,3.64-16.74-4.61-19.21-9.02-2.7-17.05,5.66-14.28,14.58,2.5,8.04,12.91,10.6,18.89,4.63Z"/>
      <path class="cls-1" d="M6.86,0v29.37c1.5,14.78,21.63,14.44,22.39-1.05V0s6.75,0,6.75,0v45.45h-6.76v-4.11c-7.2,7.39-20.33,6.37-26.17-2.18C1.21,36.41.28,33.19,0,29.89V0s6.86,0,6.86,0Z"/>
      <path class="cls-1" d="M86.17,31.11c1.67,10.04,14.71,12.71,20.55,4.54l4.68,3.44c.04.09,0,.16-.04.24-.17.4-1.61,1.85-2,2.22-11.71,10.92-31.61,1.84-29.73-14.71,1.68-14.81,20.83-20.77,30.03-8.9,2.52,3.25,4.03,8.72,3.55,12.81-.02.15-.01.27-.16.36h-26.87ZM106.55,25.83c-1.28-5.7-6.48-9.46-12.36-8.17-4.1.9-6.92,4.21-7.92,8.17h20.27Z"/>
      <path class="cls-1" d="M133.58,18.14c-3.66-.17-7.04.16-8.99,3.62-.4.7-1.14,2.63-1.14,3.39v20.3h-6.65V12.34h6.55v4.01l1.37-1.74c2.05-2.06,5.66-2.92,8.51-2.58.15.02.27.01.36.16v5.96Z"/>
    </g>
  </g>
</svg>